<svg width="889" height="487" viewBox="0 0 889 487" fill="none" xmlns="http://www.w3.org/2000/svg">
<rect width="889" height="487" fill="white"/>
<rect x="67" y="56" width="335" height="335" fill="#FFF4F4"/>
<path d="M278.454 103.477H279.808C280.452 103.477 280.93 103.315 281.24 102.993C281.551 102.671 281.706 102.243 281.706 101.71C281.706 101.194 281.551 100.793 281.24 100.506C280.936 100.219 280.514 100.075 279.975 100.075C279.488 100.075 279.081 100.21 278.753 100.479C278.425 100.743 278.261 101.089 278.261 101.517H275.721C275.721 100.849 275.899 100.251 276.257 99.7236C276.62 99.1904 277.124 98.7744 277.769 98.4756C278.419 98.1768 279.134 98.0273 279.913 98.0273C281.267 98.0273 282.327 98.3525 283.095 99.0029C283.862 99.6475 284.246 100.538 284.246 101.675C284.246 102.261 284.067 102.8 283.71 103.292C283.353 103.784 282.884 104.162 282.304 104.426C283.024 104.684 283.561 105.07 283.912 105.586C284.27 106.102 284.448 106.711 284.448 107.414C284.448 108.551 284.032 109.462 283.2 110.147C282.374 110.833 281.278 111.176 279.913 111.176C278.636 111.176 277.59 110.839 276.775 110.165C275.967 109.491 275.562 108.601 275.562 107.493H278.103C278.103 107.974 278.281 108.366 278.639 108.671C279.002 108.976 279.447 109.128 279.975 109.128C280.578 109.128 281.05 108.97 281.39 108.653C281.735 108.331 281.908 107.906 281.908 107.379C281.908 106.102 281.205 105.463 279.799 105.463H278.454V103.477ZM286.584 104.707L287.322 98.2031H294.494V100.321H289.405L289.089 103.072C289.692 102.75 290.334 102.589 291.014 102.589C292.232 102.589 293.188 102.967 293.879 103.723C294.57 104.479 294.916 105.536 294.916 106.896C294.916 107.722 294.74 108.463 294.389 109.119C294.043 109.77 293.545 110.276 292.895 110.64C292.244 110.997 291.477 111.176 290.592 111.176C289.818 111.176 289.101 111.021 288.438 110.71C287.776 110.394 287.252 109.951 286.865 109.383C286.484 108.814 286.282 108.167 286.259 107.44H288.772C288.825 107.974 289.01 108.39 289.326 108.688C289.648 108.981 290.067 109.128 290.583 109.128C291.157 109.128 291.6 108.923 291.91 108.513C292.221 108.097 292.376 107.511 292.376 106.755C292.376 106.028 292.197 105.472 291.84 105.085C291.482 104.698 290.976 104.505 290.319 104.505C289.716 104.505 289.227 104.663 288.852 104.979L288.605 105.208L286.584 104.707ZM303.934 108.882H309.532V111H301.297V98.2031H303.934V108.882ZM313.566 111H311.018V101.49H313.566V111ZM310.868 99.0293C310.868 98.6484 310.994 98.335 311.246 98.0889C311.504 97.8428 311.853 97.7197 312.292 97.7197C312.726 97.7197 313.071 97.8428 313.329 98.0889C313.587 98.335 313.716 98.6484 313.716 99.0293C313.716 99.416 313.584 99.7324 313.32 99.9785C313.062 100.225 312.72 100.348 312.292 100.348C311.864 100.348 311.519 100.225 311.255 99.9785C310.997 99.7324 310.868 99.416 310.868 99.0293ZM320.817 108.372C320.817 108.062 320.662 107.818 320.352 107.643C320.047 107.461 319.555 107.3 318.875 107.159C316.613 106.685 315.482 105.724 315.482 104.276C315.482 103.433 315.831 102.729 316.528 102.167C317.231 101.599 318.148 101.314 319.279 101.314C320.486 101.314 321.45 101.599 322.171 102.167C322.897 102.735 323.261 103.474 323.261 104.382H320.721C320.721 104.019 320.604 103.72 320.369 103.485C320.135 103.245 319.769 103.125 319.271 103.125C318.843 103.125 318.512 103.222 318.277 103.415C318.043 103.608 317.926 103.854 317.926 104.153C317.926 104.435 318.058 104.663 318.321 104.839C318.591 105.009 319.042 105.158 319.675 105.287C320.308 105.41 320.841 105.551 321.274 105.709C322.616 106.201 323.287 107.054 323.287 108.267C323.287 109.134 322.915 109.837 322.171 110.376C321.427 110.909 320.466 111.176 319.288 111.176C318.491 111.176 317.782 111.035 317.161 110.754C316.546 110.467 316.062 110.077 315.711 109.585C315.359 109.087 315.184 108.551 315.184 107.977H317.592C317.615 108.428 317.782 108.773 318.093 109.014C318.403 109.254 318.819 109.374 319.341 109.374C319.827 109.374 320.193 109.283 320.439 109.102C320.691 108.914 320.817 108.671 320.817 108.372ZM327.972 99.1523V101.49H329.598V103.354H327.972V108.1C327.972 108.451 328.039 108.703 328.174 108.855C328.309 109.008 328.566 109.084 328.947 109.084C329.229 109.084 329.478 109.063 329.694 109.022V110.947C329.196 111.1 328.684 111.176 328.156 111.176C326.375 111.176 325.467 110.276 325.432 108.478V103.354H324.043V101.49H325.432V99.1523H327.972ZM335.39 111.176C333.995 111.176 332.858 110.748 331.979 109.893C331.106 109.037 330.67 107.897 330.67 106.474V106.228C330.67 105.272 330.854 104.42 331.224 103.67C331.593 102.914 332.114 102.334 332.788 101.93C333.468 101.52 334.241 101.314 335.108 101.314C336.409 101.314 337.432 101.725 338.176 102.545C338.926 103.365 339.301 104.528 339.301 106.034V107.071H333.245C333.327 107.692 333.573 108.19 333.983 108.565C334.399 108.94 334.924 109.128 335.557 109.128C336.535 109.128 337.3 108.773 337.851 108.064L339.099 109.462C338.718 110.001 338.202 110.423 337.552 110.728C336.901 111.026 336.181 111.176 335.39 111.176ZM335.1 103.371C334.596 103.371 334.186 103.541 333.869 103.881C333.559 104.221 333.359 104.707 333.271 105.34H336.805V105.138C336.793 104.575 336.641 104.142 336.348 103.837C336.055 103.526 335.639 103.371 335.1 103.371ZM343.089 101.49L343.168 102.589C343.848 101.739 344.759 101.314 345.901 101.314C346.909 101.314 347.659 101.61 348.151 102.202C348.644 102.794 348.896 103.679 348.907 104.856V111H346.367V104.918C346.367 104.379 346.25 103.989 346.016 103.749C345.781 103.503 345.392 103.38 344.847 103.38C344.132 103.38 343.596 103.685 343.238 104.294V111H340.698V101.49H343.089ZM355.218 111.176C353.823 111.176 352.687 110.748 351.808 109.893C350.935 109.037 350.498 107.897 350.498 106.474V106.228C350.498 105.272 350.683 104.42 351.052 103.67C351.421 102.914 351.942 102.334 352.616 101.93C353.296 101.52 354.069 101.314 354.937 101.314C356.237 101.314 357.26 101.725 358.004 102.545C358.754 103.365 359.129 104.528 359.129 106.034V107.071H353.073C353.155 107.692 353.401 108.19 353.812 108.565C354.228 108.94 354.752 109.128 355.385 109.128C356.363 109.128 357.128 108.773 357.679 108.064L358.927 109.462C358.546 110.001 358.03 110.423 357.38 110.728C356.729 111.026 356.009 111.176 355.218 111.176ZM354.928 103.371C354.424 103.371 354.014 103.541 353.697 103.881C353.387 104.221 353.188 104.707 353.1 105.34H356.633V105.138C356.621 104.575 356.469 104.142 356.176 103.837C355.883 103.526 355.467 103.371 354.928 103.371ZM365.923 103.872C365.577 103.825 365.272 103.802 365.009 103.802C364.048 103.802 363.418 104.127 363.119 104.777V111H360.579V101.49H362.979L363.049 102.624C363.559 101.751 364.265 101.314 365.167 101.314C365.448 101.314 365.712 101.353 365.958 101.429L365.923 103.872ZM372.304 108.372C372.304 108.062 372.148 107.818 371.838 107.643C371.533 107.461 371.041 107.3 370.361 107.159C368.1 106.685 366.969 105.724 366.969 104.276C366.969 103.433 367.317 102.729 368.015 102.167C368.718 101.599 369.635 101.314 370.766 101.314C371.973 101.314 372.937 101.599 373.657 102.167C374.384 102.735 374.747 103.474 374.747 104.382H372.207C372.207 104.019 372.09 103.72 371.855 103.485C371.621 103.245 371.255 103.125 370.757 103.125C370.329 103.125 369.998 103.222 369.764 103.415C369.529 103.608 369.412 103.854 369.412 104.153C369.412 104.435 369.544 104.663 369.808 104.839C370.077 105.009 370.528 105.158 371.161 105.287C371.794 105.41 372.327 105.551 372.761 105.709C374.103 106.201 374.773 107.054 374.773 108.267C374.773 109.134 374.401 109.837 373.657 110.376C372.913 110.909 371.952 111.176 370.774 111.176C369.978 111.176 369.269 111.035 368.647 110.754C368.032 110.467 367.549 110.077 367.197 109.585C366.846 109.087 366.67 108.551 366.67 107.977H369.078C369.102 108.428 369.269 108.773 369.579 109.014C369.89 109.254 370.306 109.374 370.827 109.374C371.313 109.374 371.68 109.283 371.926 109.102C372.178 108.914 372.304 108.671 372.304 108.372Z" fill="#FFF4F4"/>
<rect x="67" y="76" width="335" height="215" fill="#FFCCCC"/>
<path d="M77.6934 71H76V64.4727L73.9785 65.0996V63.7227L77.5117 62.457H77.6934V71ZM83.2656 67.7715C83.2656 67.1426 83.3867 66.582 83.6289 66.0898C83.8711 65.5977 84.2188 65.2168 84.6719 64.9473C85.1289 64.6777 85.6582 64.543 86.2598 64.543C87.1152 64.543 87.8125 64.8047 88.3516 65.3281C88.8945 65.8516 89.1973 66.5625 89.2598 67.4609L89.2715 67.8945C89.2715 68.8672 89 69.6484 88.457 70.2383C87.9141 70.8242 87.1855 71.1172 86.2715 71.1172C85.3574 71.1172 84.627 70.8242 84.0801 70.2383C83.5371 69.6523 83.2656 68.8555 83.2656 67.8477V67.7715ZM84.959 67.8945C84.959 68.4961 85.0723 68.957 85.2988 69.2773C85.5254 69.5938 85.8496 69.752 86.2715 69.752C86.6816 69.752 87.002 69.5957 87.2324 69.2832C87.4629 68.9668 87.5781 68.4629 87.5781 67.7715C87.5781 67.1816 87.4629 66.7246 87.2324 66.4004C87.002 66.0762 86.6777 65.9141 86.2598 65.9141C85.8457 65.9141 85.5254 66.0762 85.2988 66.4004C85.0723 66.7207 84.959 67.2188 84.959 67.8945ZM90.7773 71V65.9023H89.834V64.6602H90.7773V64.1211C90.7773 63.4102 90.9805 62.8594 91.3867 62.4688C91.7969 62.0742 92.3691 61.877 93.1035 61.877C93.3379 61.877 93.625 61.916 93.9648 61.9941L93.9473 63.3066C93.8066 63.2715 93.6348 63.2539 93.4316 63.2539C92.7949 63.2539 92.4766 63.5527 92.4766 64.1504V64.6602H93.7363V65.9023H92.4766V71H90.7773ZM97.7852 66.8047L98.2773 62.4688H103.059V63.8809H99.666L99.4551 65.7148C99.8574 65.5 100.285 65.3926 100.738 65.3926C101.551 65.3926 102.188 65.6445 102.648 66.1484C103.109 66.6523 103.34 67.3574 103.34 68.2637C103.34 68.8145 103.223 69.3086 102.988 69.7461C102.758 70.1797 102.426 70.5176 101.992 70.7598C101.559 70.998 101.047 71.1172 100.457 71.1172C99.9414 71.1172 99.4629 71.0137 99.0215 70.8066C98.5801 70.5957 98.2305 70.3008 97.9727 69.9219C97.7188 69.543 97.584 69.1113 97.5684 68.627H99.2441C99.2793 68.9824 99.4023 69.2598 99.6133 69.459C99.8281 69.6543 100.107 69.752 100.451 69.752C100.834 69.752 101.129 69.6152 101.336 69.3418C101.543 69.0645 101.646 68.6738 101.646 68.1699C101.646 67.6855 101.527 67.3145 101.289 67.0566C101.051 66.7988 100.713 66.6699 100.275 66.6699C99.873 66.6699 99.5469 66.7754 99.2969 66.9863L99.1328 67.1387L97.7852 66.8047Z" fill="black"/>
<circle cx="111.5" cy="323.5" r="16.5" fill="#FF4500"/>
<path d="M110.793 331.707C111.183 332.098 111.817 332.098 112.207 331.707L118.571 325.343C118.962 324.953 118.962 324.319 118.571 323.929C118.181 323.538 117.547 323.538 117.157 323.929L111.5 329.586L105.843 323.929C105.453 323.538 104.819 323.538 104.429 323.929C104.038 324.319 104.038 324.953 104.429 325.343L110.793 331.707ZM110.5 314.5L110.5 331L112.5 331L112.5 314.5L110.5 314.5Z" fill="white"/>
<circle cx="363.5" cy="320.5" r="13.5" transform="rotate(-180 363.5 320.5)" fill="#FF4500"/>
<path d="M364.207 313.656C363.817 313.266 363.183 313.266 362.793 313.656L356.429 320.02C356.038 320.411 356.038 321.044 356.429 321.434C356.819 321.825 357.453 321.825 357.843 321.434L363.5 315.777L369.157 321.434C369.547 321.825 370.181 321.825 370.571 321.434C370.962 321.044 370.962 320.411 370.571 320.02L364.207 313.656ZM364.5 327.863L364.5 314.363L362.5 314.363L362.5 327.863L364.5 327.863Z" fill="white"/>
<rect x="488" y="60" width="335" height="335" fill="#FFF4F4"/>
<path d="M699.454 107.477H700.808C701.452 107.477 701.93 107.315 702.24 106.993C702.551 106.671 702.706 106.243 702.706 105.71C702.706 105.194 702.551 104.793 702.24 104.506C701.936 104.219 701.514 104.075 700.975 104.075C700.488 104.075 700.081 104.21 699.753 104.479C699.425 104.743 699.261 105.089 699.261 105.517H696.721C696.721 104.849 696.899 104.251 697.257 103.724C697.62 103.19 698.124 102.774 698.769 102.476C699.419 102.177 700.134 102.027 700.913 102.027C702.267 102.027 703.327 102.353 704.095 103.003C704.862 103.647 705.246 104.538 705.246 105.675C705.246 106.261 705.067 106.8 704.71 107.292C704.353 107.784 703.884 108.162 703.304 108.426C704.024 108.684 704.561 109.07 704.912 109.586C705.27 110.102 705.448 110.711 705.448 111.414C705.448 112.551 705.032 113.462 704.2 114.147C703.374 114.833 702.278 115.176 700.913 115.176C699.636 115.176 698.59 114.839 697.775 114.165C696.967 113.491 696.562 112.601 696.562 111.493H699.103C699.103 111.974 699.281 112.366 699.639 112.671C700.002 112.976 700.447 113.128 700.975 113.128C701.578 113.128 702.05 112.97 702.39 112.653C702.735 112.331 702.908 111.906 702.908 111.379C702.908 110.102 702.205 109.463 700.799 109.463H699.454V107.477ZM707.584 108.707L708.322 102.203H715.494V104.321H710.405L710.089 107.072C710.692 106.75 711.334 106.589 712.014 106.589C713.232 106.589 714.188 106.967 714.879 107.723C715.57 108.479 715.916 109.536 715.916 110.896C715.916 111.722 715.74 112.463 715.389 113.119C715.043 113.77 714.545 114.276 713.895 114.64C713.244 114.997 712.477 115.176 711.592 115.176C710.818 115.176 710.101 115.021 709.438 114.71C708.776 114.394 708.252 113.951 707.865 113.383C707.484 112.814 707.282 112.167 707.259 111.44H709.772C709.825 111.974 710.01 112.39 710.326 112.688C710.648 112.981 711.067 113.128 711.583 113.128C712.157 113.128 712.6 112.923 712.91 112.513C713.221 112.097 713.376 111.511 713.376 110.755C713.376 110.028 713.197 109.472 712.84 109.085C712.482 108.698 711.976 108.505 711.319 108.505C710.716 108.505 710.227 108.663 709.852 108.979L709.605 109.208L707.584 108.707ZM724.934 112.882H730.532V115H722.297V102.203H724.934V112.882ZM734.566 115H732.018V105.49H734.566V115ZM731.868 103.029C731.868 102.648 731.994 102.335 732.246 102.089C732.504 101.843 732.853 101.72 733.292 101.72C733.726 101.72 734.071 101.843 734.329 102.089C734.587 102.335 734.716 102.648 734.716 103.029C734.716 103.416 734.584 103.732 734.32 103.979C734.062 104.225 733.72 104.348 733.292 104.348C732.864 104.348 732.519 104.225 732.255 103.979C731.997 103.732 731.868 103.416 731.868 103.029ZM741.817 112.372C741.817 112.062 741.662 111.818 741.352 111.643C741.047 111.461 740.555 111.3 739.875 111.159C737.613 110.685 736.482 109.724 736.482 108.276C736.482 107.433 736.831 106.729 737.528 106.167C738.231 105.599 739.148 105.314 740.279 105.314C741.486 105.314 742.45 105.599 743.171 106.167C743.897 106.735 744.261 107.474 744.261 108.382H741.721C741.721 108.019 741.604 107.72 741.369 107.485C741.135 107.245 740.769 107.125 740.271 107.125C739.843 107.125 739.512 107.222 739.277 107.415C739.043 107.608 738.926 107.854 738.926 108.153C738.926 108.435 739.058 108.663 739.321 108.839C739.591 109.009 740.042 109.158 740.675 109.287C741.308 109.41 741.841 109.551 742.274 109.709C743.616 110.201 744.287 111.054 744.287 112.267C744.287 113.134 743.915 113.837 743.171 114.376C742.427 114.909 741.466 115.176 740.288 115.176C739.491 115.176 738.782 115.035 738.161 114.754C737.546 114.467 737.062 114.077 736.711 113.585C736.359 113.087 736.184 112.551 736.184 111.977H738.592C738.615 112.428 738.782 112.773 739.093 113.014C739.403 113.254 739.819 113.374 740.341 113.374C740.827 113.374 741.193 113.283 741.439 113.102C741.691 112.914 741.817 112.671 741.817 112.372ZM748.972 103.152V105.49H750.598V107.354H748.972V112.1C748.972 112.451 749.039 112.703 749.174 112.855C749.309 113.008 749.566 113.084 749.947 113.084C750.229 113.084 750.478 113.063 750.694 113.022V114.947C750.196 115.1 749.684 115.176 749.156 115.176C747.375 115.176 746.467 114.276 746.432 112.478V107.354H745.043V105.49H746.432V103.152H748.972ZM756.39 115.176C754.995 115.176 753.858 114.748 752.979 113.893C752.106 113.037 751.67 111.897 751.67 110.474V110.228C751.67 109.272 751.854 108.42 752.224 107.67C752.593 106.914 753.114 106.334 753.788 105.93C754.468 105.52 755.241 105.314 756.108 105.314C757.409 105.314 758.432 105.725 759.176 106.545C759.926 107.365 760.301 108.528 760.301 110.034V111.071H754.245C754.327 111.692 754.573 112.19 754.983 112.565C755.399 112.94 755.924 113.128 756.557 113.128C757.535 113.128 758.3 112.773 758.851 112.064L760.099 113.462C759.718 114.001 759.202 114.423 758.552 114.728C757.901 115.026 757.181 115.176 756.39 115.176ZM756.1 107.371C755.596 107.371 755.186 107.541 754.869 107.881C754.559 108.221 754.359 108.707 754.271 109.34H757.805V109.138C757.793 108.575 757.641 108.142 757.348 107.837C757.055 107.526 756.639 107.371 756.1 107.371ZM764.089 105.49L764.168 106.589C764.848 105.739 765.759 105.314 766.901 105.314C767.909 105.314 768.659 105.61 769.151 106.202C769.644 106.794 769.896 107.679 769.907 108.856V115H767.367V108.918C767.367 108.379 767.25 107.989 767.016 107.749C766.781 107.503 766.392 107.38 765.847 107.38C765.132 107.38 764.596 107.685 764.238 108.294V115H761.698V105.49H764.089ZM776.218 115.176C774.823 115.176 773.687 114.748 772.808 113.893C771.935 113.037 771.498 111.897 771.498 110.474V110.228C771.498 109.272 771.683 108.42 772.052 107.67C772.421 106.914 772.942 106.334 773.616 105.93C774.296 105.52 775.069 105.314 775.937 105.314C777.237 105.314 778.26 105.725 779.004 106.545C779.754 107.365 780.129 108.528 780.129 110.034V111.071H774.073C774.155 111.692 774.401 112.19 774.812 112.565C775.228 112.94 775.752 113.128 776.385 113.128C777.363 113.128 778.128 112.773 778.679 112.064L779.927 113.462C779.546 114.001 779.03 114.423 778.38 114.728C777.729 115.026 777.009 115.176 776.218 115.176ZM775.928 107.371C775.424 107.371 775.014 107.541 774.697 107.881C774.387 108.221 774.188 108.707 774.1 109.34H777.633V109.138C777.621 108.575 777.469 108.142 777.176 107.837C776.883 107.526 776.467 107.371 775.928 107.371ZM786.923 107.872C786.577 107.825 786.272 107.802 786.009 107.802C785.048 107.802 784.418 108.127 784.119 108.777V115H781.579V105.49H783.979L784.049 106.624C784.559 105.751 785.265 105.314 786.167 105.314C786.448 105.314 786.712 105.353 786.958 105.429L786.923 107.872ZM793.304 112.372C793.304 112.062 793.148 111.818 792.838 111.643C792.533 111.461 792.041 111.3 791.361 111.159C789.1 110.685 787.969 109.724 787.969 108.276C787.969 107.433 788.317 106.729 789.015 106.167C789.718 105.599 790.635 105.314 791.766 105.314C792.973 105.314 793.937 105.599 794.657 106.167C795.384 106.735 795.747 107.474 795.747 108.382H793.207C793.207 108.019 793.09 107.72 792.855 107.485C792.621 107.245 792.255 107.125 791.757 107.125C791.329 107.125 790.998 107.222 790.764 107.415C790.529 107.608 790.412 107.854 790.412 108.153C790.412 108.435 790.544 108.663 790.808 108.839C791.077 109.009 791.528 109.158 792.161 109.287C792.794 109.41 793.327 109.551 793.761 109.709C795.103 110.201 795.773 111.054 795.773 112.267C795.773 113.134 795.401 113.837 794.657 114.376C793.913 114.909 792.952 115.176 791.774 115.176C790.978 115.176 790.269 115.035 789.647 114.754C789.032 114.467 788.549 114.077 788.197 113.585C787.846 113.087 787.67 112.551 787.67 111.977H790.078C790.102 112.428 790.269 112.773 790.579 113.014C790.89 113.254 791.306 113.374 791.827 113.374C792.313 113.374 792.68 113.283 792.926 113.102C793.178 112.914 793.304 112.671 793.304 112.372Z" fill="#FFF4F4"/>
<rect x="488" y="80" width="335" height="120" fill="#FFCCCC"/>
<rect x="488" y="202" width="335" height="120" fill="#FFCCCC"/>
<path d="M500.428 75H494.58V73.8398L497.34 70.8984C497.719 70.4844 497.998 70.123 498.178 69.8145C498.361 69.5059 498.453 69.2129 498.453 68.9355C498.453 68.5566 498.357 68.2598 498.166 68.0449C497.975 67.8262 497.701 67.7168 497.346 67.7168C496.963 67.7168 496.66 67.8496 496.438 68.1152C496.219 68.377 496.109 68.7227 496.109 69.1523H494.41C494.41 68.6328 494.533 68.1582 494.779 67.7285C495.029 67.2988 495.381 66.9629 495.834 66.7207C496.287 66.4746 496.801 66.3516 497.375 66.3516C498.254 66.3516 498.936 66.5625 499.42 66.9844C499.908 67.4062 500.152 68.002 500.152 68.7715C500.152 69.1934 500.043 69.623 499.824 70.0605C499.605 70.498 499.23 71.0078 498.699 71.5898L496.76 73.6348H500.428V75ZM504.834 72.0293H501.535V70.6641H504.834V72.0293ZM507.846 69.9844H508.748C509.178 69.9844 509.496 69.877 509.703 69.6621C509.91 69.4473 510.014 69.1621 510.014 68.8066C510.014 68.4629 509.91 68.1953 509.703 68.0039C509.5 67.8125 509.219 67.7168 508.859 67.7168C508.535 67.7168 508.264 67.8066 508.045 67.9863C507.826 68.1621 507.717 68.3926 507.717 68.6777H506.023C506.023 68.2324 506.143 67.834 506.381 67.4824C506.623 67.127 506.959 66.8496 507.389 66.6504C507.822 66.4512 508.299 66.3516 508.818 66.3516C509.721 66.3516 510.428 66.5684 510.939 67.002C511.451 67.4316 511.707 68.0254 511.707 68.7832C511.707 69.1738 511.588 69.5332 511.35 69.8613C511.111 70.1895 510.799 70.4414 510.412 70.6172C510.893 70.7891 511.25 71.0469 511.484 71.3906C511.723 71.7344 511.842 72.1406 511.842 72.6094C511.842 73.3672 511.564 73.9746 511.01 74.4316C510.459 74.8887 509.729 75.1172 508.818 75.1172C507.967 75.1172 507.27 74.8926 506.727 74.4434C506.188 73.9941 505.918 73.4004 505.918 72.6621H507.611C507.611 72.9824 507.73 73.2441 507.969 73.4473C508.211 73.6504 508.508 73.752 508.859 73.752C509.262 73.752 509.576 73.6465 509.803 73.4355C510.033 73.2207 510.148 72.9375 510.148 72.5859C510.148 71.7344 509.68 71.3086 508.742 71.3086H507.846V69.9844ZM515.809 71.7715C515.809 71.1426 515.93 70.582 516.172 70.0898C516.414 69.5977 516.762 69.2168 517.215 68.9473C517.672 68.6777 518.201 68.543 518.803 68.543C519.658 68.543 520.355 68.8047 520.895 69.3281C521.438 69.8516 521.74 70.5625 521.803 71.4609L521.814 71.8945C521.814 72.8672 521.543 73.6484 521 74.2383C520.457 74.8242 519.729 75.1172 518.814 75.1172C517.9 75.1172 517.17 74.8242 516.623 74.2383C516.08 73.6523 515.809 72.8555 515.809 71.8477V71.7715ZM517.502 71.8945C517.502 72.4961 517.615 72.957 517.842 73.2773C518.068 73.5938 518.393 73.752 518.814 73.752C519.225 73.752 519.545 73.5957 519.775 73.2832C520.006 72.9668 520.121 72.4629 520.121 71.7715C520.121 71.1816 520.006 70.7246 519.775 70.4004C519.545 70.0762 519.221 69.9141 518.803 69.9141C518.389 69.9141 518.068 70.0762 517.842 70.4004C517.615 70.7207 517.502 71.2188 517.502 71.8945ZM523.32 75V69.9023H522.377V68.6602H523.32V68.1211C523.32 67.4102 523.523 66.8594 523.93 66.4688C524.34 66.0742 524.912 65.877 525.646 65.877C525.881 65.877 526.168 65.916 526.508 65.9941L526.49 67.3066C526.35 67.2715 526.178 67.2539 525.975 67.2539C525.338 67.2539 525.02 67.5527 525.02 68.1504V68.6602H526.279V69.9023H525.02V75H523.32ZM530.328 70.8047L530.82 66.4688H535.602V67.8809H532.209L531.998 69.7148C532.4 69.5 532.828 69.3926 533.281 69.3926C534.094 69.3926 534.73 69.6445 535.191 70.1484C535.652 70.6523 535.883 71.3574 535.883 72.2637C535.883 72.8145 535.766 73.3086 535.531 73.7461C535.301 74.1797 534.969 74.5176 534.535 74.7598C534.102 74.998 533.59 75.1172 533 75.1172C532.484 75.1172 532.006 75.0137 531.564 74.8066C531.123 74.5957 530.773 74.3008 530.516 73.9219C530.262 73.543 530.127 73.1113 530.111 72.627H531.787C531.822 72.9824 531.945 73.2598 532.156 73.459C532.371 73.6543 532.65 73.752 532.994 73.752C533.377 73.752 533.672 73.6152 533.879 73.3418C534.086 73.0645 534.189 72.6738 534.189 72.1699C534.189 71.6855 534.07 71.3145 533.832 71.0566C533.594 70.7988 533.256 70.6699 532.818 70.6699C532.416 70.6699 532.09 70.7754 531.84 70.9863L531.676 71.1387L530.328 70.8047Z" fill="black"/>
<circle cx="527" cy="352" r="11" fill="#FF4500"/>
<path d="M526.293 357.707C526.683 358.098 527.317 358.098 527.707 357.707L534.071 351.343C534.462 350.953 534.462 350.319 534.071 349.929C533.681 349.538 533.047 349.538 532.657 349.929L527 355.586L521.343 349.929C520.953 349.538 520.319 349.538 519.929 349.929C519.538 350.319 519.538 350.953 519.929 351.343L526.293 357.707ZM526 346L526 357L528 357L528 346L526 346Z" fill="white"/>
<circle cx="787" cy="352" r="11" transform="rotate(-180 787 352)" fill="#FF4500"/>
<path d="M787.707 346.293C787.317 345.902 786.683 345.902 786.293 346.293L779.929 352.657C779.538 353.047 779.538 353.681 779.929 354.071C780.319 354.462 780.953 354.462 781.343 354.071L787 348.414L792.657 354.071C793.047 354.462 793.681 354.462 794.071 354.071C794.462 353.681 794.462 353.047 794.071 352.657L787.707 346.293ZM788 358L788 347L786 347L786 358L788 358Z" fill="white"/>
<line x1="488" y1="201" x2="823" y2="201" stroke="#FF4500" stroke-width="2"/>
</svg>
