<svg width="1319" height="541" viewBox="0 0 1319 541" fill="none" xmlns="http://www.w3.org/2000/svg">
<rect width="1319" height="541" fill="#742052"/>
<path d="M402 333.5L368.25 352.986V314.014L402 333.5Z" fill="url(#paint0_linear)"/>
<path d="M972 333.5L938.25 352.986V314.014L972 333.5Z" fill="url(#paint1_linear)"/>
<path d="M885.234 141.875L894 166.625L902.719 141.875H911.953V176H904.898V166.672L905.602 150.57L896.391 176H891.562L882.375 150.594L883.078 166.672V176H876.047V141.875H885.234ZM946.125 159.711C946.125 163.07 945.531 166.016 944.344 168.547C943.156 171.078 941.453 173.031 939.234 174.406C937.031 175.781 934.5 176.469 931.641 176.469C928.812 176.469 926.289 175.789 924.07 174.43C921.852 173.07 920.133 171.133 918.914 168.617C917.695 166.086 917.078 163.18 917.062 159.898V158.211C917.062 154.852 917.664 151.898 918.867 149.352C920.086 146.789 921.797 144.828 924 143.469C926.219 142.094 928.75 141.406 931.594 141.406C934.438 141.406 936.961 142.094 939.164 143.469C941.383 144.828 943.094 146.789 944.297 149.352C945.516 151.898 946.125 154.844 946.125 158.188V159.711ZM939 158.164C939 154.586 938.359 151.867 937.078 150.008C935.797 148.148 933.969 147.219 931.594 147.219C929.234 147.219 927.414 148.141 926.133 149.984C924.852 151.812 924.203 154.5 924.188 158.047V159.711C924.188 163.195 924.828 165.898 926.109 167.82C927.391 169.742 929.234 170.703 931.641 170.703C934 170.703 935.812 169.781 937.078 167.938C938.344 166.078 938.984 163.375 939 159.828V158.164ZM951.234 176V141.875H961.734C964.734 141.875 967.414 142.555 969.773 143.914C972.148 145.258 974 147.18 975.328 149.68C976.656 152.164 977.32 154.992 977.32 158.164V159.734C977.32 162.906 976.664 165.727 975.352 168.195C974.055 170.664 972.219 172.578 969.844 173.938C967.469 175.297 964.789 175.984 961.805 176H951.234ZM958.266 147.57V170.352H961.664C964.414 170.352 966.516 169.453 967.969 167.656C969.422 165.859 970.164 163.289 970.195 159.945V158.141C970.195 154.672 969.477 152.047 968.039 150.266C966.602 148.469 964.5 147.57 961.734 147.57H958.266ZM1000.15 167.047C1000.15 165.719 999.68 164.703 998.742 164C997.805 163.281 996.117 162.531 993.68 161.75C991.242 160.953 989.312 160.172 987.891 159.406C984.016 157.312 982.078 154.492 982.078 150.945C982.078 149.102 982.594 147.461 983.625 146.023C984.672 144.57 986.164 143.438 988.102 142.625C990.055 141.812 992.242 141.406 994.664 141.406C997.102 141.406 999.273 141.852 1001.18 142.742C1003.09 143.617 1004.56 144.859 1005.61 146.469C1006.67 148.078 1007.2 149.906 1007.2 151.953H1000.17C1000.17 150.391 999.68 149.18 998.695 148.32C997.711 147.445 996.328 147.008 994.547 147.008C992.828 147.008 991.492 147.375 990.539 148.109C989.586 148.828 989.109 149.781 989.109 150.969C989.109 152.078 989.664 153.008 990.773 153.758C991.898 154.508 993.547 155.211 995.719 155.867C999.719 157.07 1002.63 158.562 1004.46 160.344C1006.29 162.125 1007.2 164.344 1007.2 167C1007.2 169.953 1006.09 172.273 1003.85 173.961C1001.62 175.633 998.609 176.469 994.828 176.469C992.203 176.469 989.812 175.992 987.656 175.039C985.5 174.07 983.852 172.75 982.711 171.078C981.586 169.406 981.023 167.469 981.023 165.266H988.078C988.078 169.031 990.328 170.914 994.828 170.914C996.5 170.914 997.805 170.578 998.742 169.906C999.68 169.219 1000.15 168.266 1000.15 167.047Z" fill="#FFD300"/>
<path d="M885.234 141.875L886.177 141.541L885.941 140.875H885.234V141.875ZM894 166.625L893.057 166.959L894.003 169.628L894.943 166.957L894 166.625ZM902.719 141.875V140.875H902.011L901.776 141.543L902.719 141.875ZM911.953 141.875H912.953V140.875H911.953V141.875ZM911.953 176V177H912.953V176H911.953ZM904.898 176H903.898V177H904.898V176ZM904.898 166.672L903.899 166.628L903.898 166.65V166.672H904.898ZM905.602 150.57L906.601 150.614L904.661 150.23L905.602 150.57ZM896.391 176V177H897.092L897.331 176.341L896.391 176ZM891.562 176L890.622 176.34L890.861 177H891.562V176ZM882.375 150.594L883.315 150.254L881.376 150.637L882.375 150.594ZM883.078 166.672H884.078V166.65L884.077 166.628L883.078 166.672ZM883.078 176V177H884.078V176H883.078ZM876.047 176H875.047V177H876.047V176ZM876.047 141.875V140.875H875.047V141.875H876.047ZM884.292 142.209L893.057 166.959L894.943 166.291L886.177 141.541L884.292 142.209ZM894.943 166.957L903.662 142.207L901.776 141.543L893.057 166.293L894.943 166.957ZM902.719 142.875H911.953V140.875H902.719V142.875ZM910.953 141.875V176H912.953V141.875H910.953ZM911.953 175H904.898V177H911.953V175ZM905.898 176V166.672H903.898V176H905.898ZM905.897 166.715L906.601 150.614L904.603 150.527L903.899 166.628L905.897 166.715ZM904.661 150.23L895.45 175.659L897.331 176.341L906.542 150.911L904.661 150.23ZM896.391 175H891.562V177H896.391V175ZM892.503 175.66L883.315 150.254L881.435 150.934L890.622 176.34L892.503 175.66ZM881.376 150.637L882.079 166.716L884.077 166.628L883.374 150.55L881.376 150.637ZM882.078 166.672V176H884.078V166.672H882.078ZM883.078 175H876.047V177H883.078V175ZM877.047 176V141.875H875.047V176H877.047ZM876.047 142.875H885.234V140.875H876.047V142.875ZM939.234 174.406L938.708 173.556L938.705 173.558L939.234 174.406ZM918.914 168.617L918.013 169.051L918.014 169.053L918.914 168.617ZM917.062 159.898H916.062L916.063 159.903L917.062 159.898ZM918.867 149.352L917.964 148.922L917.963 148.924L918.867 149.352ZM924 143.469L924.525 144.32L924.527 144.319L924 143.469ZM939.164 143.469L938.635 144.317L938.642 144.321L939.164 143.469ZM944.297 149.352L943.392 149.777L943.395 149.783L944.297 149.352ZM926.133 149.984L926.952 150.558L926.954 150.555L926.133 149.984ZM924.188 158.047L923.188 158.042V158.047H924.188ZM937.078 167.938L937.903 168.503L937.905 168.5L937.078 167.938ZM939 159.828L940 159.833V159.828H939ZM945.125 159.711C945.125 162.953 944.552 165.748 943.438 168.122L945.249 168.972C946.51 166.283 947.125 163.188 947.125 159.711H945.125ZM943.438 168.122C942.327 170.491 940.75 172.291 938.708 173.556L939.761 175.256C942.156 173.772 943.985 171.665 945.249 168.972L943.438 168.122ZM938.705 173.558C936.676 174.824 934.332 175.469 931.641 175.469V177.469C934.668 177.469 937.386 176.739 939.764 175.255L938.705 173.558ZM931.641 175.469C928.98 175.469 926.641 174.832 924.593 173.577L923.548 175.282C925.937 176.746 928.645 177.469 931.641 177.469V175.469ZM924.593 173.577C922.549 172.325 920.956 170.538 919.814 168.181L918.014 169.053C919.31 171.728 921.154 173.816 923.548 175.282L924.593 173.577ZM919.815 168.183C918.671 165.807 918.078 163.051 918.062 159.894L916.063 159.903C916.079 163.308 916.72 166.365 918.013 169.051L919.815 168.183ZM918.062 159.898V158.211H916.062V159.898H918.062ZM918.062 158.211C918.062 154.971 918.642 152.169 919.771 149.779L917.963 148.924C916.686 151.628 916.062 154.732 916.062 158.211H918.062ZM919.77 149.781C920.915 147.375 922.502 145.568 924.525 144.32L923.475 142.618C921.092 144.088 919.257 146.203 917.964 148.922L919.77 149.781ZM924.527 144.319C926.573 143.051 928.919 142.406 931.594 142.406V140.406C928.581 140.406 925.864 141.137 923.473 142.619L924.527 144.319ZM931.594 142.406C934.269 142.406 936.605 143.051 938.635 144.317L939.694 142.62C937.317 141.137 934.606 140.406 931.594 140.406V142.406ZM938.642 144.321C940.679 145.57 942.264 147.375 943.392 149.777L945.202 148.927C943.924 146.203 942.087 144.087 939.686 142.616L938.642 144.321ZM943.395 149.783C944.538 152.173 945.125 154.966 945.125 158.188H947.125C947.125 154.722 946.493 151.624 945.199 148.92L943.395 149.783ZM945.125 158.188V159.711H947.125V158.188H945.125ZM940 158.164C940 154.492 939.347 151.538 937.902 149.44L936.255 150.575C937.372 152.196 938 154.679 938 158.164H940ZM937.902 149.44C936.422 147.294 934.277 146.219 931.594 146.219V148.219C933.66 148.219 935.171 149.003 936.255 150.575L937.902 149.44ZM931.594 146.219C928.927 146.219 926.791 147.285 925.312 149.414L926.954 150.555C928.037 148.996 929.542 148.219 931.594 148.219V146.219ZM925.314 149.41C923.865 151.478 923.204 154.402 923.188 158.042L925.187 158.051C925.203 154.598 925.838 152.147 926.952 150.558L925.314 149.41ZM923.188 158.047V159.711H925.188V158.047H923.188ZM923.188 159.711C923.188 163.299 923.844 166.225 925.277 168.375L926.941 167.266C925.812 165.572 925.188 163.092 925.188 159.711H923.188ZM925.277 168.375C926.753 170.589 928.917 171.703 931.641 171.703V169.703C929.552 169.703 928.028 168.896 926.941 167.266L925.277 168.375ZM931.641 171.703C934.308 171.703 936.439 170.636 937.903 168.503L936.254 167.372C935.186 168.926 933.692 169.703 931.641 169.703V171.703ZM937.905 168.5C939.33 166.406 939.984 163.473 940 159.833L938 159.824C937.985 163.277 937.357 165.75 936.251 167.375L937.905 168.5ZM940 159.828V158.164H938V159.828H940ZM951.234 176H950.234V177H951.234V176ZM951.234 141.875V140.875H950.234V141.875H951.234ZM969.773 143.914L969.274 144.781L969.281 144.784L969.773 143.914ZM975.328 149.68L974.445 150.149L974.446 150.151L975.328 149.68ZM975.352 168.195L974.469 167.726L974.466 167.73L975.352 168.195ZM961.805 176V177L961.81 177L961.805 176ZM958.266 147.57V146.57H957.266V147.57H958.266ZM958.266 170.352H957.266V171.352H958.266V170.352ZM970.195 159.945L971.195 159.955V159.945H970.195ZM968.039 150.266L967.258 150.89L967.261 150.894L968.039 150.266ZM952.234 176V141.875H950.234V176H952.234ZM951.234 142.875H961.734V140.875H951.234V142.875ZM961.734 142.875C964.577 142.875 967.082 143.517 969.274 144.781L970.273 143.048C967.746 141.592 964.891 140.875 961.734 140.875V142.875ZM969.281 144.784C971.484 146.031 973.203 147.81 974.445 150.149L976.211 149.211C974.797 146.549 972.813 144.485 970.266 143.044L969.281 144.784ZM974.446 150.151C975.687 152.473 976.32 155.136 976.32 158.164H978.32C978.32 154.849 977.625 151.855 976.21 149.208L974.446 150.151ZM976.32 158.164V159.734H978.32V158.164H976.32ZM976.32 159.734C976.32 162.765 975.694 165.42 974.469 167.726L976.235 168.665C977.634 166.033 978.32 163.048 978.32 159.734H976.32ZM974.466 167.73C973.256 170.034 971.553 171.807 969.347 173.07L970.341 174.805C972.884 173.35 974.853 171.294 976.237 168.66L974.466 167.73ZM969.347 173.07C967.135 174.336 964.627 174.985 961.799 175L961.81 177C964.951 176.984 967.802 176.258 970.341 174.805L969.347 173.07ZM961.805 175H951.234V177H961.805V175ZM957.266 147.57V170.352H959.266V147.57H957.266ZM958.266 171.352H961.664V169.352H958.266V171.352ZM961.664 171.352C964.652 171.352 967.067 170.362 968.746 168.285L967.191 167.027C965.965 168.544 964.176 169.352 961.664 169.352V171.352ZM968.746 168.285C970.393 166.249 971.163 163.426 971.195 159.955L969.195 159.936C969.165 163.152 968.451 165.469 967.191 167.027L968.746 168.285ZM971.195 159.945V158.141H969.195V159.945H971.195ZM971.195 158.141C971.195 154.556 970.456 151.668 968.817 149.638L967.261 150.894C968.497 152.426 969.195 154.788 969.195 158.141H971.195ZM968.82 149.641C967.154 147.558 964.736 146.57 961.734 146.57V148.57C964.264 148.57 966.049 149.379 967.258 150.89L968.82 149.641ZM961.734 146.57H958.266V148.57H961.734V146.57ZM998.742 164L998.134 164.794L998.142 164.8L998.742 164ZM993.68 161.75L993.369 162.701L993.374 162.702L993.68 161.75ZM987.891 159.406L987.415 160.286L987.417 160.287L987.891 159.406ZM983.625 146.023L982.814 145.439L982.812 145.441L983.625 146.023ZM988.102 142.625L987.717 141.702L987.715 141.703L988.102 142.625ZM1001.18 142.742L1000.76 143.648L1000.76 143.651L1001.18 142.742ZM1005.61 146.469L1004.77 147.014L1004.77 147.02L1005.61 146.469ZM1007.2 151.953V152.953H1008.2V151.953H1007.2ZM1000.17 151.953H999.172V152.953H1000.17V151.953ZM998.695 148.32L998.031 149.068L998.038 149.074L998.695 148.32ZM990.539 148.109L991.141 148.908L991.149 148.902L990.539 148.109ZM990.773 153.758L990.213 154.586L990.219 154.59L990.773 153.758ZM995.719 155.867L995.43 156.824L995.431 156.825L995.719 155.867ZM1003.85 173.961L1004.45 174.762L1004.45 174.759L1003.85 173.961ZM987.656 175.039L987.246 175.951L987.252 175.954L987.656 175.039ZM982.711 171.078L981.881 171.636L981.885 171.642L982.711 171.078ZM981.023 165.266V164.266H980.023V165.266H981.023ZM988.078 165.266H989.078V164.266H988.078V165.266ZM998.742 169.906L999.325 170.719L999.334 170.713L998.742 169.906ZM1001.15 167.047C1001.15 165.452 1000.57 164.119 999.342 163.2L998.142 164.8C998.792 165.287 999.148 165.985 999.148 167.047H1001.15ZM999.351 163.206C998.266 162.375 996.434 161.583 993.985 160.798L993.374 162.702C995.8 163.48 997.343 164.188 998.134 164.794L999.351 163.206ZM993.99 160.8C991.581 160.012 989.713 159.252 988.365 158.526L987.417 160.287C988.912 161.092 990.904 161.895 993.369 162.7L993.99 160.8ZM988.366 158.526C984.722 156.557 983.078 154.031 983.078 150.945H981.078C981.078 154.954 983.309 158.068 987.415 160.286L988.366 158.526ZM983.078 150.945C983.078 149.301 983.534 147.866 984.438 146.606L982.812 145.441C981.654 147.055 981.078 148.902 981.078 150.945H983.078ZM984.436 146.608C985.358 145.329 986.691 144.301 988.488 143.547L987.715 141.703C985.637 142.574 983.986 143.812 982.814 145.439L984.436 146.608ZM988.486 143.548C990.301 142.793 992.355 142.406 994.664 142.406V140.406C992.129 140.406 989.809 140.832 987.717 141.702L988.486 143.548ZM994.664 142.406C996.978 142.406 999.002 142.829 1000.76 143.648L1001.6 141.836C999.545 140.875 997.225 140.406 994.664 140.406V142.406ZM1000.76 143.651C1002.51 144.455 1003.84 145.578 1004.77 147.014L1006.45 145.923C1005.29 144.141 1003.66 142.78 1001.6 141.833L1000.76 143.651ZM1004.77 147.02C1005.72 148.455 1006.2 150.09 1006.2 151.953H1008.2C1008.2 149.723 1007.62 147.701 1006.44 145.918L1004.77 147.02ZM1007.2 150.953H1000.17V152.953H1007.2V150.953ZM1001.17 151.953C1001.17 150.164 1000.6 148.654 999.353 147.567L998.038 149.074C998.762 149.706 999.172 150.617 999.172 151.953H1001.17ZM999.36 147.573C998.136 146.485 996.486 146.008 994.547 146.008V148.008C996.17 148.008 997.286 148.405 998.031 149.068L999.36 147.573ZM994.547 146.008C992.699 146.008 991.118 146.401 989.929 147.317L991.149 148.902C991.867 148.349 992.957 148.008 994.547 148.008V146.008ZM989.937 147.311C988.735 148.217 988.109 149.465 988.109 150.969H990.109C990.109 150.097 990.437 149.439 991.141 148.908L989.937 147.311ZM988.109 150.969C988.109 152.482 988.894 153.694 990.213 154.586L991.334 152.929C990.434 152.321 990.109 151.674 990.109 150.969H988.109ZM990.219 154.59C991.462 155.419 993.218 156.156 995.43 156.824L996.008 154.91C993.876 154.266 992.335 153.597 991.328 152.926L990.219 154.59ZM995.431 156.825C999.364 158.008 1002.1 159.441 1003.76 161.06L1005.16 159.628C1003.16 157.684 1000.07 156.133 996.007 154.91L995.431 156.825ZM1003.76 161.06C1005.39 162.645 1006.2 164.601 1006.2 167H1008.2C1008.2 164.086 1007.19 161.605 1005.16 159.628L1003.76 161.06ZM1006.2 167C1006.2 169.66 1005.22 171.676 1003.25 173.163L1004.45 174.759C1006.95 172.871 1008.2 170.247 1008.2 167H1006.2ZM1003.25 173.16C1001.24 174.664 998.469 175.469 994.828 175.469V177.469C998.75 177.469 1001.99 176.602 1004.45 174.762L1003.25 173.16ZM994.828 175.469C992.326 175.469 990.076 175.015 988.061 174.124L987.252 175.954C989.549 176.969 992.08 177.469 994.828 177.469V175.469ZM988.066 174.127C986.049 173.221 984.557 172.01 983.537 170.515L981.885 171.642C983.146 173.49 984.951 174.92 987.246 175.951L988.066 174.127ZM983.541 170.52C982.537 169.028 982.023 167.289 982.023 165.266H980.023C980.023 167.648 980.635 169.784 981.881 171.636L983.541 170.52ZM981.023 166.266H988.078V164.266H981.023V166.266ZM987.078 165.266C987.078 167.354 987.711 169.086 989.124 170.269C990.503 171.423 992.463 171.914 994.828 171.914V169.914C992.693 169.914 991.278 169.464 990.407 168.735C989.571 168.035 989.078 166.943 989.078 165.266H987.078ZM994.828 171.914C996.619 171.914 998.156 171.556 999.325 170.719L998.16 169.093C997.453 169.6 996.381 169.914 994.828 169.914V171.914ZM999.334 170.713C1000.54 169.826 1001.15 168.566 1001.15 167.047H999.148C999.148 167.965 998.817 168.611 998.151 169.1L999.334 170.713Z" fill="#FD0000"/>
<path d="M281.734 151.57H271.281V180H264.25V151.57H253.938V145.875H281.734V151.57ZM313.539 180H306.508V165.375H292.797V180H285.766V145.875H292.797V159.703H306.508V145.875H313.539V180ZM327.18 180H320.148V145.875H327.18V180ZM361.469 180H354.438L340.75 157.547V180H333.719V145.875H340.75L354.461 168.375V145.875H361.469V180ZM378.297 166.312L374.641 170.25V180H367.609V145.875H374.641V161.344L377.734 157.102L386.43 145.875H395.078L382.961 161.039L395.43 180H387.062L378.297 166.312ZM405.555 180H398.523V145.875H405.555V180ZM439.844 180H432.812L419.125 157.547V180H412.094V145.875H419.125L432.836 168.375V145.875H439.844V180ZM472.984 175.688C471.719 177.203 469.93 178.383 467.617 179.227C465.305 180.055 462.742 180.469 459.93 180.469C456.977 180.469 454.383 179.828 452.148 178.547C449.93 177.25 448.211 175.375 446.992 172.922C445.789 170.469 445.172 167.586 445.141 164.273V161.953C445.141 158.547 445.711 155.602 446.852 153.117C448.008 150.617 449.664 148.711 451.82 147.398C453.992 146.07 456.531 145.406 459.438 145.406C463.484 145.406 466.648 146.375 468.93 148.312C471.211 150.234 472.562 153.039 472.984 156.727H466.141C465.828 154.773 465.133 153.344 464.055 152.438C462.992 151.531 461.523 151.078 459.648 151.078C457.258 151.078 455.438 151.977 454.188 153.773C452.938 155.57 452.305 158.242 452.289 161.789V163.969C452.289 167.547 452.969 170.25 454.328 172.078C455.688 173.906 457.68 174.82 460.305 174.82C462.945 174.82 464.828 174.258 465.953 173.133V167.25H459.555V162.07H472.984V175.688Z" fill="#0A84A5"/>
<path d="M281.734 151.57V152.57H282.734V151.57H281.734ZM271.281 151.57V150.57H270.281V151.57H271.281ZM271.281 180V181H272.281V180H271.281ZM264.25 180H263.25V181H264.25V180ZM264.25 151.57H265.25V150.57H264.25V151.57ZM253.938 151.57H252.938V152.57H253.938V151.57ZM253.938 145.875V144.875H252.938V145.875H253.938ZM281.734 145.875H282.734V144.875H281.734V145.875ZM281.734 150.57H271.281V152.57H281.734V150.57ZM270.281 151.57V180H272.281V151.57H270.281ZM271.281 179H264.25V181H271.281V179ZM265.25 180V151.57H263.25V180H265.25ZM264.25 150.57H253.938V152.57H264.25V150.57ZM254.938 151.57V145.875H252.938V151.57H254.938ZM253.938 146.875H281.734V144.875H253.938V146.875ZM280.734 145.875V151.57H282.734V145.875H280.734ZM313.539 180V181H314.539V180H313.539ZM306.508 180H305.508V181H306.508V180ZM306.508 165.375H307.508V164.375H306.508V165.375ZM292.797 165.375V164.375H291.797V165.375H292.797ZM292.797 180V181H293.797V180H292.797ZM285.766 180H284.766V181H285.766V180ZM285.766 145.875V144.875H284.766V145.875H285.766ZM292.797 145.875H293.797V144.875H292.797V145.875ZM292.797 159.703H291.797V160.703H292.797V159.703ZM306.508 159.703V160.703H307.508V159.703H306.508ZM306.508 145.875V144.875H305.508V145.875H306.508ZM313.539 145.875H314.539V144.875H313.539V145.875ZM313.539 179H306.508V181H313.539V179ZM307.508 180V165.375H305.508V180H307.508ZM306.508 164.375H292.797V166.375H306.508V164.375ZM291.797 165.375V180H293.797V165.375H291.797ZM292.797 179H285.766V181H292.797V179ZM286.766 180V145.875H284.766V180H286.766ZM285.766 146.875H292.797V144.875H285.766V146.875ZM291.797 145.875V159.703H293.797V145.875H291.797ZM292.797 160.703H306.508V158.703H292.797V160.703ZM307.508 159.703V145.875H305.508V159.703H307.508ZM306.508 146.875H313.539V144.875H306.508V146.875ZM312.539 145.875V180H314.539V145.875H312.539ZM327.18 180V181H328.18V180H327.18ZM320.148 180H319.148V181H320.148V180ZM320.148 145.875V144.875H319.148V145.875H320.148ZM327.18 145.875H328.18V144.875H327.18V145.875ZM327.18 179H320.148V181H327.18V179ZM321.148 180V145.875H319.148V180H321.148ZM320.148 146.875H327.18V144.875H320.148V146.875ZM326.18 145.875V180H328.18V145.875H326.18ZM361.469 180V181H362.469V180H361.469ZM354.438 180L353.584 180.521L353.876 181H354.438V180ZM340.75 157.547L341.604 157.026L339.75 153.985V157.547H340.75ZM340.75 180V181H341.75V180H340.75ZM333.719 180H332.719V181H333.719V180ZM333.719 145.875V144.875H332.719V145.875H333.719ZM340.75 145.875L341.604 145.355L341.312 144.875H340.75V145.875ZM354.461 168.375L353.607 168.895L355.461 171.938V168.375H354.461ZM354.461 145.875V144.875H353.461V145.875H354.461ZM361.469 145.875H362.469V144.875H361.469V145.875ZM361.469 179H354.438V181H361.469V179ZM355.291 179.479L341.604 157.026L339.896 158.067L353.584 180.521L355.291 179.479ZM339.75 157.547V180H341.75V157.547H339.75ZM340.75 179H333.719V181H340.75V179ZM334.719 180V145.875H332.719V180H334.719ZM333.719 146.875H340.75V144.875H333.719V146.875ZM339.896 146.395L353.607 168.895L355.315 167.855L341.604 145.355L339.896 146.395ZM355.461 168.375V145.875H353.461V168.375H355.461ZM354.461 146.875H361.469V144.875H354.461V146.875ZM360.469 145.875V180H362.469V145.875H360.469ZM378.297 166.312L379.139 165.773L378.443 164.686L377.564 165.632L378.297 166.312ZM374.641 170.25L373.908 169.57L373.641 169.857V170.25H374.641ZM374.641 180V181H375.641V180H374.641ZM367.609 180H366.609V181H367.609V180ZM367.609 145.875V144.875H366.609V145.875H367.609ZM374.641 145.875H375.641V144.875H374.641V145.875ZM374.641 161.344H373.641V164.412L375.449 161.933L374.641 161.344ZM377.734 157.102L376.944 156.489L376.935 156.501L376.926 156.512L377.734 157.102ZM386.43 145.875V144.875H385.939L385.639 145.263L386.43 145.875ZM395.078 145.875L395.859 146.499L397.157 144.875H395.078V145.875ZM382.961 161.039L382.18 160.415L381.727 160.982L382.125 161.589L382.961 161.039ZM395.43 180V181H397.284L396.265 179.451L395.43 180ZM387.062 180L386.22 180.539L386.515 181H387.062V180ZM377.564 165.632L373.908 169.57L375.373 170.93L379.03 166.993L377.564 165.632ZM373.641 170.25V180H375.641V170.25H373.641ZM374.641 179H367.609V181H374.641V179ZM368.609 180V145.875H366.609V180H368.609ZM367.609 146.875H374.641V144.875H367.609V146.875ZM373.641 145.875V161.344H375.641V145.875H373.641ZM375.449 161.933L378.542 157.691L376.926 156.512L373.833 160.755L375.449 161.933ZM378.525 157.714L387.22 146.487L385.639 145.263L376.944 156.489L378.525 157.714ZM386.43 146.875H395.078V144.875H386.43V146.875ZM394.297 145.251L382.18 160.415L383.742 161.663L395.859 146.499L394.297 145.251ZM382.125 161.589L394.594 180.549L396.265 179.451L383.796 160.49L382.125 161.589ZM395.43 179H387.062V181H395.43V179ZM387.905 179.461L379.139 165.773L377.455 166.852L386.22 180.539L387.905 179.461ZM405.555 180V181H406.555V180H405.555ZM398.523 180H397.523V181H398.523V180ZM398.523 145.875V144.875H397.523V145.875H398.523ZM405.555 145.875H406.555V144.875H405.555V145.875ZM405.555 179H398.523V181H405.555V179ZM399.523 180V145.875H397.523V180H399.523ZM398.523 146.875H405.555V144.875H398.523V146.875ZM404.555 145.875V180H406.555V145.875H404.555ZM439.844 180V181H440.844V180H439.844ZM432.812 180L431.959 180.521L432.251 181H432.812V180ZM419.125 157.547L419.979 157.026L418.125 153.985V157.547H419.125ZM419.125 180V181H420.125V180H419.125ZM412.094 180H411.094V181H412.094V180ZM412.094 145.875V144.875H411.094V145.875H412.094ZM419.125 145.875L419.979 145.355L419.687 144.875H419.125V145.875ZM432.836 168.375L431.982 168.895L433.836 171.938V168.375H432.836ZM432.836 145.875V144.875H431.836V145.875H432.836ZM439.844 145.875H440.844V144.875H439.844V145.875ZM439.844 179H432.812V181H439.844V179ZM433.666 179.479L419.979 157.026L418.271 158.067L431.959 180.521L433.666 179.479ZM418.125 157.547V180H420.125V157.547H418.125ZM419.125 179H412.094V181H419.125V179ZM413.094 180V145.875H411.094V180H413.094ZM412.094 146.875H419.125V144.875H412.094V146.875ZM418.271 146.395L431.982 168.895L433.69 167.855L419.979 145.355L418.271 146.395ZM433.836 168.375V145.875H431.836V168.375H433.836ZM432.836 146.875H439.844V144.875H432.836V146.875ZM438.844 145.875V180H440.844V145.875H438.844ZM472.984 175.688L473.752 176.328L473.984 176.05V175.688H472.984ZM467.617 179.227L467.954 180.168L467.96 180.166L467.617 179.227ZM452.148 178.547L451.644 179.41L451.651 179.414L452.148 178.547ZM446.992 172.922L446.094 173.362L446.097 173.367L446.992 172.922ZM445.141 164.273H444.141L444.141 164.283L445.141 164.273ZM446.852 153.117L445.944 152.697L445.943 152.7L446.852 153.117ZM451.82 147.398L452.34 148.253L452.342 148.252L451.82 147.398ZM468.93 148.312L468.282 149.075L468.285 149.077L468.93 148.312ZM472.984 156.727V157.727H474.105L473.978 156.613L472.984 156.727ZM466.141 156.727L465.153 156.885L465.288 157.727H466.141V156.727ZM464.055 152.438L463.406 153.198L463.411 153.203L464.055 152.438ZM452.289 161.789L451.289 161.785V161.789H452.289ZM465.953 173.133L466.66 173.84L466.953 173.547V173.133H465.953ZM465.953 167.25H466.953V166.25H465.953V167.25ZM459.555 167.25H458.555V168.25H459.555V167.25ZM459.555 162.07V161.07H458.555V162.07H459.555ZM472.984 162.07H473.984V161.07H472.984V162.07ZM472.217 175.047C471.089 176.397 469.462 177.489 467.274 178.287L467.96 180.166C470.397 179.277 472.349 178.009 473.752 176.328L472.217 175.047ZM467.28 178.285C465.09 179.069 462.644 179.469 459.93 179.469V181.469C462.841 181.469 465.519 181.04 467.954 180.168L467.28 178.285ZM459.93 179.469C457.125 179.469 454.708 178.862 452.646 177.679L451.651 179.414C454.058 180.794 456.828 181.469 459.93 181.469V179.469ZM452.653 177.684C450.614 176.492 449.026 174.768 447.888 172.477L446.097 173.367C447.396 175.982 449.245 178.008 451.644 179.41L452.653 177.684ZM447.89 172.482C446.765 170.188 446.171 167.458 446.141 164.264L444.141 164.283C444.173 167.714 444.813 170.749 446.094 173.362L447.89 172.482ZM446.141 164.273V161.953H444.141V164.273H446.141ZM446.141 161.953C446.141 158.656 446.693 155.86 447.76 153.534L445.943 152.7C444.729 155.343 444.141 158.437 444.141 161.953H446.141ZM447.759 153.537C448.84 151.2 450.369 149.453 452.34 148.253L451.3 146.544C448.959 147.969 447.176 150.035 445.944 152.697L447.759 153.537ZM452.342 148.252C454.336 147.032 456.689 146.406 459.438 146.406V144.406C456.374 144.406 453.649 145.108 451.299 146.545L452.342 148.252ZM459.438 146.406C463.331 146.406 466.237 147.337 468.282 149.075L469.577 147.55C467.06 145.413 463.638 144.406 459.438 144.406V146.406ZM468.285 149.077C470.327 150.797 471.591 153.341 471.991 156.84L473.978 156.613C473.534 152.737 472.095 149.672 469.574 147.548L468.285 149.077ZM472.984 155.727H466.141V157.727H472.984V155.727ZM467.128 156.569C466.793 154.473 466.023 152.785 464.698 151.672L463.411 153.203C464.243 153.902 464.863 155.073 465.153 156.885L467.128 156.569ZM464.704 151.677C463.406 150.57 461.679 150.078 459.648 150.078V152.078C461.368 152.078 462.578 152.492 463.406 153.198L464.704 151.677ZM459.648 150.078C456.966 150.078 454.823 151.109 453.367 153.202L455.008 154.345C456.052 152.844 457.55 152.078 459.648 152.078V150.078ZM453.367 153.202C451.949 155.24 451.305 158.15 451.289 161.785L453.289 161.793C453.304 158.335 453.926 155.901 455.008 154.345L453.367 153.202ZM451.289 161.789V163.969H453.289V161.789H451.289ZM451.289 163.969C451.289 167.647 451.983 170.601 453.526 172.675L455.131 171.481C453.954 169.899 453.289 167.446 453.289 163.969H451.289ZM453.526 172.675C455.104 174.798 457.418 175.82 460.305 175.82V173.82C457.941 173.82 456.271 173.015 455.131 171.481L453.526 172.675ZM460.305 175.82C463.045 175.82 465.256 175.244 466.66 173.84L465.246 172.426C464.4 173.272 462.846 173.82 460.305 173.82V175.82ZM466.953 173.133V167.25H464.953V173.133H466.953ZM465.953 166.25H459.555V168.25H465.953V166.25ZM460.555 167.25V162.07H458.555V167.25H460.555ZM459.555 163.07H472.984V161.07H459.555V163.07ZM471.984 162.07V175.688H473.984V162.07H471.984Z" fill="#0029FF"/>
<path d="M507.078 73.7109C507.078 77.0703 506.484 80.0156 505.297 82.5469C504.109 85.0781 502.406 87.0312 500.188 88.4062C497.984 89.7812 495.453 90.4688 492.594 90.4688C489.766 90.4688 487.242 89.7891 485.023 88.4297C482.805 87.0703 481.086 85.1328 479.867 82.6172C478.648 80.0859 478.031 77.1797 478.016 73.8984V72.2109C478.016 68.8516 478.617 65.8984 479.82 63.3516C481.039 60.7891 482.75 58.8281 484.953 57.4688C487.172 56.0938 489.703 55.4062 492.547 55.4062C495.391 55.4062 497.914 56.0938 500.117 57.4688C502.336 58.8281 504.047 60.7891 505.25 63.3516C506.469 65.8984 507.078 68.8438 507.078 72.1875V73.7109ZM499.953 72.1641C499.953 68.5859 499.312 65.8672 498.031 64.0078C496.75 62.1484 494.922 61.2188 492.547 61.2188C490.188 61.2188 488.367 62.1406 487.086 63.9844C485.805 65.8125 485.156 68.5 485.141 72.0469V73.7109C485.141 77.1953 485.781 79.8984 487.062 81.8203C488.344 83.7422 490.188 84.7031 492.594 84.7031C494.953 84.7031 496.766 83.7812 498.031 81.9375C499.297 80.0781 499.938 77.375 499.953 73.8281V72.1641ZM519.219 77.9766V90H512.188V55.875H525.5C528.062 55.875 530.312 56.3438 532.25 57.2812C534.203 58.2188 535.703 59.5547 536.75 61.2891C537.797 63.0078 538.32 64.9688 538.32 67.1719C538.32 70.5156 537.172 73.1562 534.875 75.0938C532.594 77.0156 529.43 77.9766 525.383 77.9766H519.219ZM519.219 72.2812H525.5C527.359 72.2812 528.773 71.8438 529.742 70.9688C530.727 70.0938 531.219 68.8438 531.219 67.2188C531.219 65.5469 530.727 64.1953 529.742 63.1641C528.758 62.1328 527.398 61.6016 525.664 61.5703H519.219V72.2812ZM563.703 75.2109H550.203V84.3516H566.047V90H543.172V55.875H566V61.5703H550.203V69.7031H563.703V75.2109ZM597.922 90H590.891L577.203 67.5469V90H570.172V55.875H577.203L590.914 78.375V55.875H597.922V90ZM621.758 81.0469C621.758 79.7188 621.289 78.7031 620.352 78C619.414 77.2812 617.727 76.5312 615.289 75.75C612.852 74.9531 610.922 74.1719 609.5 73.4062C605.625 71.3125 603.688 68.4922 603.688 64.9453C603.688 63.1016 604.203 61.4609 605.234 60.0234C606.281 58.5703 607.773 57.4375 609.711 56.625C611.664 55.8125 613.852 55.4062 616.273 55.4062C618.711 55.4062 620.883 55.8516 622.789 56.7422C624.695 57.6172 626.172 58.8594 627.219 60.4688C628.281 62.0781 628.812 63.9062 628.812 65.9531H621.781C621.781 64.3906 621.289 63.1797 620.305 62.3203C619.32 61.4453 617.938 61.0078 616.156 61.0078C614.438 61.0078 613.102 61.375 612.148 62.1094C611.195 62.8281 610.719 63.7812 610.719 64.9688C610.719 66.0781 611.273 67.0078 612.383 67.7578C613.508 68.5078 615.156 69.2109 617.328 69.8672C621.328 71.0703 624.242 72.5625 626.07 74.3438C627.898 76.125 628.812 78.3438 628.812 81C628.812 83.9531 627.695 86.2734 625.461 87.9609C623.227 89.6328 620.219 90.4688 616.438 90.4688C613.812 90.4688 611.422 89.9922 609.266 89.0391C607.109 88.0703 605.461 86.75 604.32 85.0781C603.195 83.4062 602.633 81.4688 602.633 79.2656H609.688C609.688 83.0312 611.938 84.9141 616.438 84.9141C618.109 84.9141 619.414 84.5781 620.352 83.9062C621.289 83.2188 621.758 82.2656 621.758 81.0469ZM661.625 73.7109C661.625 77.0703 661.031 80.0156 659.844 82.5469C658.656 85.0781 656.953 87.0312 654.734 88.4062C652.531 89.7812 650 90.4688 647.141 90.4688C644.312 90.4688 641.789 89.7891 639.57 88.4297C637.352 87.0703 635.633 85.1328 634.414 82.6172C633.195 80.0859 632.578 77.1797 632.562 73.8984V72.2109C632.562 68.8516 633.164 65.8984 634.367 63.3516C635.586 60.7891 637.297 58.8281 639.5 57.4688C641.719 56.0938 644.25 55.4062 647.094 55.4062C649.938 55.4062 652.461 56.0938 654.664 57.4688C656.883 58.8281 658.594 60.7891 659.797 63.3516C661.016 65.8984 661.625 68.8438 661.625 72.1875V73.7109ZM654.5 72.1641C654.5 68.5859 653.859 65.8672 652.578 64.0078C651.297 62.1484 649.469 61.2188 647.094 61.2188C644.734 61.2188 642.914 62.1406 641.633 63.9844C640.352 65.8125 639.703 68.5 639.688 72.0469V73.7109C639.688 77.1953 640.328 79.8984 641.609 81.8203C642.891 83.7422 644.734 84.7031 647.141 84.7031C649.5 84.7031 651.312 83.7812 652.578 81.9375C653.844 80.0781 654.484 77.375 654.5 73.8281V72.1641ZM692.562 55.875V78.3516C692.562 82.0859 691.391 85.0391 689.047 87.2109C686.719 89.3828 683.531 90.4688 679.484 90.4688C675.5 90.4688 672.336 89.4141 669.992 87.3047C667.648 85.1953 666.453 82.2969 666.406 78.6094V55.875H673.438V78.3984C673.438 80.6328 673.969 82.2656 675.031 83.2969C676.109 84.3125 677.594 84.8203 679.484 84.8203C683.438 84.8203 685.445 82.7422 685.508 78.5859V55.875H692.562ZM710.961 77.5078H705.359V90H698.328V55.875H711.008C715.039 55.875 718.148 56.7734 720.336 58.5703C722.523 60.3672 723.617 62.9062 723.617 66.1875C723.617 68.5156 723.109 70.4609 722.094 72.0234C721.094 73.5703 719.57 74.8047 717.523 75.7266L724.906 89.6719V90H717.359L710.961 77.5078ZM705.359 71.8125H711.031C712.797 71.8125 714.164 71.3672 715.133 70.4766C716.102 69.5703 716.586 68.3281 716.586 66.75C716.586 65.1406 716.125 63.875 715.203 62.9531C714.297 62.0312 712.898 61.5703 711.008 61.5703H705.359V71.8125ZM755.773 78.6328C755.508 82.3047 754.148 85.1953 751.695 87.3047C749.258 89.4141 746.039 90.4688 742.039 90.4688C737.664 90.4688 734.219 89 731.703 86.0625C729.203 83.1094 727.953 79.0625 727.953 73.9219V71.8359C727.953 68.5547 728.531 65.6641 729.688 63.1641C730.844 60.6641 732.492 58.75 734.633 57.4219C736.789 56.0781 739.289 55.4062 742.133 55.4062C746.07 55.4062 749.242 56.4609 751.648 58.5703C754.055 60.6797 755.445 63.6406 755.82 67.4531H748.789C748.617 65.25 748 63.6562 746.938 62.6719C745.891 61.6719 744.289 61.1719 742.133 61.1719C739.789 61.1719 738.031 62.0156 736.859 63.7031C735.703 65.375 735.109 67.9766 735.078 71.5078V74.0859C735.078 77.7734 735.633 80.4688 736.742 82.1719C737.867 83.875 739.633 84.7266 742.039 84.7266C744.211 84.7266 745.828 84.2344 746.891 83.25C747.969 82.25 748.586 80.7109 748.742 78.6328H755.773ZM767.867 90H760.836V55.875H767.867V90ZM802.156 90H795.125L781.438 67.5469V90H774.406V55.875H781.438L795.148 78.375V55.875H802.156V90ZM835.297 85.6875C834.031 87.2031 832.242 88.3828 829.93 89.2266C827.617 90.0547 825.055 90.4688 822.242 90.4688C819.289 90.4688 816.695 89.8281 814.461 88.5469C812.242 87.25 810.523 85.375 809.305 82.9219C808.102 80.4688 807.484 77.5859 807.453 74.2734V71.9531C807.453 68.5469 808.023 65.6016 809.164 63.1172C810.32 60.6172 811.977 58.7109 814.133 57.3984C816.305 56.0703 818.844 55.4062 821.75 55.4062C825.797 55.4062 828.961 56.375 831.242 58.3125C833.523 60.2344 834.875 63.0391 835.297 66.7266H828.453C828.141 64.7734 827.445 63.3438 826.367 62.4375C825.305 61.5312 823.836 61.0781 821.961 61.0781C819.57 61.0781 817.75 61.9766 816.5 63.7734C815.25 65.5703 814.617 68.2422 814.602 71.7891V73.9688C814.602 77.5469 815.281 80.25 816.641 82.0781C818 83.9062 819.992 84.8203 822.617 84.8203C825.258 84.8203 827.141 84.2578 828.266 83.1328V77.25H821.867V72.0703H835.297V85.6875Z" fill="#FFFEFA"/>
<circle cx="818.5" cy="340.5" r="72.5" stroke="white" stroke-width="10"/>
<rect x="1013" y="274" width="150" height="138" stroke="black" stroke-width="8"/>
<path d="M786.525 222.265L789.572 210.15H792.282L787.668 226H785.471L781.618 213.988L777.868 226H775.671L771.071 210.15H773.767L776.887 222.016L780.578 210.15H782.761L786.525 222.265ZM804.836 226C804.68 225.688 804.553 225.131 804.455 224.33C803.195 225.639 801.691 226.293 799.943 226.293C798.381 226.293 797.097 225.854 796.091 224.975C795.095 224.086 794.597 222.963 794.597 221.605C794.597 219.955 795.222 218.676 796.472 217.768C797.731 216.85 799.499 216.391 801.774 216.391H804.411V215.146C804.411 214.198 804.128 213.446 803.562 212.89C802.995 212.323 802.16 212.04 801.057 212.04C800.09 212.04 799.279 212.284 798.625 212.772C797.971 213.261 797.644 213.852 797.644 214.545H794.919C794.919 213.754 795.197 212.992 795.754 212.26C796.32 211.518 797.082 210.932 798.039 210.502C799.006 210.072 800.065 209.857 801.218 209.857C803.044 209.857 804.475 210.316 805.51 211.234C806.545 212.143 807.082 213.397 807.121 214.999V222.294C807.121 223.749 807.307 224.906 807.678 225.766V226H804.836ZM800.339 223.935C801.188 223.935 801.994 223.715 802.756 223.275C803.518 222.836 804.069 222.265 804.411 221.562V218.31H802.287C798.967 218.31 797.307 219.281 797.307 221.225C797.307 222.074 797.59 222.738 798.156 223.217C798.723 223.695 799.45 223.935 800.339 223.935ZM819.03 212.582C818.62 212.514 818.176 212.479 817.697 212.479C815.92 212.479 814.714 213.236 814.079 214.75V226H811.369V210.15H814.006L814.05 211.981C814.938 210.565 816.198 209.857 817.829 209.857C818.356 209.857 818.757 209.926 819.03 210.062V212.582ZM827.6 224.081C828.566 224.081 829.411 223.788 830.134 223.202C830.856 222.616 831.257 221.884 831.335 221.005H833.898C833.85 221.913 833.537 222.777 832.961 223.598C832.385 224.418 831.613 225.072 830.646 225.561C829.689 226.049 828.674 226.293 827.6 226.293C825.441 226.293 823.723 225.575 822.443 224.14C821.174 222.694 820.539 220.722 820.539 218.222V217.768C820.539 216.225 820.822 214.853 821.389 213.651C821.955 212.45 822.766 211.518 823.82 210.854C824.885 210.189 826.14 209.857 827.585 209.857C829.362 209.857 830.837 210.39 832.009 211.454C833.19 212.519 833.82 213.9 833.898 215.6H831.335C831.257 214.574 830.866 213.734 830.163 213.08C829.47 212.416 828.61 212.084 827.585 212.084C826.208 212.084 825.139 212.582 824.377 213.578C823.625 214.564 823.249 215.995 823.249 217.87V218.383C823.249 220.209 823.625 221.615 824.377 222.602C825.129 223.588 826.203 224.081 827.6 224.081ZM844.606 212.582C844.196 212.514 843.752 212.479 843.273 212.479C841.496 212.479 840.29 213.236 839.655 214.75V226H836.945V210.15H839.582L839.626 211.981C840.515 210.565 841.774 209.857 843.405 209.857C843.933 209.857 844.333 209.926 844.606 210.062V212.582ZM856.311 226C856.154 225.688 856.027 225.131 855.93 224.33C854.67 225.639 853.166 226.293 851.418 226.293C849.855 226.293 848.571 225.854 847.565 224.975C846.569 224.086 846.071 222.963 846.071 221.605C846.071 219.955 846.696 218.676 847.946 217.768C849.206 216.85 850.974 216.391 853.249 216.391H855.886V215.146C855.886 214.198 855.603 213.446 855.036 212.89C854.47 212.323 853.635 212.04 852.531 212.04C851.564 212.04 850.754 212.284 850.1 212.772C849.445 213.261 849.118 213.852 849.118 214.545H846.394C846.394 213.754 846.672 212.992 847.229 212.26C847.795 211.518 848.557 210.932 849.514 210.502C850.48 210.072 851.54 209.857 852.692 209.857C854.519 209.857 855.949 210.316 856.984 211.234C858.02 212.143 858.557 213.397 858.596 214.999V222.294C858.596 223.749 858.781 224.906 859.152 225.766V226H856.311ZM851.813 223.935C852.663 223.935 853.469 223.715 854.23 223.275C854.992 222.836 855.544 222.265 855.886 221.562V218.31H853.762C850.441 218.31 848.781 219.281 848.781 221.225C848.781 222.074 849.064 222.738 849.631 223.217C850.197 223.695 850.925 223.935 851.813 223.935ZM864.177 226V212.245H861.672V210.15H864.177V208.524C864.177 206.825 864.631 205.512 865.539 204.584C866.447 203.656 867.731 203.192 869.392 203.192C870.017 203.192 870.637 203.275 871.252 203.441L871.105 205.639C870.646 205.551 870.158 205.507 869.641 205.507C868.762 205.507 868.083 205.766 867.604 206.283C867.126 206.791 866.887 207.523 866.887 208.48V210.15H870.271V212.245H866.887V226H864.177ZM876.95 206.312V210.15H879.909V212.245H876.95V222.074C876.95 222.709 877.082 223.188 877.346 223.51C877.609 223.822 878.059 223.979 878.693 223.979C879.006 223.979 879.436 223.92 879.982 223.803V226C879.27 226.195 878.576 226.293 877.902 226.293C876.691 226.293 875.778 225.927 875.163 225.194C874.548 224.462 874.24 223.422 874.24 222.074V212.245H871.354V210.15H874.24V206.312H876.95ZM1061.02 217.943C1061.02 215.512 1061.6 213.559 1062.75 212.084C1063.9 210.6 1065.41 209.857 1067.28 209.857C1069.13 209.857 1070.6 210.492 1071.69 211.762V203.5H1074.4V226H1071.91L1071.77 224.301C1070.69 225.629 1069.18 226.293 1067.25 226.293C1065.41 226.293 1063.91 225.541 1062.75 224.037C1061.6 222.533 1061.02 220.57 1061.02 218.148V217.943ZM1063.73 218.251C1063.73 220.048 1064.1 221.454 1064.85 222.47C1065.59 223.485 1066.61 223.993 1067.92 223.993C1069.64 223.993 1070.9 223.222 1071.69 221.679V214.398C1070.88 212.904 1069.63 212.157 1067.95 212.157C1066.62 212.157 1065.59 212.67 1064.85 213.695C1064.1 214.721 1063.73 216.239 1063.73 218.251ZM1077.9 217.929C1077.9 216.376 1078.2 214.979 1078.81 213.739C1079.42 212.499 1080.27 211.542 1081.35 210.868C1082.45 210.194 1083.69 209.857 1085.09 209.857C1087.25 209.857 1088.99 210.604 1090.32 212.099C1091.66 213.593 1092.33 215.58 1092.33 218.061V218.251C1092.33 219.794 1092.03 221.181 1091.43 222.411C1090.85 223.632 1090 224.584 1088.9 225.268C1087.8 225.951 1086.54 226.293 1085.12 226.293C1082.97 226.293 1081.23 225.546 1079.89 224.052C1078.56 222.558 1077.9 220.58 1077.9 218.119V217.929ZM1080.62 218.251C1080.62 220.009 1081.03 221.42 1081.84 222.484C1082.66 223.549 1083.75 224.081 1085.12 224.081C1086.5 224.081 1087.59 223.544 1088.4 222.47C1089.21 221.386 1089.62 219.872 1089.62 217.929C1089.62 216.19 1089.2 214.784 1088.37 213.71C1087.55 212.626 1086.46 212.084 1085.09 212.084C1083.75 212.084 1082.67 212.616 1081.85 213.681C1081.03 214.745 1080.62 216.269 1080.62 218.251ZM1099.4 206.312V210.15H1102.36V212.245H1099.4V222.074C1099.4 222.709 1099.53 223.188 1099.8 223.51C1100.06 223.822 1100.51 223.979 1101.14 223.979C1101.46 223.979 1101.89 223.92 1102.43 223.803V226C1101.72 226.195 1101.03 226.293 1100.35 226.293C1099.14 226.293 1098.23 225.927 1097.61 225.194C1097 224.462 1096.69 223.422 1096.69 222.074V212.245H1093.81V210.15H1096.69V206.312H1099.4ZM1115.32 226C1115.17 225.688 1115.04 225.131 1114.94 224.33C1113.68 225.639 1112.18 226.293 1110.43 226.293C1108.87 226.293 1107.58 225.854 1106.58 224.975C1105.58 224.086 1105.08 222.963 1105.08 221.605C1105.08 219.955 1105.71 218.676 1106.96 217.768C1108.22 216.85 1109.99 216.391 1112.26 216.391H1114.9V215.146C1114.9 214.198 1114.62 213.446 1114.05 212.89C1113.48 212.323 1112.65 212.04 1111.54 212.04C1110.58 212.04 1109.77 212.284 1109.11 212.772C1108.46 213.261 1108.13 213.852 1108.13 214.545H1105.41C1105.41 213.754 1105.69 212.992 1106.24 212.26C1106.81 211.518 1107.57 210.932 1108.53 210.502C1109.49 210.072 1110.55 209.857 1111.71 209.857C1113.53 209.857 1114.96 210.316 1116 211.234C1117.03 212.143 1117.57 213.397 1117.61 214.999V222.294C1117.61 223.749 1117.79 224.906 1118.17 225.766V226H1115.32ZM1110.83 223.935C1111.68 223.935 1112.48 223.715 1113.24 223.275C1114.01 222.836 1114.56 222.265 1114.9 221.562V218.31H1112.78C1109.46 218.31 1107.79 219.281 1107.79 221.225C1107.79 222.074 1108.08 222.738 1108.64 223.217C1109.21 223.695 1109.94 223.935 1110.83 223.935Z" fill="white"/>
<line x1="146" y1="271" x2="336" y2="271" stroke="white" stroke-width="4"/>
<line x1="146" y1="301" x2="306" y2="301" stroke="white" stroke-width="4"/>
<line x1="146" y1="331" x2="346" y2="331" stroke="white" stroke-width="4"/>
<line x1="146" y1="361" x2="326" y2="361" stroke="white" stroke-width="4"/>
<line x1="146" y1="391" x2="306" y2="391" stroke="white" stroke-width="4"/>
<line x1="146" y1="421" x2="286" y2="421" stroke="white" stroke-width="4"/>
<line x1="426" y1="271" x2="596" y2="271" stroke="black" stroke-width="4"/>
<line x1="426" y1="301" x2="606" y2="301" stroke="black" stroke-width="4"/>
<line x1="426" y1="331" x2="606" y2="331" stroke="black" stroke-width="4"/>
<line x1="426" y1="361" x2="626" y2="361" stroke="black" stroke-width="4"/>
<line x1="426" y1="391" x2="566" y2="391" stroke="black" stroke-width="4"/>
<line x1="426" y1="421" x2="586" y2="421" stroke="black" stroke-width="4"/>
<path d="M242.475 218.661L240.775 220.434V226H238.065V203.5H240.775V217.108L242.226 215.365L247.162 210.15H250.458L244.291 216.771L251.176 226H247.997L242.475 218.661ZM256.2 226H253.49V210.15H256.2V226ZM253.271 205.946C253.271 205.507 253.402 205.136 253.666 204.833C253.939 204.53 254.34 204.379 254.867 204.379C255.395 204.379 255.795 204.53 256.068 204.833C256.342 205.136 256.479 205.507 256.479 205.946C256.479 206.386 256.342 206.752 256.068 207.045C255.795 207.338 255.395 207.484 254.867 207.484C254.34 207.484 253.939 207.338 253.666 207.045C253.402 206.752 253.271 206.386 253.271 205.946ZM263.114 210.15L263.202 212.143C264.413 210.619 265.995 209.857 267.948 209.857C271.298 209.857 272.987 211.747 273.017 215.526V226H270.307V215.512C270.297 214.369 270.033 213.524 269.516 212.978C269.008 212.431 268.212 212.157 267.128 212.157C266.249 212.157 265.478 212.392 264.813 212.86C264.149 213.329 263.632 213.944 263.261 214.706V226H260.551V210.15H263.114ZM276.444 217.943C276.444 215.512 277.021 213.559 278.173 212.084C279.325 210.6 280.834 209.857 282.699 209.857C284.555 209.857 286.024 210.492 287.108 211.762V203.5H289.818V226H287.328L287.196 224.301C286.112 225.629 284.604 226.293 282.67 226.293C280.834 226.293 279.335 225.541 278.173 224.037C277.021 222.533 276.444 220.57 276.444 218.148V217.943ZM279.154 218.251C279.154 220.048 279.525 221.454 280.268 222.47C281.01 223.485 282.035 223.993 283.344 223.993C285.062 223.993 286.317 223.222 287.108 221.679V214.398C286.298 212.904 285.053 212.157 283.373 212.157C282.045 212.157 281.01 212.67 280.268 213.695C279.525 214.721 279.154 216.239 279.154 218.251ZM303.822 226C303.666 225.688 303.539 225.131 303.441 224.33C302.182 225.639 300.678 226.293 298.93 226.293C297.367 226.293 296.083 225.854 295.077 224.975C294.081 224.086 293.583 222.963 293.583 221.605C293.583 219.955 294.208 218.676 295.458 217.768C296.718 216.85 298.485 216.391 300.761 216.391H303.397V215.146C303.397 214.198 303.114 213.446 302.548 212.89C301.981 212.323 301.146 212.04 300.043 212.04C299.076 212.04 298.266 212.284 297.611 212.772C296.957 213.261 296.63 213.852 296.63 214.545H293.905C293.905 213.754 294.184 212.992 294.74 212.26C295.307 211.518 296.068 210.932 297.025 210.502C297.992 210.072 299.052 209.857 300.204 209.857C302.03 209.857 303.461 210.316 304.496 211.234C305.531 212.143 306.068 213.397 306.107 214.999V222.294C306.107 223.749 306.293 224.906 306.664 225.766V226H303.822ZM299.325 223.935C300.175 223.935 300.98 223.715 301.742 223.275C302.504 222.836 303.056 222.265 303.397 221.562V218.31H301.273C297.953 218.31 296.293 219.281 296.293 221.225C296.293 222.074 296.576 222.738 297.143 223.217C297.709 223.695 298.437 223.935 299.325 223.935ZM321.474 206.312V210.15H324.433V212.245H321.474V222.074C321.474 222.709 321.605 223.188 321.869 223.51C322.133 223.822 322.582 223.979 323.217 223.979C323.529 223.979 323.959 223.92 324.506 223.803V226C323.793 226.195 323.1 226.293 322.426 226.293C321.215 226.293 320.302 225.927 319.687 225.194C319.071 224.462 318.764 223.422 318.764 222.074V212.245H315.878V210.15H318.764V206.312H321.474ZM330.321 212.069C331.522 210.595 333.085 209.857 335.009 209.857C338.358 209.857 340.048 211.747 340.077 215.526V226H337.367V215.512C337.357 214.369 337.094 213.524 336.576 212.978C336.068 212.431 335.272 212.157 334.188 212.157C333.31 212.157 332.538 212.392 331.874 212.86C331.21 213.329 330.692 213.944 330.321 214.706V226H327.611V203.5H330.321V212.069ZM347.079 226H344.369V210.15H347.079V226ZM344.149 205.946C344.149 205.507 344.281 205.136 344.545 204.833C344.818 204.53 345.219 204.379 345.746 204.379C346.273 204.379 346.674 204.53 346.947 204.833C347.221 205.136 347.357 205.507 347.357 205.946C347.357 206.386 347.221 206.752 346.947 207.045C346.674 207.338 346.273 207.484 345.746 207.484C345.219 207.484 344.818 207.338 344.545 207.045C344.281 206.752 344.149 206.386 344.149 205.946ZM353.993 210.15L354.081 212.143C355.292 210.619 356.874 209.857 358.827 209.857C362.177 209.857 363.866 211.747 363.896 215.526V226H361.186V215.512C361.176 214.369 360.912 213.524 360.395 212.978C359.887 212.431 359.091 212.157 358.007 212.157C357.128 212.157 356.356 212.392 355.692 212.86C355.028 213.329 354.511 213.944 354.14 214.706V226H351.43V210.15H353.993ZM372.406 218.661L370.707 220.434V226H367.997V203.5H370.707V217.108L372.157 215.365L377.094 210.15H380.39L374.223 216.771L381.107 226H377.929L372.406 218.661ZM404.662 222.265L407.709 210.15H410.419L405.805 226H403.607L399.755 213.988L396.005 226H393.808L389.208 210.15H391.903L395.023 222.016L398.715 210.15H400.897L404.662 222.265ZM416.132 226H413.422V210.15H416.132V226ZM413.202 205.946C413.202 205.507 413.334 205.136 413.598 204.833C413.871 204.53 414.271 204.379 414.799 204.379C415.326 204.379 415.727 204.53 416 204.833C416.273 205.136 416.41 205.507 416.41 205.946C416.41 206.386 416.273 206.752 416 207.045C415.727 207.338 415.326 207.484 414.799 207.484C414.271 207.484 413.871 207.338 413.598 207.045C413.334 206.752 413.202 206.386 413.202 205.946ZM424.906 218.661L423.207 220.434V226H420.497V203.5H423.207V217.108L424.657 215.365L429.594 210.15H432.89L426.723 216.771L433.607 226H430.429L424.906 218.661ZM438.632 226H435.922V210.15H438.632V226ZM435.702 205.946C435.702 205.507 435.834 205.136 436.098 204.833C436.371 204.53 436.771 204.379 437.299 204.379C437.826 204.379 438.227 204.53 438.5 204.833C438.773 205.136 438.91 205.507 438.91 205.946C438.91 206.386 438.773 206.752 438.5 207.045C438.227 207.338 437.826 207.484 437.299 207.484C436.771 207.484 436.371 207.338 436.098 207.045C435.834 206.752 435.702 206.386 435.702 205.946ZM456.371 218.251C456.371 220.663 455.819 222.606 454.716 224.081C453.612 225.556 452.118 226.293 450.233 226.293C448.31 226.293 446.796 225.683 445.692 224.462V232.094H442.982V210.15H445.458L445.59 211.908C446.693 210.541 448.227 209.857 450.189 209.857C452.094 209.857 453.598 210.575 454.701 212.011C455.814 213.446 456.371 215.443 456.371 218.002V218.251ZM453.661 217.943C453.661 216.156 453.28 214.745 452.519 213.71C451.757 212.675 450.712 212.157 449.384 212.157C447.743 212.157 446.513 212.885 445.692 214.34V221.913C446.503 223.358 447.743 224.081 449.413 224.081C450.712 224.081 451.742 223.568 452.504 222.543C453.275 221.508 453.661 219.975 453.661 217.943ZM466.405 226.293C464.257 226.293 462.509 225.59 461.161 224.184C459.813 222.768 459.14 220.878 459.14 218.515V218.017C459.14 216.444 459.438 215.043 460.033 213.812C460.639 212.572 461.479 211.605 462.553 210.912C463.637 210.209 464.809 209.857 466.068 209.857C468.129 209.857 469.73 210.536 470.873 211.894C472.016 213.251 472.587 215.194 472.587 217.724V218.852H461.85C461.889 220.414 462.343 221.679 463.212 222.646C464.091 223.603 465.204 224.081 466.552 224.081C467.509 224.081 468.319 223.886 468.983 223.495C469.647 223.104 470.229 222.587 470.727 221.942L472.382 223.231C471.054 225.272 469.062 226.293 466.405 226.293ZM466.068 212.084C464.975 212.084 464.057 212.484 463.314 213.285C462.572 214.076 462.113 215.189 461.938 216.625H469.877V216.42C469.799 215.043 469.428 213.979 468.764 213.227C468.1 212.465 467.201 212.084 466.068 212.084ZM475.077 217.943C475.077 215.512 475.653 213.559 476.806 212.084C477.958 210.6 479.467 209.857 481.332 209.857C483.188 209.857 484.657 210.492 485.741 211.762V203.5H488.451V226H485.961L485.829 224.301C484.745 225.629 483.236 226.293 481.303 226.293C479.467 226.293 477.968 225.541 476.806 224.037C475.653 222.533 475.077 220.57 475.077 218.148V217.943ZM477.787 218.251C477.787 220.048 478.158 221.454 478.9 222.47C479.643 223.485 480.668 223.993 481.977 223.993C483.695 223.993 484.95 223.222 485.741 221.679V214.398C484.931 212.904 483.686 212.157 482.006 212.157C480.678 212.157 479.643 212.67 478.9 213.695C478.158 214.721 477.787 216.239 477.787 218.251ZM495.614 226H492.904V210.15H495.614V226ZM492.685 205.946C492.685 205.507 492.816 205.136 493.08 204.833C493.354 204.53 493.754 204.379 494.281 204.379C494.809 204.379 495.209 204.53 495.482 204.833C495.756 205.136 495.893 205.507 495.893 205.946C495.893 206.386 495.756 206.752 495.482 207.045C495.209 207.338 494.809 207.484 494.281 207.484C493.754 207.484 493.354 207.338 493.08 207.045C492.816 206.752 492.685 206.386 492.685 205.946ZM509.75 226C509.594 225.688 509.467 225.131 509.369 224.33C508.109 225.639 506.605 226.293 504.857 226.293C503.295 226.293 502.011 225.854 501.005 224.975C500.009 224.086 499.511 222.963 499.511 221.605C499.511 219.955 500.136 218.676 501.386 217.768C502.646 216.85 504.413 216.391 506.688 216.391H509.325V215.146C509.325 214.198 509.042 213.446 508.476 212.89C507.909 212.323 507.074 212.04 505.971 212.04C505.004 212.04 504.193 212.284 503.539 212.772C502.885 213.261 502.558 213.852 502.558 214.545H499.833C499.833 213.754 500.111 212.992 500.668 212.26C501.234 211.518 501.996 210.932 502.953 210.502C503.92 210.072 504.979 209.857 506.132 209.857C507.958 209.857 509.389 210.316 510.424 211.234C511.459 212.143 511.996 213.397 512.035 214.999V222.294C512.035 223.749 512.221 224.906 512.592 225.766V226H509.75ZM505.253 223.935C506.103 223.935 506.908 223.715 507.67 223.275C508.432 222.836 508.983 222.265 509.325 221.562V218.31H507.201C503.881 218.31 502.221 219.281 502.221 221.225C502.221 222.074 502.504 222.738 503.07 223.217C503.637 223.695 504.364 223.935 505.253 223.935Z" fill="white"/>
<defs>
<linearGradient id="paint0_linear" x1="402" y1="333.5" x2="357" y2="333.5" gradientUnits="userSpaceOnUse">
<stop/>
<stop offset="1" stop-color="white"/>
</linearGradient>
<linearGradient id="paint1_linear" x1="972" y1="333.5" x2="927" y2="333.5" gradientUnits="userSpaceOnUse">
<stop/>
<stop offset="1" stop-color="white"/>
</linearGradient>
</defs>
</svg>
