<svg width="500" height="246" viewBox="0 0 500 246" fill="none" xmlns="http://www.w3.org/2000/svg">
<rect width="500" height="246" fill="#A31313"/>
<g clip-path="url(#clip0)">
<path d="M80.1729 87.7022C78.113 87.7045 76.4483 90.4195 76.4531 94.5887C76.4594 98.7564 78.1305 101.47 80.1904 101.467C82.2479 101.463 87.3264 98.7437 87.3201 94.5768C87.3153 90.4067 82.2336 87.699 80.1729 87.7022" fill="#EFAC5E"/>
<path d="M114.019 86.9666C116.08 86.969 117.745 89.684 117.738 93.8524C117.733 98.0201 116.063 100.733 114.002 100.73C111.944 100.727 106.868 98.0074 106.873 93.8405C106.877 89.6704 111.957 86.9635 114.019 86.9666" fill="#EFAC5E"/>
<path d="M115.375 96.3969C115.375 108.787 107.25 114.985 97.2244 114.985C87.1989 114.985 79.0748 108.787 79.0748 96.3969C79.0748 84.0071 87.1997 70.1159 97.2252 70.1159C107.251 70.1159 115.375 84.0071 115.375 96.3969Z" fill="#FBBF67"/>
<path d="M109.127 103.957C109.127 111.803 103.797 115.73 97.2204 115.73C90.6454 115.73 85.3159 111.802 85.3159 103.957C85.3159 96.1092 90.6454 87.3117 97.2204 87.3117C103.798 87.3117 109.127 96.1092 109.127 103.957Z" fill="#FBBF67"/>
<path d="M120.86 79.8243C119.758 76.6208 114.429 72.2165 112.296 70.8276C112.65 70.4235 113.012 69.9 113.501 69.1477C113.713 68.8274 114.014 67.8656 113.398 67.9229C108.723 68.37 104.145 67.6106 99.7075 65.8718C92.9532 63.227 86.4539 66.8551 85.9168 67.3588C82.7213 70.3335 77.4492 77.7126 76.5272 82.6349C76.3033 83.823 76.4475 87.5707 79.8932 83.3879C79.9243 85.8718 79.3545 88.7246 79.5306 91.2164C79.627 92.5615 81.2861 91.2164 82.6767 84.0286C83.8561 77.9437 90.8965 80.9949 93.9286 80.547C96.8993 81.9575 97.4149 81.1845 101.47 79.8275C109.085 77.2815 111.638 79.6537 113.873 86.8487C113.845 86.8567 113.823 86.8902 113.823 86.9746C113.824 88.3875 113.679 90.6466 114.751 91.7479C115.338 92.352 115.724 90.8156 115.741 90.4833C115.788 89.6051 115.557 88.7333 115.422 87.8632C116.69 87.6233 118.349 86.7372 118.062 86.4646C114.811 83.3887 116.269 83.5568 115.655 80.665C116.102 80.9726 121.187 80.771 120.865 79.8275" fill="#25333A"/>
<path d="M94.2609 91.3925C94.2609 94.9378 92.346 97.8073 89.98 97.8073C87.6117 97.8073 85.6953 94.9394 85.6953 91.3925C85.6953 87.8512 87.6125 84.9777 89.98 84.9777C92.346 84.9777 94.2609 87.8504 94.2609 91.3925" fill="white"/>
<path d="M108.754 91.3925C108.754 94.9378 106.839 97.8073 104.473 97.8073C102.108 97.8073 100.188 94.9394 100.188 91.3925C100.188 87.8512 102.108 84.9777 104.473 84.9777C106.837 84.9777 108.754 87.8504 108.754 91.3925" fill="white"/>
<path d="M92.7516 91.3918C92.7516 93.2461 91.51 94.753 89.98 94.753C88.4461 94.753 87.2061 93.2461 87.2061 91.3918C87.2061 89.5367 88.4461 88.0338 89.98 88.0338C91.51 88.0338 92.7516 89.5367 92.7516 91.3918" fill="#25333A"/>
<path d="M104.473 94.7537C106.004 94.7537 107.245 93.2488 107.245 91.3925C107.245 89.5361 106.004 88.0313 104.473 88.0313C102.942 88.0313 101.701 89.5361 101.701 91.3925C101.701 93.2488 102.942 94.7537 104.473 94.7537Z" fill="#25333A"/>
<path d="M88.4756 109.099C88.4756 104.375 92.3085 100.543 97.0316 100.543C101.754 100.543 105.588 104.378 105.588 109.099" fill="#25333A"/>
<path d="M94.5908 100.214C94.5908 98.9628 95.6562 95.7968 97.1113 95.7968C98.5664 95.7968 99.8597 98.9628 99.8597 100.214C99.8597 101.469 98.6811 102.487 97.2244 102.487C95.7677 102.487 94.5908 101.469 94.5908 100.214" fill="#EFAC5E"/>
</g>
<path d="M96.5 118.594C82.0766 118.594 74.1875 127.678 74.1875 139.711V166.406H118.812V139.711C118.812 121.861 106.7 122.18 106.7 122.18C106.7 122.18 105.823 118.594 96.5 118.594Z" fill="#FFB300"/>
<path d="M79.2875 149.433C79.2875 149.433 75.7812 148.556 75.7812 143.456C75.7812 139.392 78.4109 138.755 78.4109 138.755C87.8141 138.675 105.266 126.562 105.266 126.562C105.266 126.562 108.931 137.241 114.509 138.675C114.509 138.675 117.219 139.153 117.219 143.377C117.219 148.477 113.633 149.353 113.633 149.353C113.553 157.083 102.955 166.406 96.5 166.406C90.0453 166.406 79.2875 157.083 79.2875 149.433Z" fill="#FFDD67"/>
<path d="M96.5 154.453C93.1531 154.453 91.4797 152.062 93.1531 152.062H99.8469C101.52 152.062 99.8469 154.453 96.5 154.453Z" fill="#EBA352"/>
<path d="M101.52 147.441C100.325 147.441 100.484 146.006 100.484 146.006C102.238 136.842 112.438 141.703 112.438 141.703C113.234 143.297 110.605 147.202 109.888 147.441C106.541 148.238 101.52 147.441 101.52 147.441Z" fill="#F5F5F5"/>
<path d="M109.648 143.695C109.648 145.688 108.055 147.281 106.062 147.281C104.07 147.281 102.477 145.688 102.477 143.695C102.477 141.703 104.07 140.109 106.062 140.109C108.055 140.109 109.648 141.703 109.648 143.695Z" fill="#664E27"/>
<path d="M106.062 144.891C106.723 144.891 107.258 144.355 107.258 143.695C107.258 143.035 106.723 142.5 106.062 142.5C105.402 142.5 104.867 143.035 104.867 143.695C104.867 144.355 105.402 144.891 106.062 144.891Z" fill="#2B2925"/>
<path d="M100.484 145.927C102.238 135.009 111.242 142.261 114.828 140.747C111.242 144.173 104.07 136.842 100.484 145.927Z" fill="#3B3226"/>
<path d="M91.4797 147.441C92.675 147.441 92.5156 146.006 92.5156 146.006C90.7625 136.842 80.5625 141.703 80.5625 141.703C79.7656 143.297 82.3953 147.202 83.1125 147.441C86.4594 148.238 91.4797 147.441 91.4797 147.441Z" fill="#F5F5F5"/>
<path d="M83.3516 143.695C83.3516 145.688 84.9453 147.281 86.9375 147.281C88.9297 147.281 90.5234 145.688 90.5234 143.695C90.5234 141.703 88.9297 140.109 86.9375 140.109C84.9453 140.109 83.3516 141.703 83.3516 143.695Z" fill="#664E27"/>
<path d="M92.5156 145.927C90.7625 135.009 81.7578 142.261 78.1719 140.747C81.7578 144.173 88.9297 136.842 92.5156 145.927Z" fill="#3B3226"/>
<path d="M96.5 158.438L88.5312 157.242C93.3125 164.016 99.6875 164.016 104.469 157.242L96.5 158.438Z" fill="#F09985"/>
<path d="M99.6078 156.923C97.2969 156.047 96.5 157.481 96.5 157.481C96.5 157.481 95.7031 156.047 93.3922 156.923C91.5594 157.641 88.5312 157.242 88.5312 157.242C91.7188 157.959 92.1172 159.234 96.5 159.234C100.883 159.234 101.281 157.88 104.469 157.242C104.469 157.242 101.441 157.641 99.6078 156.923Z" fill="#D47F6C"/>
<path d="M86.9375 144.891C87.5977 144.891 88.1328 144.355 88.1328 143.695C88.1328 143.035 87.5977 142.5 86.9375 142.5C86.2773 142.5 85.7422 143.035 85.7422 143.695C85.7422 144.355 86.2773 144.891 86.9375 144.891Z" fill="#2B2925"/>
<g clip-path="url(#clip1)">
<path d="M74.3234 110.677C63.9687 110.677 55.5734 119.072 55.5734 129.427C55.5734 139.781 63.9687 148.177 74.3234 148.177C84.6781 148.177 93.0734 139.781 93.0734 129.427C93.0734 119.072 84.6781 110.677 74.3234 110.677V110.677ZM74.3234 134.114C71.7344 134.114 69.6359 132.016 69.6359 129.427C69.6359 126.837 71.7344 124.739 74.3234 124.739C76.9125 124.739 79.0109 126.837 79.0109 129.427C79.0109 132.016 76.9125 134.114 74.3234 134.114V134.114Z" fill="#F44336"/>
<path d="M74.1672 113.02C65.1062 113.02 57.7609 120.366 57.7609 129.427C57.7609 138.487 65.1062 145.833 74.1672 145.833C83.2281 145.833 90.5734 138.487 90.5734 129.427C90.5734 120.366 83.2281 113.02 74.1672 113.02V113.02ZM74.3234 134.114C71.7344 134.114 69.6359 132.016 69.6359 129.427C69.6359 126.837 71.7344 124.739 74.3234 124.739C76.9125 124.739 79.0109 126.837 79.0109 129.427C79.0109 132.016 76.9125 134.114 74.3234 134.114V134.114Z" fill="#FF9800"/>
<path d="M74.3234 115.364C66.5562 115.364 60.2609 121.659 60.2609 129.427C60.2609 137.194 66.5562 143.489 74.3234 143.489C82.0906 143.489 88.3859 137.194 88.3859 129.427C88.3859 121.659 82.0891 115.364 74.3234 115.364V115.364ZM74.3234 134.114C71.7344 134.114 69.6359 132.016 69.6359 129.427C69.6359 126.837 71.7344 124.739 74.3234 124.739C76.9125 124.739 79.0109 126.837 79.0109 129.427C79.0109 132.016 76.9125 134.114 74.3234 134.114V134.114Z" fill="#FFEB3B"/>
<path d="M74.3234 117.708C67.8516 117.708 62.6047 122.955 62.6047 129.427C62.6047 135.898 67.8516 141.145 74.3234 141.145C80.7953 141.145 86.0422 135.898 86.0422 129.427C86.0422 122.955 80.7953 117.708 74.3234 117.708V117.708ZM74.3234 134.114C71.7344 134.114 69.6359 132.016 69.6359 129.427C69.6359 126.837 71.7344 124.739 74.3234 124.739C76.9125 124.739 79.0109 126.837 79.0109 129.427C79.0109 132.016 76.9125 134.114 74.3234 134.114V134.114Z" fill="#8BC34A"/>
<path d="M74.3234 120.052C69.1453 120.052 64.9484 124.248 64.9484 129.427C64.9484 134.605 69.1453 138.802 74.3234 138.802C79.5016 138.802 83.6984 134.605 83.6984 129.427C83.6984 124.248 79.5 120.052 74.3234 120.052V120.052ZM74.3234 134.114C71.7344 134.114 69.6359 132.016 69.6359 129.427C69.6359 126.837 71.7344 124.739 74.3234 124.739C76.9125 124.739 79.0109 126.837 79.0109 129.427C79.0109 132.016 76.9125 134.114 74.3234 134.114V134.114Z" fill="#2196F3"/>
<path d="M74.3234 122.395C70.4406 122.395 67.2922 125.544 67.2922 129.427C67.2922 133.309 70.4406 136.458 74.3234 136.458C78.2062 136.458 81.3547 133.309 81.3547 129.427C81.3547 125.544 78.2062 122.395 74.3234 122.395V122.395ZM74.3234 134.114C71.7344 134.114 69.6359 132.016 69.6359 129.427C69.6359 126.837 71.7344 124.739 74.3234 124.739C76.9125 124.739 79.0109 126.837 79.0109 129.427C79.0109 132.016 76.9125 134.114 74.3234 134.114V134.114Z" fill="#673AB7"/>
<g opacity="0.2">
<path opacity="0.2" d="M74.3234 111.302C79.1641 111.302 83.7156 113.187 87.1391 116.611C90.5625 120.034 92.4484 124.586 92.4484 129.427C92.4484 134.267 90.5625 138.819 87.1391 142.242C83.7156 145.666 79.1641 147.552 74.3234 147.552C69.4828 147.552 64.9312 145.666 61.5078 142.242C58.0844 138.819 56.1984 134.267 56.1984 129.427C56.1984 124.586 58.0844 120.034 61.5078 116.611C64.9297 113.187 69.4812 111.302 74.3234 111.302ZM74.3234 110.677C63.9687 110.677 55.5734 119.072 55.5734 129.427C55.5734 139.781 63.9687 148.177 74.3234 148.177C84.6781 148.177 93.0734 139.781 93.0734 129.427C93.0734 119.072 84.6781 110.677 74.3234 110.677V110.677Z" fill="#424242"/>
</g>
<g opacity="0.2">
<path opacity="0.2" d="M74.3234 124.902C76.8187 124.902 78.8484 126.931 78.8484 129.427C78.8484 131.922 76.8187 133.952 74.3234 133.952C71.8281 133.952 69.7984 131.922 69.7984 129.427C69.7984 126.931 71.8281 124.902 74.3234 124.902V124.902ZM74.3234 124.277C71.4797 124.277 69.1734 126.583 69.1734 129.427C69.1734 132.27 71.4797 134.577 74.3234 134.577C77.1672 134.577 79.4734 132.27 79.4734 129.427C79.4734 126.583 77.1672 124.277 74.3234 124.277Z" fill="#424242"/>
</g>
</g>
<path d="M220.589 169.856C215.897 168.275 211.205 170.288 210.067 174.313C208.93 178.194 211.631 182.65 216.323 184.231C221.016 185.813 225.708 183.8 226.845 179.775C227.983 175.75 225.281 171.294 220.589 169.856" fill="#4FD1D9"/>
<path d="M203.527 182.65C201.962 183.944 201.82 186.387 203.1 188.256C204.522 190.125 206.797 190.556 208.503 189.406C210.067 188.112 210.209 185.669 208.93 183.8C207.65 181.931 205.091 181.5 203.527 182.65Z" fill="#4FD1D9"/>
<path d="M282.156 133.631C282.156 129.75 280.308 126.3 277.606 124.144V123.281C277.606 117.244 272.914 112.213 267.084 112.213H265.947C263.672 108.331 259.691 105.6 254.998 105.6C252.155 105.6 249.595 106.463 247.605 108.044C244.903 105.6 241.206 103.875 237.225 103.875C230.684 103.875 225.139 108.331 223.291 114.512C221.158 112.931 218.456 112.069 215.612 112.069C208.077 112.069 201.962 118.394 201.962 126.156C201.962 128.456 202.531 130.613 203.384 132.625C199.403 135.5 196.844 140.244 196.844 145.706C196.844 154.619 203.811 161.806 212.342 161.806C215.47 161.806 218.456 160.8 220.873 159.219C222.153 165.975 227.983 171.15 234.95 171.15C240.069 171.15 244.619 168.275 247.178 164.106C248.884 165.831 251.302 166.981 254.003 166.981C258.98 166.981 263.103 162.956 263.53 157.925C264.667 158.356 265.947 158.644 267.227 158.644C273.341 158.644 278.317 153.469 278.317 147.144C278.317 145.85 278.033 144.556 277.748 143.406C280.308 140.962 282.156 137.513 282.156 133.631Z" fill="#4FD1D9"/>
<path d="M271.592 121.152C274.841 120.069 278.089 121.447 278.877 124.203C279.664 126.861 277.794 129.913 274.545 130.995C271.297 132.078 268.048 130.7 267.261 127.944C266.473 125.188 268.344 122.136 271.592 121.152" fill="#177E85"/>
<path d="M283.405 129.912C284.488 130.798 284.586 132.472 283.7 133.752C282.716 135.031 281.141 135.327 279.959 134.539C278.877 133.653 278.778 131.98 279.664 130.7C280.55 129.42 282.322 129.125 283.405 129.912Z" fill="#177E85"/>
<path d="M228.969 96.3453C228.969 93.6875 230.248 91.325 232.119 89.8484V89.2578C232.119 85.1234 235.367 81.6781 239.403 81.6781H240.191C241.766 79.0203 244.522 77.15 247.77 77.15C249.739 77.15 251.511 77.7406 252.889 78.8234C254.759 77.15 257.319 75.9688 260.075 75.9688C264.603 75.9688 268.442 79.0203 269.722 83.2531C271.198 82.1703 273.069 81.5797 275.038 81.5797C280.255 81.5797 284.488 85.9109 284.488 91.2266C284.488 92.8016 284.094 94.2781 283.503 95.6562C286.259 97.625 288.031 100.873 288.031 104.614C288.031 110.717 283.208 115.639 277.302 115.639C275.136 115.639 273.069 114.95 271.395 113.867C270.509 118.494 266.473 122.037 261.65 122.037C258.106 122.037 254.956 120.069 253.184 117.214C252.003 118.395 250.33 119.183 248.459 119.183C245.014 119.183 242.159 116.427 241.864 112.981C241.077 113.277 240.191 113.473 239.305 113.473C235.072 113.473 231.627 109.93 231.627 105.598C231.627 104.712 231.823 103.827 232.02 103.039C230.248 101.366 228.969 99.0031 228.969 96.3453Z" fill="#177E85"/>
<path d="M250.519 86.6922C248.662 86.0563 246.806 86.8656 246.356 88.4844C245.906 90.0453 246.975 91.8375 248.831 92.4735C250.687 93.1094 252.544 92.3 252.994 90.6813C253.444 89.0625 252.375 87.2703 250.519 86.6922" fill="#90CAF9"/>
<path d="M243.769 91.8375C243.15 92.3578 243.094 93.3406 243.6 94.0922C244.162 94.8437 245.062 95.0172 245.737 94.5547C246.356 94.0344 246.412 93.0516 245.906 92.3C245.4 91.5484 244.387 91.375 243.769 91.8375Z" fill="#90CAF9"/>
<path d="M274.875 72.1234C274.875 70.5625 274.144 69.175 273.075 68.3078V67.9609C273.075 65.5328 271.219 63.5094 268.913 63.5094H268.462C267.562 61.9484 265.988 60.85 264.131 60.85C263.006 60.85 261.994 61.1969 261.206 61.8328C260.138 60.85 258.675 60.1562 257.1 60.1562C254.512 60.1562 252.319 61.9484 251.588 64.4344C250.744 63.7984 249.675 63.4516 248.55 63.4516C245.569 63.4516 243.15 65.9953 243.15 69.1172C243.15 70.0422 243.375 70.9094 243.712 71.7188C242.137 72.875 241.125 74.7828 241.125 76.9797C241.125 80.5641 243.881 83.4547 247.256 83.4547C248.494 83.4547 249.675 83.05 250.631 82.4141C251.137 85.1312 253.444 87.2125 256.2 87.2125C258.225 87.2125 260.025 86.0563 261.038 84.3797C261.713 85.0734 262.669 85.5359 263.738 85.5359C265.706 85.5359 267.338 83.9172 267.506 81.8937C267.956 82.0672 268.463 82.1828 268.969 82.1828C271.388 82.1828 273.356 80.1016 273.356 77.5578C273.356 77.0375 273.244 76.5172 273.131 76.0547C274.144 75.0719 274.875 73.6844 274.875 72.1234Z" fill="#90CAF9"/>
<g clip-path="url(#clip2)">
<path d="M443.367 152.493C443.367 156.645 439.616 160 434.982 160H381.481C376.851 160 373.096 156.644 373.096 152.493V84.8013C373.096 80.6625 376.855 77.291 381.481 77.291H434.982C439.619 77.291 443.367 80.657 443.367 84.8013V152.493Z" fill="#D0D1D2"/>
<path d="M443.367 147.196C443.367 151.349 439.616 154.708 434.982 154.708H381.481C376.851 154.708 373.096 151.346 373.096 147.196V79.5048C373.096 75.366 376.855 71.9986 381.481 71.9986H434.982C439.619 71.9986 443.367 75.3619 443.367 79.5048V147.196" fill="#E7E6E6"/>
<path d="M383.669 90.194H431.27C434.47 90.194 434.47 85.7555 431.27 85.7555H383.669C380.473 85.7555 380.473 90.194 383.669 90.194Z" fill="#35494D"/>
<path d="M383.669 99.2016H431.27C434.47 99.2016 434.47 94.7686 431.27 94.7686H383.669C380.473 94.7686 380.473 99.2016 383.669 99.2016Z" fill="#35494D"/>
<path d="M383.669 108.413H431.27C434.47 108.413 434.47 103.98 431.27 103.98H383.669C380.473 103.98 380.473 108.413 383.669 108.413Z" fill="#35494D"/>
<path d="M383.669 117.416H431.27C434.47 117.416 434.47 112.979 431.27 112.979H383.669C380.473 112.979 380.473 117.416 383.669 117.416Z" fill="#35494D"/>
<path d="M383.669 150H405.571C408.771 150 408.771 145.56 405.571 145.56H383.669C380.473 145.56 380.473 150 383.669 150Z" fill="#35494D"/>
</g>
<path d="M183.707 120.707C184.098 120.317 184.098 119.683 183.707 119.293L177.343 112.929C176.953 112.538 176.319 112.538 175.929 112.929C175.538 113.319 175.538 113.953 175.929 114.343L181.586 120L175.929 125.657C175.538 126.047 175.538 126.681 175.929 127.071C176.319 127.462 176.953 127.462 177.343 127.071L183.707 120.707ZM133 121H183V119H133V121Z" fill="black"/>
<path d="M357.707 120.707C358.098 120.317 358.098 119.683 357.707 119.293L351.343 112.929C350.953 112.538 350.319 112.538 349.929 112.929C349.538 113.319 349.538 113.953 349.929 114.343L355.586 120L349.929 125.657C349.538 126.047 349.538 126.681 349.929 127.071C350.319 127.462 350.953 127.462 351.343 127.071L357.707 120.707ZM308 121H357V119H308V121Z" fill="black"/>
<defs>
<clipPath id="clip0">
<rect width="51" height="51" fill="white" transform="translate(70 65)"/>
</clipPath>
<clipPath id="clip1">
<rect width="20" height="20" fill="white" transform="translate(55 110)"/>
</clipPath>
<clipPath id="clip2">
<rect width="89" height="88" fill="white" transform="translate(363 72)"/>
</clipPath>
</defs>
</svg>
