<svg width="500" height="331" viewBox="0 0 500 331" fill="none" xmlns="http://www.w3.org/2000/svg">
<rect width="500" height="331" fill="#A31313"/>
<g clip-path="url(#clip0)">
<path d="M80.1729 73.7022C78.113 73.7045 76.4483 76.4195 76.4531 80.5887C76.4594 84.7564 78.1305 87.4698 80.1904 87.4666C82.2479 87.4634 87.3264 84.7437 87.3201 80.5768C87.3153 76.4067 82.2336 73.699 80.1729 73.7022" fill="#EFAC5E"/>
<path d="M114.019 72.9666C116.08 72.969 117.745 75.684 117.738 79.8524C117.733 84.0201 116.063 86.7327 114.002 86.7303C111.944 86.7271 106.868 84.0074 106.873 79.8405C106.877 75.6704 111.957 72.9635 114.019 72.9666" fill="#EFAC5E"/>
<path d="M115.375 82.3969C115.375 94.7875 107.25 100.985 97.2244 100.985C87.199 100.985 79.0748 94.7875 79.0748 82.3969C79.0748 70.0071 87.1998 56.1159 97.2252 56.1159C107.251 56.1159 115.375 70.0071 115.375 82.3969Z" fill="#FBBF67"/>
<path d="M109.127 89.9568C109.127 97.8028 103.797 101.73 97.2204 101.73C90.6454 101.73 85.3159 97.8021 85.3159 89.9568C85.3159 82.1092 90.6454 73.3117 97.2204 73.3117C103.798 73.3117 109.127 82.1092 109.127 89.9568Z" fill="#FBBF67"/>
<path d="M120.86 65.8243C119.758 62.6208 114.429 58.2165 112.296 56.8275C112.65 56.4235 113.012 55.9 113.501 55.1477C113.713 54.8274 114.014 53.8656 113.398 53.9229C108.723 54.37 104.144 53.6106 99.7075 51.8718C92.9532 49.227 86.4539 52.8551 85.9168 53.3587C82.7213 56.3335 77.4492 63.7125 76.5272 68.6348C76.3033 69.823 76.4475 73.5707 79.8932 69.3879C79.9243 71.8717 79.3545 74.7246 79.5306 77.2164C79.627 78.5615 81.2861 77.2164 82.6767 70.0286C83.856 63.9436 90.8964 66.9949 93.9285 66.547C96.8993 67.9575 97.4149 67.1845 101.47 65.8275C109.085 63.2814 111.638 65.6537 113.873 72.8487C113.845 72.8567 113.823 72.8902 113.823 72.9746C113.824 74.3875 113.679 76.6466 114.751 77.7479C115.338 78.3519 115.724 76.8156 115.741 76.4833C115.788 75.6051 115.557 74.7333 115.422 73.8631C116.69 73.6233 118.349 72.7372 118.062 72.4646C114.811 69.3887 116.269 69.5568 115.655 66.665C116.102 66.9726 121.187 66.771 120.865 65.8275" fill="#25333A"/>
<path d="M94.2608 77.3925C94.2608 80.9378 92.346 83.8073 89.98 83.8073C87.6117 83.8073 85.6952 80.9394 85.6952 77.3925C85.6952 73.8512 87.6125 70.9777 89.98 70.9777C92.346 70.9777 94.2608 73.8504 94.2608 77.3925" fill="white"/>
<path d="M108.754 77.3925C108.754 80.9378 106.839 83.8073 104.473 83.8073C102.108 83.8073 100.188 80.9394 100.188 77.3925C100.188 73.8512 102.108 70.9777 104.473 70.9777C106.837 70.9777 108.754 73.8504 108.754 77.3925" fill="white"/>
<path d="M92.7516 77.3918C92.7516 79.2461 91.51 80.753 89.98 80.753C88.4461 80.753 87.2061 79.2461 87.2061 77.3918C87.2061 75.5367 88.4461 74.0338 89.98 74.0338C91.51 74.0338 92.7516 75.5367 92.7516 77.3918" fill="#25333A"/>
<path d="M104.473 80.7537C106.004 80.7537 107.245 79.2488 107.245 77.3925C107.245 75.5361 106.004 74.0313 104.473 74.0313C102.942 74.0313 101.7 75.5361 101.7 77.3925C101.7 79.2488 102.942 80.7537 104.473 80.7537Z" fill="#25333A"/>
<path d="M88.4756 95.099C88.4756 90.3752 92.3085 86.543 97.0316 86.543C101.754 86.543 105.588 90.3776 105.588 95.099" fill="#25333A"/>
<path d="M94.5908 86.2139C94.5908 84.9628 95.6562 81.7968 97.1113 81.7968C98.5664 81.7968 99.8597 84.9628 99.8597 86.2139C99.8597 87.469 98.6811 88.4874 97.2244 88.4874C95.7678 88.4874 94.5908 87.469 94.5908 86.2139" fill="#EFAC5E"/>
</g>
<path d="M96.5 104.594C82.0766 104.594 74.1875 113.678 74.1875 125.711V152.406H118.812V125.711C118.812 107.861 106.7 108.18 106.7 108.18C106.7 108.18 105.823 104.594 96.5 104.594Z" fill="#FFB300"/>
<path d="M79.2875 135.433C79.2875 135.433 75.7812 134.556 75.7812 129.456C75.7812 125.392 78.4109 124.755 78.4109 124.755C87.8141 124.675 105.266 112.562 105.266 112.562C105.266 112.562 108.931 123.241 114.509 124.675C114.509 124.675 117.219 125.153 117.219 129.377C117.219 134.477 113.633 135.353 113.633 135.353C113.553 143.083 102.955 152.406 96.5 152.406C90.0453 152.406 79.2875 143.083 79.2875 135.433Z" fill="#FFDD67"/>
<path d="M96.5 140.453C93.1531 140.453 91.4797 138.062 93.1531 138.062H99.8469C101.52 138.062 99.8469 140.453 96.5 140.453Z" fill="#EBA352"/>
<path d="M101.52 133.441C100.325 133.441 100.484 132.006 100.484 132.006C102.238 122.842 112.438 127.703 112.438 127.703C113.234 129.297 110.605 133.202 109.888 133.441C106.541 134.238 101.52 133.441 101.52 133.441Z" fill="#F5F5F5"/>
<path d="M109.648 129.695C109.648 131.688 108.055 133.281 106.062 133.281C104.07 133.281 102.477 131.688 102.477 129.695C102.477 127.703 104.07 126.109 106.062 126.109C108.055 126.109 109.648 127.703 109.648 129.695Z" fill="#664E27"/>
<path d="M106.062 130.891C106.723 130.891 107.258 130.355 107.258 129.695C107.258 129.035 106.723 128.5 106.062 128.5C105.402 128.5 104.867 129.035 104.867 129.695C104.867 130.355 105.402 130.891 106.062 130.891Z" fill="#2B2925"/>
<path d="M100.484 131.927C102.238 121.009 111.242 128.261 114.828 126.747C111.242 130.173 104.07 122.842 100.484 131.927Z" fill="#3B3226"/>
<path d="M91.4797 133.441C92.675 133.441 92.5156 132.006 92.5156 132.006C90.7625 122.842 80.5625 127.703 80.5625 127.703C79.7656 129.297 82.3953 133.202 83.1125 133.441C86.4594 134.238 91.4797 133.441 91.4797 133.441Z" fill="#F5F5F5"/>
<path d="M83.3516 129.695C83.3516 131.688 84.9453 133.281 86.9375 133.281C88.9297 133.281 90.5234 131.688 90.5234 129.695C90.5234 127.703 88.9297 126.109 86.9375 126.109C84.9453 126.109 83.3516 127.703 83.3516 129.695Z" fill="#664E27"/>
<path d="M92.5156 131.927C90.7625 121.009 81.7578 128.261 78.1719 126.747C81.7578 130.173 88.9297 122.842 92.5156 131.927Z" fill="#3B3226"/>
<path d="M96.5 144.438L88.5312 143.242C93.3125 150.016 99.6875 150.016 104.469 143.242L96.5 144.438Z" fill="#F09985"/>
<path d="M99.6078 142.923C97.2969 142.047 96.5 143.481 96.5 143.481C96.5 143.481 95.7031 142.047 93.3922 142.923C91.5594 143.641 88.5312 143.242 88.5312 143.242C91.7188 143.959 92.1172 145.234 96.5 145.234C100.883 145.234 101.281 143.88 104.469 143.242C104.469 143.242 101.441 143.641 99.6078 142.923Z" fill="#D47F6C"/>
<path d="M86.9375 130.891C87.5977 130.891 88.1328 130.355 88.1328 129.695C88.1328 129.035 87.5977 128.5 86.9375 128.5C86.2773 128.5 85.7422 129.035 85.7422 129.695C85.7422 130.355 86.2773 130.891 86.9375 130.891Z" fill="#2B2925"/>
<g clip-path="url(#clip1)">
<path d="M74.3234 96.6766C63.9688 96.6766 55.5734 105.072 55.5734 115.427C55.5734 125.781 63.9688 134.177 74.3234 134.177C84.6781 134.177 93.0734 125.781 93.0734 115.427C93.0734 105.072 84.6781 96.6766 74.3234 96.6766V96.6766ZM74.3234 120.114C71.7344 120.114 69.6359 118.016 69.6359 115.427C69.6359 112.837 71.7344 110.739 74.3234 110.739C76.9125 110.739 79.0109 112.837 79.0109 115.427C79.0109 118.016 76.9125 120.114 74.3234 120.114V120.114Z" fill="#F44336"/>
<path d="M74.1672 99.0203C65.1063 99.0203 57.7609 106.366 57.7609 115.427C57.7609 124.487 65.1063 131.833 74.1672 131.833C83.2281 131.833 90.5734 124.487 90.5734 115.427C90.5734 106.366 83.2281 99.0203 74.1672 99.0203V99.0203ZM74.3234 120.114C71.7344 120.114 69.6359 118.016 69.6359 115.427C69.6359 112.837 71.7344 110.739 74.3234 110.739C76.9125 110.739 79.0109 112.837 79.0109 115.427C79.0109 118.016 76.9125 120.114 74.3234 120.114V120.114Z" fill="#FF9800"/>
<path d="M74.3234 101.364C66.5563 101.364 60.2609 107.659 60.2609 115.427C60.2609 123.194 66.5563 129.489 74.3234 129.489C82.0906 129.489 88.3859 123.194 88.3859 115.427C88.3859 107.659 82.0891 101.364 74.3234 101.364V101.364ZM74.3234 120.114C71.7344 120.114 69.6359 118.016 69.6359 115.427C69.6359 112.837 71.7344 110.739 74.3234 110.739C76.9125 110.739 79.0109 112.837 79.0109 115.427C79.0109 118.016 76.9125 120.114 74.3234 120.114V120.114Z" fill="#FFEB3B"/>
<path d="M74.3234 103.708C67.8516 103.708 62.6047 108.955 62.6047 115.427C62.6047 121.898 67.8516 127.145 74.3234 127.145C80.7953 127.145 86.0422 121.898 86.0422 115.427C86.0422 108.955 80.7953 103.708 74.3234 103.708V103.708ZM74.3234 120.114C71.7344 120.114 69.6359 118.016 69.6359 115.427C69.6359 112.837 71.7344 110.739 74.3234 110.739C76.9125 110.739 79.0109 112.837 79.0109 115.427C79.0109 118.016 76.9125 120.114 74.3234 120.114V120.114Z" fill="#8BC34A"/>
<path d="M74.3234 106.052C69.1453 106.052 64.9484 110.248 64.9484 115.427C64.9484 120.605 69.1453 124.802 74.3234 124.802C79.5016 124.802 83.6984 120.605 83.6984 115.427C83.6984 110.248 79.5 106.052 74.3234 106.052V106.052ZM74.3234 120.114C71.7344 120.114 69.6359 118.016 69.6359 115.427C69.6359 112.837 71.7344 110.739 74.3234 110.739C76.9125 110.739 79.0109 112.837 79.0109 115.427C79.0109 118.016 76.9125 120.114 74.3234 120.114V120.114Z" fill="#2196F3"/>
<path d="M74.3234 108.395C70.4406 108.395 67.2922 111.544 67.2922 115.427C67.2922 119.309 70.4406 122.458 74.3234 122.458C78.2063 122.458 81.3547 119.309 81.3547 115.427C81.3547 111.544 78.2063 108.395 74.3234 108.395V108.395ZM74.3234 120.114C71.7344 120.114 69.6359 118.016 69.6359 115.427C69.6359 112.837 71.7344 110.739 74.3234 110.739C76.9125 110.739 79.0109 112.837 79.0109 115.427C79.0109 118.016 76.9125 120.114 74.3234 120.114V120.114Z" fill="#673AB7"/>
<g opacity="0.2">
<path opacity="0.2" d="M74.3234 97.3016C79.1641 97.3016 83.7156 99.1875 87.1391 102.611C90.5625 106.034 92.4484 110.586 92.4484 115.427C92.4484 120.267 90.5625 124.819 87.1391 128.242C83.7156 131.666 79.1641 133.552 74.3234 133.552C69.4828 133.552 64.9313 131.666 61.5078 128.242C58.0844 124.819 56.1984 120.267 56.1984 115.427C56.1984 110.586 58.0844 106.034 61.5078 102.611C64.9297 99.1875 69.4813 97.3016 74.3234 97.3016ZM74.3234 96.6766C63.9688 96.6766 55.5734 105.072 55.5734 115.427C55.5734 125.781 63.9688 134.177 74.3234 134.177C84.6781 134.177 93.0734 125.781 93.0734 115.427C93.0734 105.072 84.6781 96.6766 74.3234 96.6766V96.6766Z" fill="#424242"/>
</g>
<g opacity="0.2">
<path opacity="0.2" d="M74.3234 110.902C76.8187 110.902 78.8484 112.931 78.8484 115.427C78.8484 117.922 76.8187 119.952 74.3234 119.952C71.8281 119.952 69.7984 117.922 69.7984 115.427C69.7984 112.931 71.8281 110.902 74.3234 110.902V110.902ZM74.3234 110.277C71.4797 110.277 69.1734 112.583 69.1734 115.427C69.1734 118.27 71.4797 120.577 74.3234 120.577C77.1672 120.577 79.4734 118.27 79.4734 115.427C79.4734 112.583 77.1672 110.277 74.3234 110.277Z" fill="#424242"/>
</g>
</g>
<path d="M220.589 155.856C215.897 154.275 211.205 156.288 210.067 160.313C208.93 164.194 211.631 168.65 216.323 170.231C221.016 171.813 225.708 169.8 226.845 165.775C227.983 161.75 225.281 157.294 220.589 155.856" fill="#4FD1D9"/>
<path d="M203.527 168.65C201.962 169.944 201.82 172.387 203.1 174.256C204.522 176.125 206.797 176.556 208.503 175.406C210.067 174.112 210.209 171.669 208.93 169.8C207.65 167.931 205.091 167.5 203.527 168.65Z" fill="#4FD1D9"/>
<path d="M282.156 119.631C282.156 115.75 280.308 112.3 277.606 110.144V109.281C277.606 103.244 272.914 98.2125 267.084 98.2125H265.947C263.672 94.3313 259.691 91.6 254.998 91.6C252.155 91.6 249.595 92.4625 247.605 94.0438C244.903 91.6 241.206 89.875 237.225 89.875C230.684 89.875 225.139 94.3312 223.291 100.512C221.158 98.9312 218.456 98.0687 215.612 98.0687C208.077 98.0687 201.962 104.394 201.962 112.156C201.962 114.456 202.531 116.613 203.384 118.625C199.403 121.5 196.844 126.244 196.844 131.706C196.844 140.619 203.811 147.806 212.342 147.806C215.47 147.806 218.456 146.8 220.873 145.219C222.153 151.975 227.983 157.15 234.95 157.15C240.069 157.15 244.619 154.275 247.178 150.106C248.884 151.831 251.302 152.981 254.003 152.981C258.98 152.981 263.103 148.956 263.53 143.925C264.667 144.356 265.947 144.644 267.227 144.644C273.341 144.644 278.317 139.469 278.317 133.144C278.317 131.85 278.033 130.556 277.748 129.406C280.308 126.962 282.156 123.513 282.156 119.631Z" fill="#4FD1D9"/>
<path d="M271.592 107.152C274.841 106.069 278.089 107.447 278.877 110.203C279.664 112.861 277.794 115.913 274.545 116.995C271.297 118.078 268.048 116.7 267.261 113.944C266.473 111.188 268.344 108.136 271.592 107.152" fill="#177E85"/>
<path d="M283.405 115.912C284.488 116.798 284.586 118.472 283.7 119.752C282.716 121.031 281.141 121.327 279.959 120.539C278.877 119.653 278.778 117.98 279.664 116.7C280.55 115.42 282.322 115.125 283.405 115.912Z" fill="#177E85"/>
<path d="M228.969 82.3453C228.969 79.6875 230.248 77.325 232.119 75.8484V75.2578C232.119 71.1234 235.367 67.6781 239.403 67.6781H240.191C241.766 65.0203 244.522 63.15 247.77 63.15C249.739 63.15 251.511 63.7406 252.889 64.8234C254.759 63.15 257.319 61.9688 260.075 61.9688C264.603 61.9688 268.442 65.0203 269.722 69.2531C271.198 68.1703 273.069 67.5797 275.038 67.5797C280.255 67.5797 284.488 71.9109 284.488 77.2266C284.488 78.8016 284.094 80.2781 283.503 81.6562C286.259 83.625 288.031 86.8734 288.031 90.6141C288.031 96.7172 283.208 101.639 277.302 101.639C275.136 101.639 273.069 100.95 271.395 99.8672C270.509 104.494 266.473 108.037 261.65 108.037C258.106 108.037 254.956 106.069 253.184 103.214C252.003 104.395 250.33 105.183 248.459 105.183C245.014 105.183 242.159 102.427 241.864 98.9812C241.077 99.2766 240.191 99.4734 239.305 99.4734C235.072 99.4734 231.627 95.9297 231.627 91.5984C231.627 90.7125 231.823 89.8266 232.02 89.0391C230.248 87.3656 228.969 85.0031 228.969 82.3453Z" fill="#177E85"/>
<path d="M250.519 72.6922C248.663 72.0563 246.806 72.8656 246.356 74.4844C245.906 76.0453 246.975 77.8375 248.831 78.4735C250.688 79.1094 252.544 78.3 252.994 76.6813C253.444 75.0625 252.375 73.2703 250.519 72.6922" fill="#90CAF9"/>
<path d="M243.769 77.8375C243.15 78.3578 243.094 79.3406 243.6 80.0922C244.163 80.8437 245.063 81.0172 245.738 80.5547C246.356 80.0344 246.413 79.0516 245.906 78.3C245.4 77.5484 244.388 77.375 243.769 77.8375Z" fill="#90CAF9"/>
<path d="M274.875 58.1234C274.875 56.5625 274.144 55.175 273.075 54.3078V53.9609C273.075 51.5328 271.219 49.5094 268.913 49.5094H268.462C267.562 47.9484 265.988 46.85 264.131 46.85C263.006 46.85 261.994 47.1969 261.206 47.8328C260.138 46.85 258.675 46.1562 257.1 46.1562C254.512 46.1562 252.319 47.9484 251.588 50.4344C250.744 49.7984 249.675 49.4516 248.55 49.4516C245.569 49.4516 243.15 51.9953 243.15 55.1172C243.15 56.0422 243.375 56.9094 243.712 57.7188C242.137 58.875 241.125 60.7828 241.125 62.9797C241.125 66.5641 243.881 69.4547 247.256 69.4547C248.494 69.4547 249.675 69.05 250.631 68.4141C251.137 71.1312 253.444 73.2125 256.2 73.2125C258.225 73.2125 260.025 72.0563 261.038 70.3797C261.713 71.0734 262.669 71.5359 263.738 71.5359C265.706 71.5359 267.338 69.9172 267.506 67.8937C267.956 68.0672 268.463 68.1828 268.969 68.1828C271.388 68.1828 273.356 66.1016 273.356 63.5578C273.356 63.0375 273.244 62.5172 273.131 62.0547C274.144 61.0719 274.875 59.6844 274.875 58.1234Z" fill="#90CAF9"/>
<g clip-path="url(#clip2)">
<path d="M443.367 138.493C443.367 142.645 439.616 146 434.982 146H381.481C376.851 146 373.096 142.644 373.096 138.493V70.8013C373.096 66.6625 376.855 63.291 381.481 63.291H434.982C439.619 63.291 443.367 66.657 443.367 70.8013V138.493Z" fill="#D0D1D2"/>
<path d="M443.367 133.196C443.367 137.349 439.616 140.708 434.982 140.708H381.481C376.851 140.708 373.096 137.346 373.096 133.196V65.5048C373.096 61.366 376.855 57.9986 381.481 57.9986H434.982C439.619 57.9986 443.367 61.3619 443.367 65.5048V133.196" fill="#E7E6E6"/>
<path d="M383.669 76.194H431.27C434.47 76.194 434.47 71.7555 431.27 71.7555H383.669C380.473 71.7555 380.473 76.194 383.669 76.194Z" fill="#35494D"/>
<path d="M383.669 85.2016H431.27C434.47 85.2016 434.47 80.7686 431.27 80.7686H383.669C380.473 80.7686 380.473 85.2016 383.669 85.2016Z" fill="#35494D"/>
<path d="M383.669 94.4127H431.27C434.47 94.4127 434.47 89.9797 431.27 89.9797H383.669C380.473 89.9797 380.473 94.4127 383.669 94.4127Z" fill="#35494D"/>
<path d="M383.669 103.416H431.27C434.47 103.416 434.47 98.9791 431.27 98.9791H383.669C380.473 98.9791 380.473 103.416 383.669 103.416Z" fill="#35494D"/>
<path d="M383.669 136H405.571C408.771 136 408.771 131.56 405.571 131.56H383.669C380.473 131.56 380.473 136 383.669 136Z" fill="#35494D"/>
</g>
<path d="M183.707 106.707C184.098 106.317 184.098 105.683 183.707 105.293L177.343 98.9289C176.953 98.5384 176.319 98.5384 175.929 98.9289C175.538 99.3195 175.538 99.9526 175.929 100.343L181.586 106L175.929 111.657C175.538 112.047 175.538 112.681 175.929 113.071C176.319 113.462 176.953 113.462 177.343 113.071L183.707 106.707ZM133 107H183V105H133V107Z" fill="black"/>
<path d="M357.707 106.707C358.098 106.317 358.098 105.683 357.707 105.293L351.343 98.9289C350.953 98.5384 350.319 98.5384 349.929 98.9289C349.538 99.3195 349.538 99.9526 349.929 100.343L355.586 106L349.929 111.657C349.538 112.047 349.538 112.681 349.929 113.071C350.319 113.462 350.953 113.462 351.343 113.071L357.707 106.707ZM308 107H357V105H308V107Z" fill="black"/>
<rect y="206" width="500" height="125" fill="white"/>
<path d="M49.496 239L44.438 232.664L49.19 226.49H50.954L46.094 232.574V232.682L51.422 239H49.496ZM44.42 226.49V239H42.89L42.98 232.646L42.89 226.49H44.42ZM54.5203 239H53.0263V225.446H54.5203V239ZM63.6228 228.524H65.1168V239H64.1088L63.9288 237.992H63.8388C63.8268 237.992 63.6408 238.094 63.2808 238.298C62.9328 238.49 62.6448 238.64 62.4168 238.748C61.6848 239.072 60.9948 239.234 60.3468 239.234C58.5948 239.234 57.7188 237.986 57.7188 235.49V228.524H59.2128V234.968C59.2128 236.348 59.2908 237.176 59.4468 237.452C59.6148 237.716 60.0048 237.848 60.6168 237.848C61.2408 237.848 62.2428 237.53 63.6228 236.894V228.524ZM70.4197 229.136H72.5077V230.342H70.4197V235.778C70.4197 236.786 70.4677 237.392 70.5637 237.596C70.6717 237.8 70.9897 237.902 71.5177 237.902L72.4897 237.866V239.072C72.2377 239.132 71.9017 239.162 71.4817 239.162C70.6177 239.162 69.9757 238.928 69.5557 238.46C69.1357 237.98 68.9257 237.05 68.9257 235.67V230.306H67.7377V229.37L68.9797 229.118L69.3757 226.67H70.4197V229.136ZM78.9204 239.234C76.1364 239.234 74.7444 237.41 74.7444 233.762C74.7444 230.114 76.1244 228.29 78.8844 228.29C80.1084 228.29 81.0264 228.674 81.6384 229.442C82.2504 230.198 82.5564 231.458 82.5564 233.222V234.338H76.3284C76.3284 235.958 76.5864 237.008 77.1024 237.488C77.4264 237.776 77.8704 237.92 78.4344 237.92C79.4424 237.92 80.4324 237.752 81.4044 237.416L81.8904 237.236L82.2684 238.46C81.2604 238.976 80.1444 239.234 78.9204 239.234ZM80.6124 230.126C80.3724 229.766 79.7844 229.586 78.8484 229.586C77.9124 229.586 77.2584 229.832 76.8864 230.324C76.5144 230.816 76.3284 231.758 76.3284 233.15L81.0264 233.06C81.0264 231.56 80.8884 230.582 80.6124 230.126ZM90.8064 229.982C89.8584 229.718 88.9644 229.586 88.1244 229.586C87.2844 229.586 86.7444 229.676 86.5044 229.856C86.2644 230.036 86.1444 230.384 86.1444 230.9C86.1444 231.356 86.2284 231.674 86.3964 231.854C86.5764 232.022 86.7144 232.148 86.8104 232.232C86.9064 232.316 87.0684 232.406 87.2964 232.502C87.5244 232.586 87.6924 232.646 87.8004 232.682C88.2444 232.814 88.6464 232.928 89.0064 233.024C89.8104 233.252 90.4344 233.576 90.8784 233.996C91.3224 234.416 91.5444 235.1 91.5444 236.048C91.5444 236.984 91.2444 237.752 90.6444 238.352C90.0564 238.94 89.2224 239.234 88.1424 239.234C87.6144 239.234 87.0624 239.162 86.4864 239.018C85.9224 238.874 85.3344 238.658 84.7224 238.37L85.1004 237.092C86.1924 237.656 87.2964 237.938 88.4124 237.938C88.9524 237.938 89.3364 237.842 89.5644 237.65C89.9124 237.35 90.0864 236.882 90.0864 236.246C90.0864 235.454 89.7204 234.896 88.9884 234.572C88.7004 234.44 88.2984 234.302 87.7824 234.158C87.2664 234.002 86.9124 233.894 86.7204 233.834C86.5404 233.774 86.2944 233.666 85.9824 233.51C85.6824 233.342 85.4604 233.168 85.3164 232.988C84.9324 232.508 84.7404 231.89 84.7404 231.134C84.7404 229.238 85.8804 228.29 88.1604 228.29C89.2164 228.29 90.1764 228.434 91.0404 228.722L90.8064 229.982ZM100.199 229.136H102.485V230.342H100.199V239H98.7048V230.288H97.5348V229.37L98.7048 229.136C98.7528 227.696 99.0408 226.682 99.5688 226.094C100.097 225.506 100.841 225.212 101.801 225.212L102.809 225.248L102.701 226.508C102.089 226.484 101.645 226.472 101.369 226.472C101.093 226.472 100.871 226.52 100.703 226.616C100.367 226.832 100.199 227.672 100.199 229.136ZM103.977 233.78C103.977 231.98 104.271 230.618 104.859 229.694C105.459 228.758 106.467 228.29 107.883 228.29C109.311 228.29 110.325 228.758 110.925 229.694C111.525 230.618 111.825 231.974 111.825 233.762C111.825 235.55 111.525 236.912 110.925 237.848C110.325 238.772 109.311 239.234 107.883 239.234C106.467 239.234 105.459 238.772 104.859 237.848C104.271 236.924 103.977 235.568 103.977 233.78ZM109.341 229.892C109.029 229.688 108.549 229.586 107.901 229.586C107.253 229.586 106.767 229.688 106.443 229.892C106.131 230.096 105.891 230.498 105.723 231.098C105.567 231.686 105.489 232.574 105.489 233.762C105.489 234.95 105.567 235.844 105.723 236.444C105.879 237.044 106.119 237.446 106.443 237.65C106.767 237.854 107.253 237.956 107.901 237.956C108.549 237.956 109.029 237.854 109.341 237.65C109.665 237.446 109.905 237.044 110.061 236.444C110.217 235.844 110.295 234.95 110.295 233.762C110.295 232.574 110.217 231.686 110.061 231.098C109.905 230.498 109.665 230.096 109.341 229.892ZM119.712 229.82C119.436 229.796 119.136 229.784 118.812 229.784C118.5 229.784 118.092 229.88 117.588 230.072C117.084 230.264 116.688 230.474 116.4 230.702V239H114.906V228.524H115.86L116.058 229.586H116.166C116.658 229.226 117.18 228.92 117.732 228.668C118.284 228.416 118.74 228.29 119.1 228.29L119.838 228.38L119.712 229.82ZM126.122 239V226.49H127.634L127.544 237.65L132.062 237.614V239H126.122ZM135.668 239H134.174V228.524H135.668V239ZM135.848 226.976H134.012V225.446H135.848V226.976ZM141.138 229.136H143.424V230.342H141.138V239H139.644V230.288H138.474V229.37L139.644 229.136C139.692 227.696 139.98 226.682 140.508 226.094C141.036 225.506 141.78 225.212 142.74 225.212L143.748 225.248L143.64 226.508C143.028 226.484 142.584 226.472 142.308 226.472C142.032 226.472 141.81 226.52 141.642 226.616C141.306 226.832 141.138 227.672 141.138 229.136ZM149.092 239.234C146.308 239.234 144.916 237.41 144.916 233.762C144.916 230.114 146.296 228.29 149.056 228.29C150.28 228.29 151.198 228.674 151.81 229.442C152.422 230.198 152.728 231.458 152.728 233.222V234.338H146.5C146.5 235.958 146.758 237.008 147.274 237.488C147.598 237.776 148.042 237.92 148.606 237.92C149.614 237.92 150.604 237.752 151.576 237.416L152.062 237.236L152.44 238.46C151.432 238.976 150.316 239.234 149.092 239.234ZM150.784 230.126C150.544 229.766 149.956 229.586 149.02 229.586C148.084 229.586 147.43 229.832 147.058 230.324C146.686 230.816 146.5 231.758 146.5 233.15L151.198 233.06C151.198 231.56 151.06 230.582 150.784 230.126ZM161.349 239H159.855V228.524H161.349V239ZM161.529 226.976H159.693V225.446H161.529V226.976ZM170.33 229.982C169.382 229.718 168.488 229.586 167.648 229.586C166.808 229.586 166.268 229.676 166.028 229.856C165.788 230.036 165.668 230.384 165.668 230.9C165.668 231.356 165.752 231.674 165.92 231.854C166.1 232.022 166.238 232.148 166.334 232.232C166.43 232.316 166.592 232.406 166.82 232.502C167.048 232.586 167.216 232.646 167.324 232.682C167.768 232.814 168.17 232.928 168.53 233.024C169.334 233.252 169.958 233.576 170.402 233.996C170.846 234.416 171.068 235.1 171.068 236.048C171.068 236.984 170.768 237.752 170.168 238.352C169.58 238.94 168.746 239.234 167.666 239.234C167.138 239.234 166.586 239.162 166.01 239.018C165.446 238.874 164.858 238.658 164.246 238.37L164.624 237.092C165.716 237.656 166.82 237.938 167.936 237.938C168.476 237.938 168.86 237.842 169.088 237.65C169.436 237.35 169.61 236.882 169.61 236.246C169.61 235.454 169.244 234.896 168.512 234.572C168.224 234.44 167.822 234.302 167.306 234.158C166.79 234.002 166.436 233.894 166.244 233.834C166.064 233.774 165.818 233.666 165.506 233.51C165.206 233.342 164.984 233.168 164.84 232.988C164.456 232.508 164.264 231.89 164.264 231.134C164.264 229.238 165.404 228.29 167.684 228.29C168.74 228.29 169.7 228.434 170.564 228.722L170.33 229.982ZM181.27 232.556H183.178C183.178 231.152 183.07 230.306 182.854 230.018C182.65 229.73 182.266 229.586 181.702 229.586C181.138 229.586 180.538 229.664 179.902 229.82C179.278 229.964 178.606 230.186 177.886 230.486L177.364 229.316C177.52 229.244 177.724 229.154 177.976 229.046C178.24 228.926 178.726 228.77 179.434 228.578C180.142 228.386 180.79 228.29 181.378 228.29C183.574 228.29 184.672 229.562 184.672 232.106V239H183.7L183.484 237.902H183.376C183.256 237.998 183.088 238.124 182.872 238.28C182.656 238.424 182.248 238.622 181.648 238.874C181.048 239.114 180.484 239.234 179.956 239.234C179.104 239.234 178.42 238.946 177.904 238.37C177.388 237.782 177.13 236.924 177.13 235.796C177.13 234.656 177.484 233.834 178.192 233.33C178.9 232.814 179.926 232.556 181.27 232.556ZM183.178 233.942C182.662 233.858 181.93 233.816 180.982 233.816C180.046 233.816 179.446 233.93 179.182 234.158C178.858 234.41 178.696 234.944 178.696 235.76C178.696 236.564 178.81 237.122 179.038 237.434C179.278 237.746 179.632 237.902 180.1 237.902C180.58 237.902 181.066 237.824 181.558 237.668C182.05 237.5 182.59 237.254 183.178 236.93V233.942ZM189.503 239H188.009V225.446H189.503V239ZM198.191 229.982C197.243 229.718 196.349 229.586 195.509 229.586C194.669 229.586 194.129 229.676 193.889 229.856C193.649 230.036 193.529 230.384 193.529 230.9C193.529 231.356 193.613 231.674 193.781 231.854C193.961 232.022 194.099 232.148 194.195 232.232C194.291 232.316 194.453 232.406 194.681 232.502C194.909 232.586 195.077 232.646 195.185 232.682C195.629 232.814 196.031 232.928 196.391 233.024C197.195 233.252 197.819 233.576 198.263 233.996C198.707 234.416 198.929 235.1 198.929 236.048C198.929 236.984 198.629 237.752 198.029 238.352C197.441 238.94 196.607 239.234 195.527 239.234C194.999 239.234 194.447 239.162 193.871 239.018C193.307 238.874 192.719 238.658 192.107 238.37L192.485 237.092C193.577 237.656 194.681 237.938 195.797 237.938C196.337 237.938 196.721 237.842 196.949 237.65C197.297 237.35 197.471 236.882 197.471 236.246C197.471 235.454 197.105 234.896 196.373 234.572C196.085 234.44 195.683 234.302 195.167 234.158C194.651 234.002 194.297 233.894 194.105 233.834C193.925 233.774 193.679 233.666 193.367 233.51C193.067 233.342 192.845 233.168 192.701 232.988C192.317 232.508 192.125 231.89 192.125 231.134C192.125 229.238 193.265 228.29 195.545 228.29C196.601 228.29 197.561 228.434 198.425 228.722L198.191 229.982ZM201.237 233.78C201.237 231.98 201.531 230.618 202.119 229.694C202.719 228.758 203.727 228.29 205.143 228.29C206.571 228.29 207.585 228.758 208.185 229.694C208.785 230.618 209.085 231.974 209.085 233.762C209.085 235.55 208.785 236.912 208.185 237.848C207.585 238.772 206.571 239.234 205.143 239.234C203.727 239.234 202.719 238.772 202.119 237.848C201.531 236.924 201.237 235.568 201.237 233.78ZM206.601 229.892C206.289 229.688 205.809 229.586 205.161 229.586C204.513 229.586 204.027 229.688 203.703 229.892C203.391 230.096 203.151 230.498 202.983 231.098C202.827 231.686 202.749 232.574 202.749 233.762C202.749 234.95 202.827 235.844 202.983 236.444C203.139 237.044 203.379 237.446 203.703 237.65C204.027 237.854 204.513 237.956 205.161 237.956C205.809 237.956 206.289 237.854 206.601 237.65C206.925 237.446 207.165 237.044 207.321 236.444C207.477 235.844 207.555 234.95 207.555 233.762C207.555 232.574 207.477 231.686 207.321 231.098C207.165 230.498 206.925 230.096 206.601 229.892ZM219.503 232.556H221.411C221.411 231.152 221.303 230.306 221.087 230.018C220.883 229.73 220.499 229.586 219.935 229.586C219.371 229.586 218.771 229.664 218.135 229.82C217.511 229.964 216.839 230.186 216.119 230.486L215.597 229.316C215.753 229.244 215.957 229.154 216.209 229.046C216.473 228.926 216.959 228.77 217.667 228.578C218.375 228.386 219.023 228.29 219.611 228.29C221.807 228.29 222.905 229.562 222.905 232.106V239H221.933L221.717 237.902H221.609C221.489 237.998 221.321 238.124 221.105 238.28C220.889 238.424 220.481 238.622 219.881 238.874C219.281 239.114 218.717 239.234 218.189 239.234C217.337 239.234 216.653 238.946 216.137 238.37C215.621 237.782 215.363 236.924 215.363 235.796C215.363 234.656 215.717 233.834 216.425 233.33C217.133 232.814 218.159 232.556 219.503 232.556ZM221.411 233.942C220.895 233.858 220.163 233.816 219.215 233.816C218.279 233.816 217.679 233.93 217.415 234.158C217.091 234.41 216.929 234.944 216.929 235.76C216.929 236.564 217.043 237.122 217.271 237.434C217.511 237.746 217.865 237.902 218.333 237.902C218.813 237.902 219.299 237.824 219.791 237.668C220.283 237.5 220.823 237.254 221.411 236.93V233.942ZM231.688 239H230.194V225.446H231.688V229.172C233.044 228.584 234.1 228.29 234.856 228.29C235.876 228.29 236.584 228.596 236.98 229.208C237.388 229.808 237.592 230.75 237.592 232.034V239H236.098V232.556C236.098 231.248 235.978 230.42 235.738 230.072C235.558 229.82 235.24 229.694 234.784 229.694C233.92 229.694 233.038 229.88 232.138 230.252L231.688 230.45V239ZM244.612 239.234C241.828 239.234 240.436 237.41 240.436 233.762C240.436 230.114 241.816 228.29 244.576 228.29C245.8 228.29 246.718 228.674 247.33 229.442C247.942 230.198 248.248 231.458 248.248 233.222V234.338H242.02C242.02 235.958 242.278 237.008 242.794 237.488C243.118 237.776 243.562 237.92 244.126 237.92C245.134 237.92 246.124 237.752 247.096 237.416L247.582 237.236L247.96 238.46C246.952 238.976 245.836 239.234 244.612 239.234ZM246.304 230.126C246.064 229.766 245.476 229.586 244.54 229.586C243.604 229.586 242.95 229.832 242.578 230.324C242.206 230.816 242.02 231.758 242.02 233.15L246.718 233.06C246.718 231.56 246.58 230.582 246.304 230.126ZM252.538 239H251.044V225.446H252.538V239ZM257.176 241.988H255.682V228.524H256.69L256.888 229.586H256.978C257.002 229.574 257.134 229.484 257.374 229.316C257.614 229.148 257.842 228.998 258.058 228.866C258.286 228.734 258.592 228.608 258.976 228.488C259.36 228.356 259.738 228.29 260.11 228.29C261.118 228.29 261.898 228.722 262.45 229.586C263.002 230.45 263.278 231.776 263.278 233.564C263.278 237.344 262.012 239.234 259.48 239.234C258.928 239.234 258.16 239.15 257.176 238.982V241.988ZM257.176 237.542C258.196 237.794 259.006 237.92 259.606 237.92C260.206 237.92 260.62 237.824 260.848 237.632C261.412 237.164 261.694 235.712 261.694 233.276C261.694 231.404 261.52 230.294 261.172 229.946C260.968 229.742 260.644 229.64 260.2 229.64C259.756 229.64 259.282 229.724 258.778 229.892C258.286 230.048 257.752 230.288 257.176 230.612V237.542ZM267.943 239H266.449V228.524H267.943V239ZM268.123 226.976H266.287V225.446H268.123V226.976ZM273.162 239H271.668V228.524H272.676L272.838 229.55H272.928C274.368 228.71 275.616 228.29 276.672 228.29C277.62 228.29 278.274 228.656 278.634 229.388C278.934 230 279.084 230.882 279.084 232.034V239H277.572V232.556C277.572 231.188 277.482 230.372 277.302 230.108C277.134 229.844 276.81 229.712 276.33 229.712C275.418 229.712 274.362 230.03 273.162 230.666V239ZM288.868 232.07C288.868 233.126 288.526 233.984 287.842 234.644C287.17 235.292 286.246 235.616 285.07 235.616C284.95 236.324 284.89 236.702 284.89 236.75C284.89 236.786 285.016 236.858 285.268 236.966C285.532 237.074 285.7 237.14 285.772 237.164C286.132 237.32 286.378 237.428 286.51 237.488C287.482 237.896 288.154 238.298 288.526 238.694C288.91 239.09 289.102 239.504 289.102 239.936C289.102 240.656 288.748 241.214 288.04 241.61C287.332 242.018 286.39 242.222 285.214 242.222C284.638 242.222 284.062 242.18 283.486 242.096C282.91 242.024 282.334 241.904 281.758 241.736L281.938 240.386C283.666 240.686 284.944 240.836 285.772 240.836C286.612 240.836 287.152 240.782 287.392 240.674C287.632 240.578 287.752 240.404 287.752 240.152C287.752 239.9 287.614 239.678 287.338 239.486C286.954 239.222 286.18 238.856 285.016 238.388C283.864 237.908 283.288 237.638 283.288 237.578L284.134 235.508C283.318 235.316 282.676 234.914 282.208 234.302C281.74 233.69 281.506 232.964 281.506 232.124C281.506 230.756 281.884 229.778 282.64 229.19C283.408 228.59 284.41 228.29 285.646 228.29C286.378 228.29 287.644 228.362 289.444 228.506V229.46L288.256 229.64C288.664 230.54 288.868 231.35 288.868 232.07ZM285.358 229.622C284.482 229.622 283.864 229.79 283.504 230.126C283.144 230.45 282.964 231.062 282.964 231.962C282.964 232.862 283.126 233.474 283.45 233.798C283.786 234.122 284.362 234.284 285.178 234.284C286.006 234.284 286.588 234.128 286.924 233.816C287.26 233.492 287.428 232.898 287.428 232.034C287.428 231.194 287.38 230.612 287.284 230.288C287.188 229.952 287.116 229.772 287.068 229.748C286.996 229.688 286.426 229.646 285.358 229.622ZM297.114 239H295.62V225.446H297.114V229.172C298.47 228.584 299.526 228.29 300.282 228.29C301.302 228.29 302.01 228.596 302.406 229.208C302.814 229.808 303.018 230.75 303.018 232.034V239H301.524V232.556C301.524 231.248 301.404 230.42 301.164 230.072C300.984 229.82 300.666 229.694 300.21 229.694C299.346 229.694 298.464 229.88 297.564 230.252L297.114 230.45V239ZM309.714 232.556H311.622C311.622 231.152 311.514 230.306 311.298 230.018C311.094 229.73 310.71 229.586 310.146 229.586C309.582 229.586 308.982 229.664 308.346 229.82C307.722 229.964 307.05 230.186 306.33 230.486L305.808 229.316C305.964 229.244 306.168 229.154 306.42 229.046C306.684 228.926 307.17 228.77 307.878 228.578C308.586 228.386 309.234 228.29 309.822 228.29C312.018 228.29 313.116 229.562 313.116 232.106V239H312.144L311.928 237.902H311.82C311.7 237.998 311.532 238.124 311.316 238.28C311.1 238.424 310.692 238.622 310.092 238.874C309.492 239.114 308.928 239.234 308.4 239.234C307.548 239.234 306.864 238.946 306.348 238.37C305.832 237.782 305.574 236.924 305.574 235.796C305.574 234.656 305.928 233.834 306.636 233.33C307.344 232.814 308.37 232.556 309.714 232.556ZM311.622 233.942C311.106 233.858 310.374 233.816 309.426 233.816C308.49 233.816 307.89 233.93 307.626 234.158C307.302 234.41 307.14 234.944 307.14 235.76C307.14 236.564 307.254 237.122 307.482 237.434C307.722 237.746 308.076 237.902 308.544 237.902C309.024 237.902 309.51 237.824 310.002 237.668C310.494 237.5 311.034 237.254 311.622 236.93V233.942ZM318.144 239H316.65V228.524H317.658L317.82 229.55H317.91C319.35 228.71 320.598 228.29 321.654 228.29C322.602 228.29 323.256 228.656 323.616 229.388C323.916 230 324.066 230.882 324.066 232.034V239H322.554V232.556C322.554 231.188 322.464 230.372 322.284 230.108C322.116 229.844 321.792 229.712 321.312 229.712C320.4 229.712 319.344 230.03 318.144 230.666V239ZM334.481 225.446V239H333.491L333.293 237.92H333.185C333.089 238.016 332.951 238.136 332.771 238.28C332.591 238.424 332.237 238.622 331.709 238.874C331.193 239.114 330.695 239.234 330.215 239.234C329.195 239.234 328.385 238.796 327.785 237.92C327.197 237.032 326.903 235.712 326.903 233.96C326.903 230.18 328.145 228.29 330.629 228.29C331.265 228.29 332.051 228.416 332.987 228.668V225.446H334.481ZM332.987 230.108C332.219 229.784 331.439 229.622 330.647 229.622C329.867 229.622 329.357 229.766 329.117 230.054C328.685 230.618 328.469 231.926 328.469 233.978C328.469 236.018 328.739 237.248 329.279 237.668C329.435 237.812 329.735 237.884 330.179 237.884C330.635 237.884 331.085 237.806 331.529 237.65C331.985 237.494 332.471 237.26 332.987 236.948V230.108ZM343.169 241.988H341.675V228.524H342.683L342.881 229.586H342.971C342.995 229.574 343.127 229.484 343.367 229.316C343.607 229.148 343.835 228.998 344.051 228.866C344.279 228.734 344.585 228.608 344.969 228.488C345.353 228.356 345.731 228.29 346.103 228.29C347.111 228.29 347.891 228.722 348.443 229.586C348.995 230.45 349.271 231.776 349.271 233.564C349.271 237.344 348.005 239.234 345.473 239.234C344.921 239.234 344.153 239.15 343.169 238.982V241.988ZM343.169 237.542C344.189 237.794 344.999 237.92 345.599 237.92C346.199 237.92 346.613 237.824 346.841 237.632C347.405 237.164 347.687 235.712 347.687 233.276C347.687 231.404 347.513 230.294 347.165 229.946C346.961 229.742 346.637 229.64 346.193 229.64C345.749 229.64 345.275 229.724 344.771 229.892C344.279 230.048 343.745 230.288 343.169 230.612V237.542ZM357.157 229.82C356.881 229.796 356.581 229.784 356.257 229.784C355.945 229.784 355.537 229.88 355.033 230.072C354.529 230.264 354.133 230.474 353.845 230.702V239H352.351V228.524H353.305L353.503 229.586H353.611C354.103 229.226 354.625 228.92 355.177 228.668C355.729 228.416 356.185 228.29 356.545 228.29L357.283 228.38L357.157 229.82ZM358.895 233.78C358.895 231.98 359.189 230.618 359.777 229.694C360.377 228.758 361.385 228.29 362.801 228.29C364.229 228.29 365.243 228.758 365.843 229.694C366.443 230.618 366.743 231.974 366.743 233.762C366.743 235.55 366.443 236.912 365.843 237.848C365.243 238.772 364.229 239.234 362.801 239.234C361.385 239.234 360.377 238.772 359.777 237.848C359.189 236.924 358.895 235.568 358.895 233.78ZM364.259 229.892C363.947 229.688 363.467 229.586 362.819 229.586C362.171 229.586 361.685 229.688 361.361 229.892C361.049 230.096 360.809 230.498 360.641 231.098C360.485 231.686 360.407 232.574 360.407 233.762C360.407 234.95 360.485 235.844 360.641 236.444C360.797 237.044 361.037 237.446 361.361 237.65C361.685 237.854 362.171 237.956 362.819 237.956C363.467 237.956 363.947 237.854 364.259 237.65C364.583 237.446 364.823 237.044 364.979 236.444C365.135 235.844 365.213 234.95 365.213 233.762C365.213 232.574 365.135 231.686 364.979 231.098C364.823 230.498 364.583 230.096 364.259 229.892ZM376.268 228.524L373.154 239H371.3L368.258 228.524H369.878L372.182 237.776H372.29L374.648 228.524H376.268ZM379.933 239H378.439V228.524H379.933V239ZM380.113 226.976H378.277V225.446H380.113V226.976ZM390.678 225.446V239H389.688L389.49 237.92H389.382C389.286 238.016 389.148 238.136 388.968 238.28C388.788 238.424 388.434 238.622 387.906 238.874C387.39 239.114 386.892 239.234 386.412 239.234C385.392 239.234 384.582 238.796 383.982 237.92C383.394 237.032 383.1 235.712 383.1 233.96C383.1 230.18 384.342 228.29 386.826 228.29C387.462 228.29 388.248 228.416 389.184 228.668V225.446H390.678ZM389.184 230.108C388.416 229.784 387.636 229.622 386.844 229.622C386.064 229.622 385.554 229.766 385.314 230.054C384.882 230.618 384.666 231.926 384.666 233.978C384.666 236.018 384.936 237.248 385.476 237.668C385.632 237.812 385.932 237.884 386.376 237.884C386.832 237.884 387.282 237.806 387.726 237.65C388.182 237.494 388.668 237.26 389.184 236.948V230.108ZM395.701 239H394.207V228.524H395.701V239ZM395.881 226.976H394.045V225.446H395.881V226.976ZM400.919 239H399.425V228.524H400.433L400.595 229.55H400.685C402.125 228.71 403.373 228.29 404.429 228.29C405.377 228.29 406.031 228.656 406.391 229.388C406.691 230 406.841 230.882 406.841 232.034V239H405.329V232.556C405.329 231.188 405.239 230.372 405.059 230.108C404.891 229.844 404.567 229.712 404.087 229.712C403.175 229.712 402.119 230.03 400.919 230.666V239ZM416.626 232.07C416.626 233.126 416.284 233.984 415.6 234.644C414.928 235.292 414.004 235.616 412.828 235.616C412.708 236.324 412.648 236.702 412.648 236.75C412.648 236.786 412.774 236.858 413.026 236.966C413.29 237.074 413.458 237.14 413.53 237.164C413.89 237.32 414.136 237.428 414.268 237.488C415.24 237.896 415.912 238.298 416.284 238.694C416.668 239.09 416.86 239.504 416.86 239.936C416.86 240.656 416.506 241.214 415.798 241.61C415.09 242.018 414.148 242.222 412.972 242.222C412.396 242.222 411.82 242.18 411.244 242.096C410.668 242.024 410.092 241.904 409.516 241.736L409.696 240.386C411.424 240.686 412.702 240.836 413.53 240.836C414.37 240.836 414.91 240.782 415.15 240.674C415.39 240.578 415.51 240.404 415.51 240.152C415.51 239.9 415.372 239.678 415.096 239.486C414.712 239.222 413.938 238.856 412.774 238.388C411.622 237.908 411.046 237.638 411.046 237.578L411.892 235.508C411.076 235.316 410.434 234.914 409.966 234.302C409.498 233.69 409.264 232.964 409.264 232.124C409.264 230.756 409.642 229.778 410.398 229.19C411.166 228.59 412.168 228.29 413.404 228.29C414.136 228.29 415.402 228.362 417.202 228.506V229.46L416.014 229.64C416.422 230.54 416.626 231.35 416.626 232.07ZM413.116 229.622C412.24 229.622 411.622 229.79 411.262 230.126C410.902 230.45 410.722 231.062 410.722 231.962C410.722 232.862 410.884 233.474 411.208 233.798C411.544 234.122 412.12 234.284 412.936 234.284C413.764 234.284 414.346 234.128 414.682 233.816C415.018 233.492 415.186 232.898 415.186 232.034C415.186 231.194 415.138 230.612 415.042 230.288C414.946 229.952 414.874 229.772 414.826 229.748C414.754 229.688 414.184 229.646 413.116 229.622ZM428.922 229.982C427.974 229.718 427.08 229.586 426.24 229.586C425.4 229.586 424.86 229.676 424.62 229.856C424.38 230.036 424.26 230.384 424.26 230.9C424.26 231.356 424.344 231.674 424.512 231.854C424.692 232.022 424.83 232.148 424.926 232.232C425.022 232.316 425.184 232.406 425.412 232.502C425.64 232.586 425.808 232.646 425.916 232.682C426.36 232.814 426.762 232.928 427.122 233.024C427.926 233.252 428.55 233.576 428.994 233.996C429.438 234.416 429.66 235.1 429.66 236.048C429.66 236.984 429.36 237.752 428.76 238.352C428.172 238.94 427.338 239.234 426.258 239.234C425.73 239.234 425.178 239.162 424.602 239.018C424.038 238.874 423.45 238.658 422.838 238.37L423.216 237.092C424.308 237.656 425.412 237.938 426.528 237.938C427.068 237.938 427.452 237.842 427.68 237.65C428.028 237.35 428.202 236.882 428.202 236.246C428.202 235.454 427.836 234.896 427.104 234.572C426.816 234.44 426.414 234.302 425.898 234.158C425.382 234.002 425.028 233.894 424.836 233.834C424.656 233.774 424.41 233.666 424.098 233.51C423.798 233.342 423.576 233.168 423.432 232.988C423.048 232.508 422.856 231.89 422.856 231.134C422.856 229.238 423.996 228.29 426.276 228.29C427.332 228.29 428.292 228.434 429.156 228.722L428.922 229.982ZM433.731 241.988H432.237V228.524H433.245L433.443 229.586H433.533C433.557 229.574 433.689 229.484 433.929 229.316C434.169 229.148 434.397 228.998 434.613 228.866C434.841 228.734 435.147 228.608 435.531 228.488C435.915 228.356 436.293 228.29 436.665 228.29C437.673 228.29 438.453 228.722 439.005 229.586C439.557 230.45 439.833 231.776 439.833 233.564C439.833 237.344 438.567 239.234 436.035 239.234C435.483 239.234 434.715 239.15 433.731 238.982V241.988ZM433.731 237.542C434.751 237.794 435.561 237.92 436.161 237.92C436.761 237.92 437.175 237.824 437.403 237.632C437.967 237.164 438.249 235.712 438.249 233.276C438.249 231.404 438.075 230.294 437.727 229.946C437.523 229.742 437.199 229.64 436.755 229.64C436.311 229.64 435.837 229.724 435.333 229.892C434.841 230.048 434.307 230.288 433.731 230.612V237.542ZM446.208 232.556H448.116C448.116 231.152 448.008 230.306 447.792 230.018C447.588 229.73 447.204 229.586 446.64 229.586C446.076 229.586 445.476 229.664 444.84 229.82C444.216 229.964 443.544 230.186 442.824 230.486L442.302 229.316C442.458 229.244 442.662 229.154 442.914 229.046C443.178 228.926 443.664 228.77 444.372 228.578C445.08 228.386 445.728 228.29 446.316 228.29C448.512 228.29 449.61 229.562 449.61 232.106V239H448.638L448.422 237.902H448.314C448.194 237.998 448.026 238.124 447.81 238.28C447.594 238.424 447.186 238.622 446.586 238.874C445.986 239.114 445.422 239.234 444.894 239.234C444.042 239.234 443.358 238.946 442.842 238.37C442.326 237.782 442.068 236.924 442.068 235.796C442.068 234.656 442.422 233.834 443.13 233.33C443.838 232.814 444.864 232.556 446.208 232.556ZM448.116 233.942C447.6 233.858 446.868 233.816 445.92 233.816C444.984 233.816 444.384 233.93 444.12 234.158C443.796 234.41 443.634 234.944 443.634 235.76C443.634 236.564 443.748 237.122 443.976 237.434C444.216 237.746 444.57 237.902 445.038 237.902C445.518 237.902 446.004 237.824 446.496 237.668C446.988 237.5 447.528 237.254 448.116 236.93V233.942ZM456.816 229.604C455.904 229.604 455.292 229.76 454.98 230.072C454.74 230.336 454.542 230.81 454.386 231.494C454.23 232.166 454.152 232.946 454.152 233.834C454.152 235.85 454.536 237.122 455.304 237.65C455.568 237.842 455.916 237.938 456.348 237.938C456.792 237.938 457.266 237.872 457.77 237.74C458.286 237.596 458.844 237.386 459.444 237.11L459.912 238.28C459.816 238.352 459.678 238.442 459.498 238.55C459.33 238.658 458.964 238.802 458.4 238.982C457.848 239.15 457.29 239.234 456.726 239.234C455.43 239.234 454.416 238.79 453.684 237.902C452.952 237.002 452.586 235.586 452.586 233.654C452.586 231.71 452.988 230.33 453.792 229.514C454.596 228.698 455.7 228.29 457.104 228.29C458.016 228.29 458.868 228.386 459.66 228.578L459.48 229.838C458.184 229.682 457.296 229.604 456.816 229.604ZM466.079 239.234C463.295 239.234 461.903 237.41 461.903 233.762C461.903 230.114 463.283 228.29 466.043 228.29C467.267 228.29 468.185 228.674 468.797 229.442C469.409 230.198 469.715 231.458 469.715 233.222V234.338H463.487C463.487 235.958 463.745 237.008 464.261 237.488C464.585 237.776 465.029 237.92 465.593 237.92C466.601 237.92 467.591 237.752 468.563 237.416L469.049 237.236L469.427 238.46C468.419 238.976 467.303 239.234 466.079 239.234ZM467.771 230.126C467.531 229.766 466.943 229.586 466.007 229.586C465.071 229.586 464.417 229.832 464.045 230.324C463.673 230.816 463.487 231.758 463.487 233.15L468.185 233.06C468.185 231.56 468.047 230.582 467.771 230.126ZM44.492 251.136H46.58V252.342H44.492V257.778C44.492 258.786 44.54 259.392 44.636 259.596C44.744 259.8 45.062 259.902 45.59 259.902L46.562 259.866V261.072C46.31 261.132 45.974 261.162 45.554 261.162C44.69 261.162 44.048 260.928 43.628 260.46C43.208 259.98 42.998 259.05 42.998 257.67V252.306H41.81V251.37L43.052 251.118L43.448 248.67H44.492V251.136ZM48.8166 255.78C48.8166 253.98 49.1106 252.618 49.6986 251.694C50.2986 250.758 51.3066 250.29 52.7226 250.29C54.1506 250.29 55.1646 250.758 55.7646 251.694C56.3646 252.618 56.6646 253.974 56.6646 255.762C56.6646 257.55 56.3646 258.912 55.7646 259.848C55.1646 260.772 54.1506 261.234 52.7226 261.234C51.3066 261.234 50.2986 260.772 49.6986 259.848C49.1106 258.924 48.8166 257.568 48.8166 255.78ZM54.1806 251.892C53.8686 251.688 53.3886 251.586 52.7406 251.586C52.0926 251.586 51.6066 251.688 51.2826 251.892C50.9706 252.096 50.7306 252.498 50.5626 253.098C50.4066 253.686 50.3286 254.574 50.3286 255.762C50.3286 256.95 50.4066 257.844 50.5626 258.444C50.7186 259.044 50.9586 259.446 51.2826 259.65C51.6066 259.854 52.0926 259.956 52.7406 259.956C53.3886 259.956 53.8686 259.854 54.1806 259.65C54.5046 259.446 54.7446 259.044 54.9006 258.444C55.0566 257.844 55.1346 256.95 55.1346 255.762C55.1346 254.574 55.0566 253.686 54.9006 253.098C54.7446 252.498 54.5046 252.096 54.1806 251.892ZM69.4587 250.524H70.9527V261H69.9447L69.7647 259.992H69.6747C69.6627 259.992 69.4767 260.094 69.1167 260.298C68.7687 260.49 68.4807 260.64 68.2527 260.748C67.5207 261.072 66.8307 261.234 66.1827 261.234C64.4307 261.234 63.5547 259.986 63.5547 257.49V250.524H65.0487V256.968C65.0487 258.348 65.1267 259.176 65.2827 259.452C65.4507 259.716 65.8407 259.848 66.4527 259.848C67.0767 259.848 68.0787 259.53 69.4587 258.894V250.524ZM76.0757 261H74.5817V250.524H75.5897L75.7517 251.55H75.8417C77.2817 250.71 78.5297 250.29 79.5857 250.29C80.5337 250.29 81.1877 250.656 81.5477 251.388C81.8477 252 81.9977 252.882 81.9977 254.034V261H80.4857V254.556C80.4857 253.188 80.3957 252.372 80.2157 252.108C80.0477 251.844 79.7237 251.712 79.2437 251.712C78.3317 251.712 77.2757 252.03 76.0757 252.666V261ZM90.1982 251.82C89.9222 251.796 89.6222 251.784 89.2982 251.784C88.9862 251.784 88.5782 251.88 88.0742 252.072C87.5702 252.264 87.1742 252.474 86.8862 252.702V261H85.3922V250.524H86.3462L86.5442 251.586H86.6522C87.1442 251.226 87.6662 250.92 88.2182 250.668C88.7702 250.416 89.2262 250.29 89.5862 250.29L90.3242 250.38L90.1982 251.82ZM96.1118 261.234C93.3278 261.234 91.9358 259.41 91.9358 255.762C91.9358 252.114 93.3158 250.29 96.0758 250.29C97.2998 250.29 98.2178 250.674 98.8298 251.442C99.4418 252.198 99.7478 253.458 99.7478 255.222V256.338H93.5198C93.5198 257.958 93.7778 259.008 94.2938 259.488C94.6178 259.776 95.0618 259.92 95.6258 259.92C96.6338 259.92 97.6238 259.752 98.5958 259.416L99.0818 259.236L99.4598 260.46C98.4518 260.976 97.3358 261.234 96.1118 261.234ZM97.8038 252.126C97.5638 251.766 96.9758 251.586 96.0398 251.586C95.1038 251.586 94.4498 251.832 94.0778 252.324C93.7058 252.816 93.5198 253.758 93.5198 255.15L98.2178 255.06C98.2178 253.56 98.0798 252.582 97.8038 252.126ZM106.036 254.556H107.944C107.944 253.152 107.836 252.306 107.62 252.018C107.416 251.73 107.032 251.586 106.468 251.586C105.904 251.586 105.304 251.664 104.668 251.82C104.044 251.964 103.372 252.186 102.652 252.486L102.13 251.316C102.286 251.244 102.49 251.154 102.742 251.046C103.006 250.926 103.492 250.77 104.2 250.578C104.908 250.386 105.556 250.29 106.144 250.29C108.34 250.29 109.438 251.562 109.438 254.106V261H108.466L108.25 259.902H108.142C108.022 259.998 107.854 260.124 107.638 260.28C107.422 260.424 107.014 260.622 106.414 260.874C105.814 261.114 105.25 261.234 104.722 261.234C103.87 261.234 103.186 260.946 102.67 260.37C102.154 259.782 101.896 258.924 101.896 257.796C101.896 256.656 102.25 255.834 102.958 255.33C103.666 254.814 104.692 254.556 106.036 254.556ZM107.944 255.942C107.428 255.858 106.696 255.816 105.748 255.816C104.812 255.816 104.212 255.93 103.948 256.158C103.624 256.41 103.462 256.944 103.462 257.76C103.462 258.564 103.576 259.122 103.804 259.434C104.044 259.746 104.398 259.902 104.866 259.902C105.346 259.902 105.832 259.824 106.324 259.668C106.816 259.5 107.356 259.254 107.944 258.93V255.942ZM114.268 261H112.774V247.446H114.268V261ZM119.285 261H117.791V250.524H119.285V261ZM119.465 248.976H117.629V247.446H119.465V248.976ZM121.803 261V259.794L127.185 251.784V251.676L122.037 251.766V250.524H128.913V251.73L123.549 259.74V259.848L129.021 259.758V261H121.803ZM135.1 261.234C132.316 261.234 130.924 259.41 130.924 255.762C130.924 252.114 132.304 250.29 135.064 250.29C136.288 250.29 137.206 250.674 137.818 251.442C138.43 252.198 138.736 253.458 138.736 255.222V256.338H132.508C132.508 257.958 132.766 259.008 133.282 259.488C133.606 259.776 134.05 259.92 134.614 259.92C135.622 259.92 136.612 259.752 137.584 259.416L138.07 259.236L138.448 260.46C137.44 260.976 136.324 261.234 135.1 261.234ZM136.792 252.126C136.552 251.766 135.964 251.586 135.028 251.586C134.092 251.586 133.438 251.832 133.066 252.324C132.694 252.816 132.508 253.758 132.508 255.15L137.206 255.06C137.206 253.56 137.068 252.582 136.792 252.126ZM148.75 247.446V261H147.76L147.562 259.92H147.454C147.358 260.016 147.22 260.136 147.04 260.28C146.86 260.424 146.506 260.622 145.978 260.874C145.462 261.114 144.964 261.234 144.484 261.234C143.464 261.234 142.654 260.796 142.054 259.92C141.466 259.032 141.172 257.712 141.172 255.96C141.172 252.18 142.414 250.29 144.898 250.29C145.534 250.29 146.32 250.416 147.256 250.668V247.446H148.75ZM147.256 252.108C146.488 251.784 145.708 251.622 144.916 251.622C144.136 251.622 143.626 251.766 143.386 252.054C142.954 252.618 142.738 253.926 142.738 255.978C142.738 258.018 143.008 259.248 143.548 259.668C143.704 259.812 144.004 259.884 144.448 259.884C144.904 259.884 145.354 259.806 145.798 259.65C146.254 259.494 146.74 259.26 147.256 258.948V252.108ZM159.526 254.556H161.434C161.434 253.152 161.326 252.306 161.11 252.018C160.906 251.73 160.522 251.586 159.958 251.586C159.394 251.586 158.794 251.664 158.158 251.82C157.534 251.964 156.862 252.186 156.142 252.486L155.62 251.316C155.776 251.244 155.98 251.154 156.232 251.046C156.496 250.926 156.982 250.77 157.69 250.578C158.398 250.386 159.046 250.29 159.634 250.29C161.83 250.29 162.928 251.562 162.928 254.106V261H161.956L161.74 259.902H161.632C161.512 259.998 161.344 260.124 161.128 260.28C160.912 260.424 160.504 260.622 159.904 260.874C159.304 261.114 158.74 261.234 158.212 261.234C157.36 261.234 156.676 260.946 156.16 260.37C155.644 259.782 155.386 258.924 155.386 257.796C155.386 256.656 155.74 255.834 156.448 255.33C157.156 254.814 158.182 254.556 159.526 254.556ZM161.434 255.942C160.918 255.858 160.186 255.816 159.238 255.816C158.302 255.816 157.702 255.93 157.438 256.158C157.114 256.41 156.952 256.944 156.952 257.76C156.952 258.564 157.066 259.122 157.294 259.434C157.534 259.746 157.888 259.902 158.356 259.902C158.836 259.902 159.322 259.824 159.814 259.668C160.306 259.5 160.846 259.254 161.434 258.93V255.942ZM171.719 251.982C170.771 251.718 169.877 251.586 169.037 251.586C168.197 251.586 167.657 251.676 167.417 251.856C167.177 252.036 167.057 252.384 167.057 252.9C167.057 253.356 167.141 253.674 167.309 253.854C167.489 254.022 167.627 254.148 167.723 254.232C167.819 254.316 167.981 254.406 168.209 254.502C168.437 254.586 168.605 254.646 168.713 254.682C169.157 254.814 169.559 254.928 169.919 255.024C170.723 255.252 171.347 255.576 171.791 255.996C172.235 256.416 172.457 257.1 172.457 258.048C172.457 258.984 172.157 259.752 171.557 260.352C170.969 260.94 170.135 261.234 169.055 261.234C168.527 261.234 167.975 261.162 167.399 261.018C166.835 260.874 166.247 260.658 165.635 260.37L166.013 259.092C167.105 259.656 168.209 259.938 169.325 259.938C169.865 259.938 170.249 259.842 170.477 259.65C170.825 259.35 170.999 258.882 170.999 258.246C170.999 257.454 170.633 256.896 169.901 256.572C169.613 256.44 169.211 256.302 168.695 256.158C168.179 256.002 167.825 255.894 167.633 255.834C167.453 255.774 167.207 255.666 166.895 255.51C166.595 255.342 166.373 255.168 166.229 254.988C165.845 254.508 165.653 253.89 165.653 253.134C165.653 251.238 166.793 250.29 169.073 250.29C170.129 250.29 171.089 250.434 171.953 250.722L171.719 251.982ZM176.528 263.988H175.034V250.524H176.042L176.24 251.586H176.33C176.354 251.574 176.486 251.484 176.726 251.316C176.966 251.148 177.194 250.998 177.41 250.866C177.638 250.734 177.944 250.608 178.328 250.488C178.712 250.356 179.09 250.29 179.462 250.29C180.47 250.29 181.25 250.722 181.802 251.586C182.354 252.45 182.63 253.776 182.63 255.564C182.63 259.344 181.364 261.234 178.832 261.234C178.28 261.234 177.512 261.15 176.528 260.982V263.988ZM176.528 259.542C177.548 259.794 178.358 259.92 178.958 259.92C179.558 259.92 179.972 259.824 180.2 259.632C180.764 259.164 181.046 257.712 181.046 255.276C181.046 253.404 180.872 252.294 180.524 251.946C180.32 251.742 179.996 251.64 179.552 251.64C179.108 251.64 178.634 251.724 178.13 251.892C177.638 252.048 177.104 252.288 176.528 252.612V259.542ZM189.329 261.234C186.545 261.234 185.153 259.41 185.153 255.762C185.153 252.114 186.533 250.29 189.293 250.29C190.517 250.29 191.435 250.674 192.047 251.442C192.659 252.198 192.965 253.458 192.965 255.222V256.338H186.737C186.737 257.958 186.995 259.008 187.511 259.488C187.835 259.776 188.279 259.92 188.843 259.92C189.851 259.92 190.841 259.752 191.813 259.416L192.299 259.236L192.677 260.46C191.669 260.976 190.553 261.234 189.329 261.234ZM191.021 252.126C190.781 251.766 190.193 251.586 189.257 251.586C188.321 251.586 187.667 251.832 187.295 252.324C186.923 252.816 186.737 253.758 186.737 255.15L191.435 255.06C191.435 253.56 191.297 252.582 191.021 252.126ZM199.631 251.604C198.719 251.604 198.107 251.76 197.795 252.072C197.555 252.336 197.357 252.81 197.201 253.494C197.045 254.166 196.967 254.946 196.967 255.834C196.967 257.85 197.351 259.122 198.119 259.65C198.383 259.842 198.731 259.938 199.163 259.938C199.607 259.938 200.081 259.872 200.585 259.74C201.101 259.596 201.659 259.386 202.259 259.11L202.727 260.28C202.631 260.352 202.493 260.442 202.313 260.55C202.145 260.658 201.779 260.802 201.215 260.982C200.663 261.15 200.105 261.234 199.541 261.234C198.245 261.234 197.231 260.79 196.499 259.902C195.767 259.002 195.401 257.586 195.401 255.654C195.401 253.71 195.803 252.33 196.607 251.514C197.411 250.698 198.515 250.29 199.919 250.29C200.831 250.29 201.683 250.386 202.475 250.578L202.295 251.838C200.999 251.682 200.111 251.604 199.631 251.604ZM206.949 251.136H209.037V252.342H206.949V257.778C206.949 258.786 206.997 259.392 207.093 259.596C207.201 259.8 207.519 259.902 208.047 259.902L209.019 259.866V261.072C208.767 261.132 208.431 261.162 208.011 261.162C207.147 261.162 206.505 260.928 206.085 260.46C205.665 259.98 205.455 259.05 205.455 257.67V252.306H204.267V251.37L205.509 251.118L205.905 248.67H206.949V251.136ZM217.088 251.982C216.14 251.718 215.246 251.586 214.406 251.586C213.566 251.586 213.026 251.676 212.786 251.856C212.546 252.036 212.426 252.384 212.426 252.9C212.426 253.356 212.51 253.674 212.678 253.854C212.858 254.022 212.996 254.148 213.092 254.232C213.188 254.316 213.35 254.406 213.578 254.502C213.806 254.586 213.974 254.646 214.082 254.682C214.526 254.814 214.928 254.928 215.288 255.024C216.092 255.252 216.716 255.576 217.16 255.996C217.604 256.416 217.826 257.1 217.826 258.048C217.826 258.984 217.526 259.752 216.926 260.352C216.338 260.94 215.504 261.234 214.424 261.234C213.896 261.234 213.344 261.162 212.768 261.018C212.204 260.874 211.616 260.658 211.004 260.37L211.382 259.092C212.474 259.656 213.578 259.938 214.694 259.938C215.234 259.938 215.618 259.842 215.846 259.65C216.194 259.35 216.368 258.882 216.368 258.246C216.368 257.454 216.002 256.896 215.27 256.572C214.982 256.44 214.58 256.302 214.064 256.158C213.548 256.002 213.194 255.894 213.002 255.834C212.822 255.774 212.576 255.666 212.264 255.51C211.964 255.342 211.742 255.168 211.598 254.988C211.214 254.508 211.022 253.89 211.022 253.134C211.022 251.238 212.162 250.29 214.442 250.29C215.498 250.29 216.458 250.434 217.322 250.722L217.088 251.982ZM224.176 255.78C224.176 253.98 224.47 252.618 225.058 251.694C225.658 250.758 226.666 250.29 228.082 250.29C229.51 250.29 230.524 250.758 231.124 251.694C231.724 252.618 232.024 253.974 232.024 255.762C232.024 257.55 231.724 258.912 231.124 259.848C230.524 260.772 229.51 261.234 228.082 261.234C226.666 261.234 225.658 260.772 225.058 259.848C224.47 258.924 224.176 257.568 224.176 255.78ZM229.54 251.892C229.228 251.688 228.748 251.586 228.1 251.586C227.452 251.586 226.966 251.688 226.642 251.892C226.33 252.096 226.09 252.498 225.922 253.098C225.766 253.686 225.688 254.574 225.688 255.762C225.688 256.95 225.766 257.844 225.922 258.444C226.078 259.044 226.318 259.446 226.642 259.65C226.966 259.854 227.452 259.956 228.1 259.956C228.748 259.956 229.228 259.854 229.54 259.65C229.864 259.446 230.104 259.044 230.26 258.444C230.416 257.844 230.494 256.95 230.494 255.762C230.494 254.574 230.416 253.686 230.26 253.098C230.104 252.498 229.864 252.096 229.54 251.892ZM236.851 251.136H239.137V252.342H236.851V261H235.357V252.288H234.187V251.37L235.357 251.136C235.405 249.696 235.693 248.682 236.221 248.094C236.749 247.506 237.493 247.212 238.453 247.212L239.461 247.248L239.353 248.508C238.741 248.484 238.297 248.472 238.021 248.472C237.745 248.472 237.523 248.52 237.355 248.616C237.019 248.832 236.851 249.672 236.851 251.136ZM246.526 261H245.032V247.446H246.526V261ZM251.543 261H250.049V250.524H251.543V261ZM251.723 248.976H249.887V247.446H251.723V248.976ZM257.013 251.136H259.299V252.342H257.013V261H255.519V252.288H254.349V251.37L255.519 251.136C255.567 249.696 255.855 248.682 256.383 248.094C256.911 247.506 257.655 247.212 258.615 247.212L259.623 247.248L259.515 248.508C258.903 248.484 258.459 248.472 258.183 248.472C257.907 248.472 257.685 248.52 257.517 248.616C257.181 248.832 257.013 249.672 257.013 251.136ZM264.967 261.234C262.183 261.234 260.791 259.41 260.791 255.762C260.791 252.114 262.171 250.29 264.931 250.29C266.155 250.29 267.073 250.674 267.685 251.442C268.297 252.198 268.603 253.458 268.603 255.222V256.338H262.375C262.375 257.958 262.633 259.008 263.149 259.488C263.473 259.776 263.917 259.92 264.481 259.92C265.489 259.92 266.479 259.752 267.451 259.416L267.937 259.236L268.315 260.46C267.307 260.976 266.191 261.234 264.967 261.234ZM266.659 252.126C266.419 251.766 265.831 251.586 264.895 251.586C263.959 251.586 263.305 251.832 262.933 252.324C262.561 252.816 262.375 253.758 262.375 255.15L267.073 255.06C267.073 253.56 266.935 252.582 266.659 252.126ZM286.458 250.524L284.352 261H282.138L280.374 252.756H280.266L278.502 261H276.306L274.2 250.524H275.712L277.35 260.136H277.44L279.222 251.91H281.436L283.2 260.136H283.308L284.928 250.524H286.458ZM289.924 261H288.43V247.446H289.924V251.172C291.28 250.584 292.336 250.29 293.092 250.29C294.112 250.29 294.82 250.596 295.216 251.208C295.624 251.808 295.828 252.75 295.828 254.034V261H294.334V254.556C294.334 253.248 294.214 252.42 293.974 252.072C293.794 251.82 293.476 251.694 293.02 251.694C292.156 251.694 291.274 251.88 290.374 252.252L289.924 252.45V261ZM302.848 261.234C300.064 261.234 298.672 259.41 298.672 255.762C298.672 252.114 300.052 250.29 302.812 250.29C304.036 250.29 304.954 250.674 305.566 251.442C306.178 252.198 306.484 253.458 306.484 255.222V256.338H300.256C300.256 257.958 300.514 259.008 301.03 259.488C301.354 259.776 301.798 259.92 302.362 259.92C303.37 259.92 304.36 259.752 305.332 259.416L305.818 259.236L306.196 260.46C305.188 260.976 304.072 261.234 302.848 261.234ZM304.54 252.126C304.3 251.766 303.712 251.586 302.776 251.586C301.84 251.586 301.186 251.832 300.814 252.324C300.442 252.816 300.256 253.758 300.256 255.15L304.954 255.06C304.954 253.56 304.816 252.582 304.54 252.126ZM311.152 251.136H313.24V252.342H311.152V257.778C311.152 258.786 311.2 259.392 311.296 259.596C311.404 259.8 311.722 259.902 312.25 259.902L313.222 259.866V261.072C312.97 261.132 312.634 261.162 312.214 261.162C311.35 261.162 310.708 260.928 310.288 260.46C309.868 259.98 309.658 259.05 309.658 257.67V252.306H308.47V251.37L309.712 251.118L310.108 248.67H311.152V251.136ZM317.241 261H315.747V247.446H317.241V251.172C318.597 250.584 319.653 250.29 320.409 250.29C321.429 250.29 322.137 250.596 322.533 251.208C322.941 251.808 323.145 252.75 323.145 254.034V261H321.651V254.556C321.651 253.248 321.531 252.42 321.291 252.072C321.111 251.82 320.793 251.694 320.337 251.694C319.473 251.694 318.591 251.88 317.691 252.252L317.241 252.45V261ZM330.165 261.234C327.381 261.234 325.989 259.41 325.989 255.762C325.989 252.114 327.369 250.29 330.129 250.29C331.353 250.29 332.271 250.674 332.883 251.442C333.495 252.198 333.801 253.458 333.801 255.222V256.338H327.573C327.573 257.958 327.831 259.008 328.347 259.488C328.671 259.776 329.115 259.92 329.679 259.92C330.687 259.92 331.677 259.752 332.649 259.416L333.135 259.236L333.513 260.46C332.505 260.976 331.389 261.234 330.165 261.234ZM331.857 252.126C331.617 251.766 331.029 251.586 330.093 251.586C329.157 251.586 328.503 251.832 328.131 252.324C327.759 252.816 327.573 253.758 327.573 255.15L332.271 255.06C332.271 253.56 332.133 252.582 331.857 252.126ZM341.601 251.82C341.325 251.796 341.025 251.784 340.701 251.784C340.389 251.784 339.981 251.88 339.477 252.072C338.973 252.264 338.577 252.474 338.289 252.702V261H336.795V250.524H337.749L337.947 251.586H338.055C338.547 251.226 339.069 250.92 339.621 250.668C340.173 250.416 340.629 250.29 340.989 250.29L341.727 250.38L341.601 251.82ZM348.371 263.988L349.793 259.974L346.175 250.524H347.939L350.405 258.21H350.495L352.943 250.524H354.563L350.927 260.334L349.955 263.988H348.371ZM355.994 255.78C355.994 253.98 356.288 252.618 356.876 251.694C357.476 250.758 358.484 250.29 359.9 250.29C361.328 250.29 362.342 250.758 362.942 251.694C363.542 252.618 363.842 253.974 363.842 255.762C363.842 257.55 363.542 258.912 362.942 259.848C362.342 260.772 361.328 261.234 359.9 261.234C358.484 261.234 357.476 260.772 356.876 259.848C356.288 258.924 355.994 257.568 355.994 255.78ZM361.358 251.892C361.046 251.688 360.566 251.586 359.918 251.586C359.27 251.586 358.784 251.688 358.46 251.892C358.148 252.096 357.908 252.498 357.74 253.098C357.584 253.686 357.506 254.574 357.506 255.762C357.506 256.95 357.584 257.844 357.74 258.444C357.896 259.044 358.136 259.446 358.46 259.65C358.784 259.854 359.27 259.956 359.918 259.956C360.566 259.956 361.046 259.854 361.358 259.65C361.682 259.446 361.922 259.044 362.078 258.444C362.234 257.844 362.312 256.95 362.312 255.762C362.312 254.574 362.234 253.686 362.078 253.098C361.922 252.498 361.682 252.096 361.358 251.892ZM372.593 250.524H374.087V261H373.079L372.899 259.992H372.809C372.797 259.992 372.611 260.094 372.251 260.298C371.903 260.49 371.615 260.64 371.387 260.748C370.655 261.072 369.965 261.234 369.317 261.234C367.565 261.234 366.689 259.986 366.689 257.49V250.524H368.183V256.968C368.183 258.348 368.261 259.176 368.417 259.452C368.585 259.716 368.975 259.848 369.587 259.848C370.211 259.848 371.213 259.53 372.593 258.894V250.524ZM392.577 250.524L390.471 261H388.257L386.493 252.756H386.385L384.621 261H382.425L380.319 250.524H381.831L383.469 260.136H383.559L385.341 251.91H387.555L389.319 260.136H389.427L391.047 250.524H392.577ZM396.422 261H394.928V250.524H396.422V261ZM396.602 248.976H394.766V247.446H396.602V248.976ZM405.402 251.982C404.454 251.718 403.56 251.586 402.72 251.586C401.88 251.586 401.34 251.676 401.1 251.856C400.86 252.036 400.74 252.384 400.74 252.9C400.74 253.356 400.824 253.674 400.992 253.854C401.172 254.022 401.31 254.148 401.406 254.232C401.502 254.316 401.664 254.406 401.892 254.502C402.12 254.586 402.288 254.646 402.396 254.682C402.84 254.814 403.242 254.928 403.602 255.024C404.406 255.252 405.03 255.576 405.474 255.996C405.918 256.416 406.14 257.1 406.14 258.048C406.14 258.984 405.84 259.752 405.24 260.352C404.652 260.94 403.818 261.234 402.738 261.234C402.21 261.234 401.658 261.162 401.082 261.018C400.518 260.874 399.93 260.658 399.318 260.37L399.696 259.092C400.788 259.656 401.892 259.938 403.008 259.938C403.548 259.938 403.932 259.842 404.16 259.65C404.508 259.35 404.682 258.882 404.682 258.246C404.682 257.454 404.316 256.896 403.584 256.572C403.296 256.44 402.894 256.302 402.378 256.158C401.862 256.002 401.508 255.894 401.316 255.834C401.136 255.774 400.89 255.666 400.578 255.51C400.278 255.342 400.056 255.168 399.912 254.988C399.528 254.508 399.336 253.89 399.336 253.134C399.336 251.238 400.476 250.29 402.756 250.29C403.812 250.29 404.772 250.434 405.636 250.722L405.402 251.982ZM410.212 261H408.718V247.446H410.212V251.172C411.568 250.584 412.624 250.29 413.38 250.29C414.4 250.29 415.108 250.596 415.504 251.208C415.912 251.808 416.116 252.75 416.116 254.034V261H414.622V254.556C414.622 253.248 414.502 252.42 414.262 252.072C414.082 251.82 413.764 251.694 413.308 251.694C412.444 251.694 411.562 251.88 410.662 252.252L410.212 252.45V261ZM425.234 251.136H427.322V252.342H425.234V257.778C425.234 258.786 425.282 259.392 425.378 259.596C425.486 259.8 425.804 259.902 426.332 259.902L427.304 259.866V261.072C427.052 261.132 426.716 261.162 426.296 261.162C425.432 261.162 424.79 260.928 424.37 260.46C423.95 259.98 423.74 259.05 423.74 257.67V252.306H422.552V251.37L423.794 251.118L424.19 248.67H425.234V251.136ZM431.323 261H429.829V247.446H431.323V251.172C432.679 250.584 433.735 250.29 434.491 250.29C435.511 250.29 436.219 250.596 436.615 251.208C437.023 251.808 437.227 252.75 437.227 254.034V261H435.733V254.556C435.733 253.248 435.613 252.42 435.373 252.072C435.193 251.82 434.875 251.694 434.419 251.694C433.555 251.694 432.673 251.88 431.773 252.252L431.323 252.45V261ZM444.247 261.234C441.463 261.234 440.071 259.41 440.071 255.762C440.071 252.114 441.451 250.29 444.211 250.29C445.435 250.29 446.353 250.674 446.965 251.442C447.577 252.198 447.883 253.458 447.883 255.222V256.338H441.655C441.655 257.958 441.913 259.008 442.429 259.488C442.753 259.776 443.197 259.92 443.761 259.92C444.769 259.92 445.759 259.752 446.731 259.416L447.217 259.236L447.595 260.46C446.587 260.976 445.471 261.234 444.247 261.234ZM445.939 252.126C445.699 251.766 445.111 251.586 444.175 251.586C443.239 251.586 442.585 251.832 442.213 252.324C441.841 252.816 441.655 253.758 441.655 255.15L446.353 255.06C446.353 253.56 446.215 252.582 445.939 252.126ZM455.431 251.712C454.639 251.712 453.619 252.024 452.371 252.648V261H450.877V250.524H451.885L452.047 251.55H452.137C453.541 250.71 454.729 250.29 455.701 250.29C456.217 250.29 456.661 250.41 457.033 250.65C457.405 250.89 457.675 251.22 457.843 251.64C458.299 251.364 458.671 251.148 458.959 250.992C459.247 250.836 459.631 250.68 460.111 250.524C460.603 250.368 461.065 250.29 461.497 250.29C462.421 250.29 463.063 250.614 463.423 251.262C463.795 251.898 463.981 252.846 463.981 254.106V261H462.487V254.61C462.487 253.23 462.397 252.402 462.217 252.126C462.049 251.85 461.713 251.712 461.209 251.712C460.345 251.712 459.313 252.054 458.113 252.738C458.161 253.266 458.185 253.698 458.185 254.034V261H456.691V254.556C456.691 253.788 456.673 253.236 456.637 252.9C456.601 252.564 456.505 252.282 456.349 252.054C456.205 251.826 455.899 251.712 455.431 251.712ZM44.492 273.136H46.58V274.342H44.492V279.778C44.492 280.786 44.54 281.392 44.636 281.596C44.744 281.8 45.062 281.902 45.59 281.902L46.562 281.866V283.072C46.31 283.132 45.974 283.162 45.554 283.162C44.69 283.162 44.048 282.928 43.628 282.46C43.208 281.98 42.998 281.05 42.998 279.67V274.306H41.81V273.37L43.052 273.118L43.448 270.67H44.492V273.136ZM48.8166 277.78C48.8166 275.98 49.1106 274.618 49.6986 273.694C50.2986 272.758 51.3066 272.29 52.7226 272.29C54.1506 272.29 55.1646 272.758 55.7646 273.694C56.3646 274.618 56.6646 275.974 56.6646 277.762C56.6646 279.55 56.3646 280.912 55.7646 281.848C55.1646 282.772 54.1506 283.234 52.7226 283.234C51.3066 283.234 50.2986 282.772 49.6986 281.848C49.1106 280.924 48.8166 279.568 48.8166 277.78ZM54.1806 273.892C53.8686 273.688 53.3886 273.586 52.7406 273.586C52.0926 273.586 51.6066 273.688 51.2826 273.892C50.9706 274.096 50.7306 274.498 50.5626 275.098C50.4066 275.686 50.3286 276.574 50.3286 277.762C50.3286 278.95 50.4066 279.844 50.5626 280.444C50.7186 281.044 50.9586 281.446 51.2826 281.65C51.6066 281.854 52.0926 281.956 52.7406 281.956C53.3886 281.956 53.8686 281.854 54.1806 281.65C54.5046 281.446 54.7446 281.044 54.9006 280.444C55.0566 279.844 55.1346 278.95 55.1346 277.762C55.1346 276.574 55.0566 275.686 54.9006 275.098C54.7446 274.498 54.5046 274.096 54.1806 273.892ZM64.9947 283H63.5007V269.446H64.9947V273.172C66.3507 272.584 67.4067 272.29 68.1627 272.29C69.1827 272.29 69.8907 272.596 70.2867 273.208C70.6947 273.808 70.8987 274.75 70.8987 276.034V283H69.4047V276.556C69.4047 275.248 69.2847 274.42 69.0447 274.072C68.8647 273.82 68.5467 273.694 68.0907 273.694C67.2267 273.694 66.3447 273.88 65.4447 274.252L64.9947 274.45V283ZM77.5944 276.556H79.5024C79.5024 275.152 79.3944 274.306 79.1784 274.018C78.9744 273.73 78.5904 273.586 78.0264 273.586C77.4624 273.586 76.8624 273.664 76.2264 273.82C75.6024 273.964 74.9304 274.186 74.2104 274.486L73.6884 273.316C73.8444 273.244 74.0484 273.154 74.3004 273.046C74.5644 272.926 75.0504 272.77 75.7584 272.578C76.4664 272.386 77.1144 272.29 77.7024 272.29C79.8984 272.29 80.9964 273.562 80.9964 276.106V283H80.0244L79.8084 281.902H79.7004C79.5804 281.998 79.4124 282.124 79.1964 282.28C78.9804 282.424 78.5724 282.622 77.9724 282.874C77.3724 283.114 76.8084 283.234 76.2804 283.234C75.4284 283.234 74.7444 282.946 74.2284 282.37C73.7124 281.782 73.4544 280.924 73.4544 279.796C73.4544 278.656 73.8084 277.834 74.5164 277.33C75.2244 276.814 76.2504 276.556 77.5944 276.556ZM79.5024 277.942C78.9864 277.858 78.2544 277.816 77.3064 277.816C76.3704 277.816 75.7704 277.93 75.5064 278.158C75.1824 278.41 75.0204 278.944 75.0204 279.76C75.0204 280.564 75.1344 281.122 75.3624 281.434C75.6024 281.746 75.9564 281.902 76.4244 281.902C76.9044 281.902 77.3904 281.824 77.8824 281.668C78.3744 281.5 78.9144 281.254 79.5024 280.93V277.942ZM85.7369 285.988H84.2429V272.524H85.2509L85.4489 273.586H85.5389C85.5629 273.574 85.6949 273.484 85.9349 273.316C86.1749 273.148 86.4029 272.998 86.6189 272.866C86.8469 272.734 87.1529 272.608 87.5369 272.488C87.9209 272.356 88.2989 272.29 88.6709 272.29C89.6789 272.29 90.4589 272.722 91.0109 273.586C91.5629 274.45 91.8389 275.776 91.8389 277.564C91.8389 281.344 90.5729 283.234 88.0409 283.234C87.4889 283.234 86.7209 283.15 85.7369 282.982V285.988ZM85.7369 281.542C86.7569 281.794 87.5669 281.92 88.1669 281.92C88.7669 281.92 89.1809 281.824 89.4089 281.632C89.9729 281.164 90.2549 279.712 90.2549 277.276C90.2549 275.404 90.0809 274.294 89.7329 273.946C89.5289 273.742 89.2049 273.64 88.7609 273.64C88.3169 273.64 87.8429 273.724 87.3389 273.892C86.8469 274.048 86.3129 274.288 85.7369 274.612V281.542ZM96.1256 285.988H94.6316V272.524H95.6396L95.8376 273.586H95.9276C95.9516 273.574 96.0836 273.484 96.3236 273.316C96.5636 273.148 96.7916 272.998 97.0076 272.866C97.2356 272.734 97.5416 272.608 97.9256 272.488C98.3096 272.356 98.6876 272.29 99.0596 272.29C100.068 272.29 100.848 272.722 101.4 273.586C101.952 274.45 102.228 275.776 102.228 277.564C102.228 281.344 100.962 283.234 98.4296 283.234C97.8776 283.234 97.1096 283.15 96.1256 282.982V285.988ZM96.1256 281.542C97.1456 281.794 97.9556 281.92 98.5556 281.92C99.1556 281.92 99.5696 281.824 99.7976 281.632C100.362 281.164 100.644 279.712 100.644 277.276C100.644 275.404 100.47 274.294 100.122 273.946C99.9176 273.742 99.5936 273.64 99.1496 273.64C98.7056 273.64 98.2316 273.724 97.7276 273.892C97.2356 274.048 96.7016 274.288 96.1256 274.612V281.542ZM108.926 283.234C106.142 283.234 104.75 281.41 104.75 277.762C104.75 274.114 106.13 272.29 108.89 272.29C110.114 272.29 111.032 272.674 111.644 273.442C112.256 274.198 112.562 275.458 112.562 277.222V278.338H106.334C106.334 279.958 106.592 281.008 107.108 281.488C107.432 281.776 107.876 281.92 108.44 281.92C109.448 281.92 110.438 281.752 111.41 281.416L111.896 281.236L112.274 282.46C111.266 282.976 110.15 283.234 108.926 283.234ZM110.618 274.126C110.378 273.766 109.79 273.586 108.854 273.586C107.918 273.586 107.264 273.832 106.892 274.324C106.52 274.816 106.334 275.758 106.334 277.15L111.032 277.06C111.032 275.56 110.894 274.582 110.618 274.126ZM117.05 283H115.556V272.524H116.564L116.726 273.55H116.816C118.256 272.71 119.504 272.29 120.56 272.29C121.508 272.29 122.162 272.656 122.522 273.388C122.822 274 122.972 274.882 122.972 276.034V283H121.46V276.556C121.46 275.188 121.37 274.372 121.19 274.108C121.022 273.844 120.698 273.712 120.218 273.712C119.306 273.712 118.25 274.03 117.05 274.666V283ZM131.994 283H130.5V272.524H131.994V283ZM132.174 270.976H130.338V269.446H132.174V270.976ZM137.212 283H135.718V272.524H136.726L136.888 273.55H136.978C138.418 272.71 139.666 272.29 140.722 272.29C141.67 272.29 142.324 272.656 142.684 273.388C142.984 274 143.134 274.882 143.134 276.034V283H141.622V276.556C141.622 275.188 141.532 274.372 141.352 274.108C141.184 273.844 140.86 273.712 140.38 273.712C139.468 273.712 138.412 274.03 137.212 274.666V283ZM152.246 273.136H154.334V274.342H152.246V279.778C152.246 280.786 152.294 281.392 152.39 281.596C152.498 281.8 152.816 281.902 153.344 281.902L154.316 281.866V283.072C154.064 283.132 153.728 283.162 153.308 283.162C152.444 283.162 151.802 282.928 151.382 282.46C150.962 281.98 150.752 281.05 150.752 279.67V274.306H149.564V273.37L150.806 273.118L151.202 270.67H152.246V273.136ZM158.335 283H156.841V269.446H158.335V273.172C159.691 272.584 160.747 272.29 161.503 272.29C162.523 272.29 163.231 272.596 163.627 273.208C164.035 273.808 164.239 274.75 164.239 276.034V283H162.745V276.556C162.745 275.248 162.625 274.42 162.385 274.072C162.205 273.82 161.887 273.694 161.431 273.694C160.567 273.694 159.685 273.88 158.785 274.252L158.335 274.45V283ZM171.258 283.234C168.474 283.234 167.082 281.41 167.082 277.762C167.082 274.114 168.462 272.29 171.222 272.29C172.446 272.29 173.364 272.674 173.976 273.442C174.588 274.198 174.894 275.458 174.894 277.222V278.338H168.666C168.666 279.958 168.924 281.008 169.44 281.488C169.764 281.776 170.208 281.92 170.772 281.92C171.78 281.92 172.77 281.752 173.742 281.416L174.228 281.236L174.606 282.46C173.598 282.976 172.482 283.234 171.258 283.234ZM172.95 274.126C172.71 273.766 172.122 273.586 171.186 273.586C170.25 273.586 169.596 273.832 169.224 274.324C168.852 274.816 168.666 275.758 168.666 277.15L173.364 277.06C173.364 275.56 173.226 274.582 172.95 274.126ZM183.677 273.136H185.963V274.342H183.677V283H182.183V274.288H181.013V273.37L182.183 273.136C182.231 271.696 182.519 270.682 183.047 270.094C183.575 269.506 184.319 269.212 185.279 269.212L186.287 269.248L186.179 270.508C185.567 270.484 185.123 270.472 184.847 270.472C184.571 270.472 184.349 270.52 184.181 270.616C183.845 270.832 183.677 271.672 183.677 273.136ZM193.683 272.524H195.177V283H194.169L193.989 281.992H193.899C193.887 281.992 193.701 282.094 193.341 282.298C192.993 282.49 192.705 282.64 192.477 282.748C191.745 283.072 191.055 283.234 190.407 283.234C188.655 283.234 187.779 281.986 187.779 279.49V272.524H189.273V278.968C189.273 280.348 189.351 281.176 189.507 281.452C189.675 281.716 190.065 281.848 190.677 281.848C191.301 281.848 192.303 281.53 193.683 280.894V272.524ZM200.48 273.136H202.568V274.342H200.48V279.778C200.48 280.786 200.528 281.392 200.624 281.596C200.732 281.8 201.05 281.902 201.578 281.902L202.55 281.866V283.072C202.298 283.132 201.962 283.162 201.542 283.162C200.678 283.162 200.036 282.928 199.616 282.46C199.196 281.98 198.986 281.05 198.986 279.67V274.306H197.798V273.37L199.04 273.118L199.436 270.67H200.48V273.136ZM211.033 272.524H212.527V283H211.519L211.339 281.992H211.249C211.237 281.992 211.051 282.094 210.691 282.298C210.343 282.49 210.055 282.64 209.827 282.748C209.095 283.072 208.405 283.234 207.757 283.234C206.005 283.234 205.129 281.986 205.129 279.49V272.524H206.623V278.968C206.623 280.348 206.701 281.176 206.857 281.452C207.025 281.716 207.415 281.848 208.027 281.848C208.651 281.848 209.653 281.53 211.033 280.894V272.524ZM220.962 273.82C220.686 273.796 220.386 273.784 220.062 273.784C219.75 273.784 219.342 273.88 218.838 274.072C218.334 274.264 217.938 274.474 217.65 274.702V283H216.156V272.524H217.11L217.308 273.586H217.416C217.908 273.226 218.43 272.92 218.982 272.668C219.534 272.416 219.99 272.29 220.35 272.29L221.088 272.38L220.962 273.82ZM226.875 283.234C224.091 283.234 222.699 281.41 222.699 277.762C222.699 274.114 224.079 272.29 226.839 272.29C228.063 272.29 228.981 272.674 229.593 273.442C230.205 274.198 230.511 275.458 230.511 277.222V278.338H224.283C224.283 279.958 224.541 281.008 225.057 281.488C225.381 281.776 225.825 281.92 226.389 281.92C227.397 281.92 228.387 281.752 229.359 281.416L229.845 281.236L230.223 282.46C229.215 282.976 228.099 283.234 226.875 283.234ZM228.567 274.126C228.327 273.766 227.739 273.586 226.803 273.586C225.867 273.586 225.213 273.832 224.841 274.324C224.469 274.816 224.283 275.758 224.283 277.15L228.981 277.06C228.981 275.56 228.843 274.582 228.567 274.126ZM236.99 277.78C236.99 275.98 237.284 274.618 237.872 273.694C238.472 272.758 239.48 272.29 240.896 272.29C242.324 272.29 243.338 272.758 243.938 273.694C244.538 274.618 244.838 275.974 244.838 277.762C244.838 279.55 244.538 280.912 243.938 281.848C243.338 282.772 242.324 283.234 240.896 283.234C239.48 283.234 238.472 282.772 237.872 281.848C237.284 280.924 236.99 279.568 236.99 277.78ZM242.354 273.892C242.042 273.688 241.562 273.586 240.914 273.586C240.266 273.586 239.78 273.688 239.456 273.892C239.144 274.096 238.904 274.498 238.736 275.098C238.58 275.686 238.502 276.574 238.502 277.762C238.502 278.95 238.58 279.844 238.736 280.444C238.892 281.044 239.132 281.446 239.456 281.65C239.78 281.854 240.266 281.956 240.914 281.956C241.562 281.956 242.042 281.854 242.354 281.65C242.678 281.446 242.918 281.044 243.074 280.444C243.23 279.844 243.308 278.95 243.308 277.762C243.308 276.574 243.23 275.686 243.074 275.098C242.918 274.498 242.678 274.096 242.354 273.892ZM252.726 273.82C252.45 273.796 252.15 273.784 251.826 273.784C251.514 273.784 251.106 273.88 250.602 274.072C250.098 274.264 249.702 274.474 249.414 274.702V283H247.92V272.524H248.874L249.072 273.586H249.18C249.672 273.226 250.194 272.92 250.746 272.668C251.298 272.416 251.754 272.29 252.114 272.29L252.852 272.38L252.726 273.82ZM259.496 285.988L260.918 281.974L257.3 272.524H259.064L261.53 280.21H261.62L264.068 272.524H265.688L262.052 282.334L261.08 285.988H259.496ZM267.119 277.78C267.119 275.98 267.413 274.618 268.001 273.694C268.601 272.758 269.609 272.29 271.025 272.29C272.453 272.29 273.467 272.758 274.067 273.694C274.667 274.618 274.967 275.974 274.967 277.762C274.967 279.55 274.667 280.912 274.067 281.848C273.467 282.772 272.453 283.234 271.025 283.234C269.609 283.234 268.601 282.772 268.001 281.848C267.413 280.924 267.119 279.568 267.119 277.78ZM272.483 273.892C272.171 273.688 271.691 273.586 271.043 273.586C270.395 273.586 269.909 273.688 269.585 273.892C269.273 274.096 269.033 274.498 268.865 275.098C268.709 275.686 268.631 276.574 268.631 277.762C268.631 278.95 268.709 279.844 268.865 280.444C269.021 281.044 269.261 281.446 269.585 281.65C269.909 281.854 270.395 281.956 271.043 281.956C271.691 281.956 272.171 281.854 272.483 281.65C272.807 281.446 273.047 281.044 273.203 280.444C273.359 279.844 273.437 278.95 273.437 277.762C273.437 276.574 273.359 275.686 273.203 275.098C273.047 274.498 272.807 274.096 272.483 273.892ZM283.718 272.524H285.212V283H284.204L284.024 281.992H283.934C283.922 281.992 283.736 282.094 283.376 282.298C283.028 282.49 282.74 282.64 282.512 282.748C281.78 283.072 281.09 283.234 280.442 283.234C278.69 283.234 277.814 281.986 277.814 279.49V272.524H279.308V278.968C279.308 280.348 279.386 281.176 279.542 281.452C279.71 281.716 280.1 281.848 280.712 281.848C281.336 281.848 282.338 281.53 283.718 280.894V272.524ZM297.438 273.712C296.646 273.712 295.626 274.024 294.378 274.648V283H292.884V272.524H293.892L294.054 273.55H294.144C295.548 272.71 296.736 272.29 297.708 272.29C298.224 272.29 298.668 272.41 299.04 272.65C299.412 272.89 299.682 273.22 299.85 273.64C300.306 273.364 300.678 273.148 300.966 272.992C301.254 272.836 301.638 272.68 302.118 272.524C302.61 272.368 303.072 272.29 303.504 272.29C304.428 272.29 305.07 272.614 305.43 273.262C305.802 273.898 305.988 274.846 305.988 276.106V283H304.494V276.61C304.494 275.23 304.404 274.402 304.224 274.126C304.056 273.85 303.72 273.712 303.216 273.712C302.352 273.712 301.32 274.054 300.12 274.738C300.168 275.266 300.192 275.698 300.192 276.034V283H298.698V276.556C298.698 275.788 298.68 275.236 298.644 274.9C298.608 274.564 298.512 274.282 298.356 274.054C298.212 273.826 297.906 273.712 297.438 273.712ZM310.974 283H309.48V272.524H310.974V283ZM311.154 270.976H309.318V269.446H311.154V270.976ZM319.955 273.982C319.007 273.718 318.113 273.586 317.273 273.586C316.433 273.586 315.893 273.676 315.653 273.856C315.413 274.036 315.293 274.384 315.293 274.9C315.293 275.356 315.377 275.674 315.545 275.854C315.725 276.022 315.863 276.148 315.959 276.232C316.055 276.316 316.217 276.406 316.445 276.502C316.673 276.586 316.841 276.646 316.949 276.682C317.393 276.814 317.795 276.928 318.155 277.024C318.959 277.252 319.583 277.576 320.027 277.996C320.471 278.416 320.693 279.1 320.693 280.048C320.693 280.984 320.393 281.752 319.793 282.352C319.205 282.94 318.371 283.234 317.291 283.234C316.763 283.234 316.211 283.162 315.635 283.018C315.071 282.874 314.483 282.658 313.871 282.37L314.249 281.092C315.341 281.656 316.445 281.938 317.561 281.938C318.101 281.938 318.485 281.842 318.713 281.65C319.061 281.35 319.235 280.882 319.235 280.246C319.235 279.454 318.869 278.896 318.137 278.572C317.849 278.44 317.447 278.302 316.931 278.158C316.415 278.002 316.061 277.894 315.869 277.834C315.689 277.774 315.443 277.666 315.131 277.51C314.831 277.342 314.609 277.168 314.465 276.988C314.081 276.508 313.889 275.89 313.889 275.134C313.889 273.238 315.029 272.29 317.309 272.29C318.365 272.29 319.325 272.434 320.189 272.722L319.955 273.982ZM328.814 273.982C327.866 273.718 326.972 273.586 326.132 273.586C325.292 273.586 324.752 273.676 324.512 273.856C324.272 274.036 324.152 274.384 324.152 274.9C324.152 275.356 324.236 275.674 324.404 275.854C324.584 276.022 324.722 276.148 324.818 276.232C324.914 276.316 325.076 276.406 325.304 276.502C325.532 276.586 325.7 276.646 325.808 276.682C326.252 276.814 326.654 276.928 327.014 277.024C327.818 277.252 328.442 277.576 328.886 277.996C329.33 278.416 329.552 279.1 329.552 280.048C329.552 280.984 329.252 281.752 328.652 282.352C328.064 282.94 327.23 283.234 326.15 283.234C325.622 283.234 325.07 283.162 324.494 283.018C323.93 282.874 323.342 282.658 322.73 282.37L323.108 281.092C324.2 281.656 325.304 281.938 326.42 281.938C326.96 281.938 327.344 281.842 327.572 281.65C327.92 281.35 328.094 280.882 328.094 280.246C328.094 279.454 327.728 278.896 326.996 278.572C326.708 278.44 326.306 278.302 325.79 278.158C325.274 278.002 324.92 277.894 324.728 277.834C324.548 277.774 324.302 277.666 323.99 277.51C323.69 277.342 323.468 277.168 323.324 276.988C322.94 276.508 322.748 275.89 322.748 275.134C322.748 273.238 323.888 272.29 326.168 272.29C327.224 272.29 328.184 272.434 329.048 272.722L328.814 273.982ZM336.036 283.234C333.252 283.234 331.86 281.41 331.86 277.762C331.86 274.114 333.24 272.29 336 272.29C337.224 272.29 338.142 272.674 338.754 273.442C339.366 274.198 339.672 275.458 339.672 277.222V278.338H333.444C333.444 279.958 333.702 281.008 334.218 281.488C334.542 281.776 334.986 281.92 335.55 281.92C336.558 281.92 337.548 281.752 338.52 281.416L339.006 281.236L339.384 282.46C338.376 282.976 337.26 283.234 336.036 283.234ZM337.728 274.126C337.488 273.766 336.9 273.586 335.964 273.586C335.028 273.586 334.374 273.832 334.002 274.324C333.63 274.816 333.444 275.758 333.444 277.15L338.142 277.06C338.142 275.56 338.004 274.582 337.728 274.126ZM349.686 269.446V283H348.696L348.498 281.92H348.39C348.294 282.016 348.156 282.136 347.976 282.28C347.796 282.424 347.442 282.622 346.914 282.874C346.398 283.114 345.9 283.234 345.42 283.234C344.4 283.234 343.59 282.796 342.99 281.92C342.402 281.032 342.108 279.712 342.108 277.96C342.108 274.18 343.35 272.29 345.834 272.29C346.47 272.29 347.256 272.416 348.192 272.668V269.446H349.686ZM348.192 274.108C347.424 273.784 346.644 273.622 345.852 273.622C345.072 273.622 344.562 273.766 344.322 274.054C343.89 274.618 343.674 275.926 343.674 277.978C343.674 280.018 343.944 281.248 344.484 281.668C344.64 281.812 344.94 281.884 345.384 281.884C345.84 281.884 346.29 281.806 346.734 281.65C347.19 281.494 347.676 281.26 348.192 280.948V274.108ZM358.752 283H357.258V272.524H358.752V283ZM358.932 270.976H357.096V269.446H358.932V270.976ZM369.496 269.446V283H368.506L368.308 281.92H368.2C368.104 282.016 367.966 282.136 367.786 282.28C367.606 282.424 367.252 282.622 366.724 282.874C366.208 283.114 365.71 283.234 365.23 283.234C364.21 283.234 363.4 282.796 362.8 281.92C362.212 281.032 361.918 279.712 361.918 277.96C361.918 274.18 363.16 272.29 365.644 272.29C366.28 272.29 367.066 272.416 368.002 272.668V269.446H369.496ZM368.002 274.108C367.234 273.784 366.454 273.622 365.662 273.622C364.882 273.622 364.372 273.766 364.132 274.054C363.7 274.618 363.484 275.926 363.484 277.978C363.484 280.018 363.754 281.248 364.294 281.668C364.45 281.812 364.75 281.884 365.194 281.884C365.65 281.884 366.1 281.806 366.544 281.65C367 281.494 367.486 281.26 368.002 280.948V274.108ZM376.553 283.234C373.769 283.234 372.377 281.41 372.377 277.762C372.377 274.114 373.757 272.29 376.517 272.29C377.741 272.29 378.659 272.674 379.271 273.442C379.883 274.198 380.189 275.458 380.189 277.222V278.338H373.961C373.961 279.958 374.219 281.008 374.735 281.488C375.059 281.776 375.503 281.92 376.067 281.92C377.075 281.92 378.065 281.752 379.037 281.416L379.523 281.236L379.901 282.46C378.893 282.976 377.777 283.234 376.553 283.234ZM378.245 274.126C378.005 273.766 377.417 273.586 376.481 273.586C375.545 273.586 374.891 273.832 374.519 274.324C374.147 274.816 373.961 275.758 373.961 277.15L378.659 277.06C378.659 275.56 378.521 274.582 378.245 274.126ZM384.677 283H383.183V272.524H384.191L384.353 273.55H384.443C385.883 272.71 387.131 272.29 388.187 272.29C389.135 272.29 389.789 272.656 390.149 273.388C390.449 274 390.599 274.882 390.599 276.034V283H389.087V276.556C389.087 275.188 388.997 274.372 388.817 274.108C388.649 273.844 388.325 273.712 387.845 273.712C386.933 273.712 385.877 274.03 384.677 274.666V283ZM395.668 273.136H397.756V274.342H395.668V279.778C395.668 280.786 395.716 281.392 395.812 281.596C395.92 281.8 396.238 281.902 396.766 281.902L397.738 281.866V283.072C397.486 283.132 397.15 283.162 396.73 283.162C395.866 283.162 395.224 282.928 394.804 282.46C394.384 281.98 394.174 281.05 394.174 279.67V274.306H392.986V273.37L394.228 273.118L394.624 270.67H395.668V273.136ZM402.134 283H400.64V272.524H402.134V283ZM402.314 270.976H400.478V269.446H402.314V270.976ZM407.605 273.136H409.891V274.342H407.605V283H406.111V274.288H404.941V273.37L406.111 273.136C406.159 271.696 406.447 270.682 406.975 270.094C407.503 269.506 408.247 269.212 409.207 269.212L410.215 269.248L410.107 270.508C409.495 270.484 409.051 270.472 408.775 270.472C408.499 270.472 408.277 270.52 408.109 270.616C407.773 270.832 407.605 271.672 407.605 273.136ZM412.637 285.988L414.059 281.974L410.441 272.524H412.205L414.671 280.21H414.761L417.209 272.524H418.829L415.193 282.334L414.221 285.988H412.637ZM422.402 283H420.908V272.524H422.402V283ZM422.582 270.976H420.746V269.446H422.582V270.976ZM427.621 283H426.127V272.524H427.135L427.297 273.55H427.387C428.827 272.71 430.075 272.29 431.131 272.29C432.079 272.29 432.733 272.656 433.093 273.388C433.393 274 433.543 274.882 433.543 276.034V283H432.031V276.556C432.031 275.188 431.941 274.372 431.761 274.108C431.593 273.844 431.269 273.712 430.789 273.712C429.877 273.712 428.821 274.03 427.621 274.666V283ZM443.327 276.07C443.327 277.126 442.985 277.984 442.301 278.644C441.629 279.292 440.705 279.616 439.529 279.616C439.409 280.324 439.349 280.702 439.349 280.75C439.349 280.786 439.475 280.858 439.727 280.966C439.991 281.074 440.159 281.14 440.231 281.164C440.591 281.32 440.837 281.428 440.969 281.488C441.941 281.896 442.613 282.298 442.985 282.694C443.369 283.09 443.561 283.504 443.561 283.936C443.561 284.656 443.207 285.214 442.499 285.61C441.791 286.018 440.849 286.222 439.673 286.222C439.097 286.222 438.521 286.18 437.945 286.096C437.369 286.024 436.793 285.904 436.217 285.736L436.397 284.386C438.125 284.686 439.403 284.836 440.231 284.836C441.071 284.836 441.611 284.782 441.851 284.674C442.091 284.578 442.211 284.404 442.211 284.152C442.211 283.9 442.073 283.678 441.797 283.486C441.413 283.222 440.639 282.856 439.475 282.388C438.323 281.908 437.747 281.638 437.747 281.578L438.593 279.508C437.777 279.316 437.135 278.914 436.667 278.302C436.199 277.69 435.965 276.964 435.965 276.124C435.965 274.756 436.343 273.778 437.099 273.19C437.867 272.59 438.869 272.29 440.105 272.29C440.837 272.29 442.103 272.362 443.903 272.506V273.46L442.715 273.64C443.123 274.54 443.327 275.35 443.327 276.07ZM439.817 273.622C438.941 273.622 438.323 273.79 437.963 274.126C437.603 274.45 437.423 275.062 437.423 275.962C437.423 276.862 437.585 277.474 437.909 277.798C438.245 278.122 438.821 278.284 439.637 278.284C440.465 278.284 441.047 278.128 441.383 277.816C441.719 277.492 441.887 276.898 441.887 276.034C441.887 275.194 441.839 274.612 441.743 274.288C441.647 273.952 441.575 273.772 441.527 273.748C441.455 273.688 440.885 273.646 439.817 273.622ZM451.951 283H450.457V272.524H451.951V283ZM452.131 270.976H450.295V269.446H452.131V270.976ZM457.169 283H455.675V272.524H456.683L456.845 273.55H456.935C458.375 272.71 459.623 272.29 460.679 272.29C461.627 272.29 462.281 272.656 462.641 273.388C462.941 274 463.091 274.882 463.091 276.034V283H461.579V276.556C461.579 275.188 461.489 274.372 461.309 274.108C461.141 273.844 460.817 273.712 460.337 273.712C459.425 273.712 458.369 274.03 457.169 274.666V283ZM44.492 295.136H46.58V296.342H44.492V301.778C44.492 302.786 44.54 303.392 44.636 303.596C44.744 303.8 45.062 303.902 45.59 303.902L46.562 303.866V305.072C46.31 305.132 45.974 305.162 45.554 305.162C44.69 305.162 44.048 304.928 43.628 304.46C43.208 303.98 42.998 303.05 42.998 301.67V296.306H41.81V295.37L43.052 295.118L43.448 292.67H44.492V295.136ZM50.5806 305H49.0866V291.446H50.5806V295.172C51.9366 294.584 52.9926 294.29 53.7486 294.29C54.7686 294.29 55.4766 294.596 55.8726 295.208C56.2806 295.808 56.4846 296.75 56.4846 298.034V305H54.9906V298.556C54.9906 297.248 54.8706 296.42 54.6306 296.072C54.4506 295.82 54.1326 295.694 53.6766 295.694C52.8126 295.694 51.9306 295.88 51.0306 296.252L50.5806 296.45V305ZM63.5044 305.234C60.7204 305.234 59.3284 303.41 59.3284 299.762C59.3284 296.114 60.7084 294.29 63.4684 294.29C64.6924 294.29 65.6104 294.674 66.2224 295.442C66.8344 296.198 67.1404 297.458 67.1404 299.222V300.338H60.9124C60.9124 301.958 61.1704 303.008 61.6864 303.488C62.0104 303.776 62.4544 303.92 63.0184 303.92C64.0264 303.92 65.0164 303.752 65.9884 303.416L66.4744 303.236L66.8524 304.46C65.8444 304.976 64.7284 305.234 63.5044 305.234ZM65.1964 296.126C64.9564 295.766 64.3684 295.586 63.4324 295.586C62.4964 295.586 61.8424 295.832 61.4704 296.324C61.0984 296.816 60.9124 297.758 60.9124 299.15L65.6104 299.06C65.6104 297.56 65.4724 296.582 65.1964 296.126ZM75.3834 307.988H73.8894V294.524H74.8974L75.0954 295.586H75.1854C75.2094 295.574 75.3414 295.484 75.5814 295.316C75.8214 295.148 76.0494 294.998 76.2654 294.866C76.4934 294.734 76.7994 294.608 77.1834 294.488C77.5674 294.356 77.9454 294.29 78.3174 294.29C79.3254 294.29 80.1054 294.722 80.6574 295.586C81.2094 296.45 81.4854 297.776 81.4854 299.564C81.4854 303.344 80.2194 305.234 77.6874 305.234C77.1354 305.234 76.3674 305.15 75.3834 304.982V307.988ZM75.3834 303.542C76.4034 303.794 77.2134 303.92 77.8134 303.92C78.4134 303.92 78.8274 303.824 79.0554 303.632C79.6194 303.164 79.9014 301.712 79.9014 299.276C79.9014 297.404 79.7274 296.294 79.3794 295.946C79.1754 295.742 78.8514 295.64 78.4074 295.64C77.9634 295.64 77.4894 295.724 76.9854 295.892C76.4934 296.048 75.9594 296.288 75.3834 296.612V303.542ZM87.86 298.556H89.768C89.768 297.152 89.66 296.306 89.444 296.018C89.24 295.73 88.856 295.586 88.292 295.586C87.728 295.586 87.128 295.664 86.492 295.82C85.868 295.964 85.196 296.186 84.476 296.486L83.954 295.316C84.11 295.244 84.314 295.154 84.566 295.046C84.83 294.926 85.316 294.77 86.024 294.578C86.732 294.386 87.38 294.29 87.968 294.29C90.164 294.29 91.262 295.562 91.262 298.106V305H90.29L90.074 303.902H89.966C89.846 303.998 89.678 304.124 89.462 304.28C89.246 304.424 88.838 304.622 88.238 304.874C87.638 305.114 87.074 305.234 86.546 305.234C85.694 305.234 85.01 304.946 84.494 304.37C83.978 303.782 83.72 302.924 83.72 301.796C83.72 300.656 84.074 299.834 84.782 299.33C85.49 298.814 86.516 298.556 87.86 298.556ZM89.768 299.942C89.252 299.858 88.52 299.816 87.572 299.816C86.636 299.816 86.036 299.93 85.772 300.158C85.448 300.41 85.286 300.944 85.286 301.76C85.286 302.564 85.4 303.122 85.628 303.434C85.868 303.746 86.222 303.902 86.69 303.902C87.17 303.902 87.656 303.824 88.148 303.668C88.64 303.5 89.18 303.254 89.768 302.93V299.942ZM100.053 295.982C99.1045 295.718 98.2105 295.586 97.3705 295.586C96.5305 295.586 95.9905 295.676 95.7505 295.856C95.5105 296.036 95.3905 296.384 95.3905 296.9C95.3905 297.356 95.4745 297.674 95.6425 297.854C95.8225 298.022 95.9605 298.148 96.0565 298.232C96.1525 298.316 96.3145 298.406 96.5425 298.502C96.7705 298.586 96.9385 298.646 97.0465 298.682C97.4905 298.814 97.8925 298.928 98.2525 299.024C99.0565 299.252 99.6805 299.576 100.125 299.996C100.569 300.416 100.791 301.1 100.791 302.048C100.791 302.984 100.491 303.752 99.8905 304.352C99.3025 304.94 98.4685 305.234 97.3885 305.234C96.8605 305.234 96.3085 305.162 95.7325 305.018C95.1685 304.874 94.5805 304.658 93.9685 304.37L94.3465 303.092C95.4385 303.656 96.5425 303.938 97.6585 303.938C98.1985 303.938 98.5825 303.842 98.8105 303.65C99.1585 303.35 99.3325 302.882 99.3325 302.246C99.3325 301.454 98.9665 300.896 98.2345 300.572C97.9465 300.44 97.5445 300.302 97.0285 300.158C96.5125 300.002 96.1585 299.894 95.9665 299.834C95.7865 299.774 95.5405 299.666 95.2285 299.51C94.9285 299.342 94.7065 299.168 94.5625 298.988C94.1785 298.508 93.9865 297.89 93.9865 297.134C93.9865 295.238 95.1265 294.29 97.4065 294.29C98.4625 294.29 99.4225 294.434 100.287 294.722L100.053 295.982ZM105.33 295.136H107.418V296.342H105.33V301.778C105.33 302.786 105.378 303.392 105.474 303.596C105.582 303.8 105.9 303.902 106.428 303.902L107.4 303.866V305.072C107.148 305.132 106.812 305.162 106.392 305.162C105.528 305.162 104.886 304.928 104.466 304.46C104.046 303.98 103.836 303.05 103.836 301.67V296.306H102.648V295.37L103.89 295.118L104.286 292.67H105.33V295.136ZM109.763 305V303.398H111.599V305H109.763Z" fill="black"/>
<defs>
<clipPath id="clip0">
<rect width="51" height="51" fill="white" transform="translate(70 51)"/>
</clipPath>
<clipPath id="clip1">
<rect width="20" height="20" fill="white" transform="translate(55 96)"/>
</clipPath>
<clipPath id="clip2">
<rect width="89" height="88" fill="white" transform="translate(363 58)"/>
</clipPath>
</defs>
</svg>
