<svg width="2078" height="1338" viewBox="0 0 2078 1338" fill="none" xmlns="http://www.w3.org/2000/svg">
<rect width="2078" height="1338" fill="white"/>
<path d="M163 146L213.5 51.5L290 186L406 124.5L290 353L478.5 266L602 548.5L765 244L892 124.5V385.5L982.5 320" stroke="black" stroke-width="10"/>
<line x1="1849" y1="88" x2="1849" y2="580" stroke="black" stroke-width="10"/>
<line x1="981.023" y1="320" x2="1845.02" y2="324" stroke="black" stroke-width="10" stroke-dasharray="25 25"/>
<rect x="232" y="922" width="791" height="22" fill="#C4C4C4"/>
<line x1="1849" y1="688" x2="1849" y2="1180" stroke="#FF0000" stroke-width="10"/>
<line x1="983.79" y1="914.479" x2="1819.68" y2="695.847" stroke="black" stroke-width="10" stroke-dasharray="25 25"/>
<line y1="-5" x2="864.009" y2="-5" transform="matrix(-0.967455 -0.253044 -0.253044 0.967455 1821.95 1179.32)" stroke="black" stroke-width="10" stroke-dasharray="25 25"/>
<line x1="1834" y1="935.5" x2="1023" y2="932.044" stroke="black"/>
<line x1="1850" y1="290" x2="1850" y2="357" stroke="#FF0000" stroke-width="10"/>
<path d="M531.281 977.875V986.188H537.062V992.812H531.281V1009.69C531.281 1010.94 531.521 1011.83 532 1012.38C532.479 1012.92 533.396 1013.19 534.75 1013.19C535.75 1013.19 536.635 1013.11 537.406 1012.97V1019.81C535.635 1020.35 533.812 1020.62 531.938 1020.62C525.604 1020.62 522.375 1017.43 522.25 1011.03V992.812H517.312V986.188H522.25V977.875H531.281ZM550.906 989.875C553.302 987 556.312 985.562 559.938 985.562C567.271 985.562 570.99 989.823 571.094 998.344V1020H562.062V998.594C562.062 996.656 561.646 995.229 560.812 994.312C559.979 993.375 558.594 992.906 556.656 992.906C554.01 992.906 552.094 993.927 550.906 995.969V1020H541.875V972H550.906V989.875ZM593.469 1020.62C588.51 1020.62 584.469 1019.1 581.344 1016.06C578.24 1013.02 576.688 1008.97 576.688 1003.91V1003.03C576.688 999.635 577.344 996.604 578.656 993.938C579.969 991.25 581.823 989.188 584.219 987.75C586.635 986.292 589.385 985.562 592.469 985.562C597.094 985.562 600.729 987.021 603.375 989.938C606.042 992.854 607.375 996.99 607.375 1002.34V1006.03H585.844C586.135 1008.24 587.01 1010.01 588.469 1011.34C589.948 1012.68 591.812 1013.34 594.062 1013.34C597.542 1013.34 600.26 1012.08 602.219 1009.56L606.656 1014.53C605.302 1016.45 603.469 1017.95 601.156 1019.03C598.844 1020.09 596.281 1020.62 593.469 1020.62ZM592.438 992.875C590.646 992.875 589.188 993.479 588.062 994.688C586.958 995.896 586.25 997.625 585.938 999.875H598.5V999.156C598.458 997.156 597.917 995.615 596.875 994.531C595.833 993.427 594.354 992.875 592.438 992.875ZM611.125 1002.78C611.125 999.427 611.771 996.438 613.062 993.812C614.354 991.188 616.208 989.156 618.625 987.719C621.062 986.281 623.885 985.562 627.094 985.562C631.656 985.562 635.375 986.958 638.25 989.75C641.146 992.542 642.76 996.333 643.094 1001.12L643.156 1003.44C643.156 1008.62 641.708 1012.79 638.812 1015.94C635.917 1019.06 632.031 1020.62 627.156 1020.62C622.281 1020.62 618.385 1019.06 615.469 1015.94C612.573 1012.81 611.125 1008.56 611.125 1003.19V1002.78ZM620.156 1003.44C620.156 1006.65 620.76 1009.1 621.969 1010.81C623.177 1012.5 624.906 1013.34 627.156 1013.34C629.344 1013.34 631.052 1012.51 632.281 1010.84C633.51 1009.16 634.125 1006.47 634.125 1002.78C634.125 999.635 633.51 997.198 632.281 995.469C631.052 993.74 629.323 992.875 627.094 992.875C624.885 992.875 623.177 993.74 621.969 995.469C620.76 997.177 620.156 999.833 620.156 1003.44ZM667.719 994.656C666.49 994.49 665.406 994.406 664.469 994.406C661.052 994.406 658.812 995.562 657.75 997.875V1020H648.719V986.188H657.25L657.5 990.219C659.312 987.115 661.823 985.562 665.031 985.562C666.031 985.562 666.969 985.698 667.844 985.969L667.719 994.656ZM685.281 1007.22L691.531 986.188H701.219L687.625 1025.25L686.875 1027.03C684.854 1031.45 681.521 1033.66 676.875 1033.66C675.562 1033.66 674.229 1033.46 672.875 1033.06V1026.22L674.25 1026.25C675.958 1026.25 677.229 1025.99 678.062 1025.47C678.917 1024.95 679.583 1024.08 680.062 1022.88L681.125 1020.09L669.281 986.188H679L685.281 1007.22Z" fill="black"/>
<path d="M484.781 171.188L485.062 175.094C487.479 172.073 490.719 170.562 494.781 170.562C498.365 170.562 501.031 171.615 502.781 173.719C504.531 175.823 505.427 178.969 505.469 183.156V205H496.438V183.375C496.438 181.458 496.021 180.073 495.188 179.219C494.354 178.344 492.969 177.906 491.031 177.906C488.49 177.906 486.583 178.99 485.312 181.156V205H476.281V171.188H484.781ZM510.938 187.781C510.938 184.427 511.583 181.438 512.875 178.812C514.167 176.188 516.021 174.156 518.438 172.719C520.875 171.281 523.698 170.562 526.906 170.562C531.469 170.562 535.188 171.958 538.062 174.75C540.958 177.542 542.573 181.333 542.906 186.125L542.969 188.438C542.969 193.625 541.521 197.792 538.625 200.938C535.729 204.062 531.844 205.625 526.969 205.625C522.094 205.625 518.198 204.062 515.281 200.938C512.385 197.812 510.938 193.562 510.938 188.188V187.781ZM519.969 188.438C519.969 191.646 520.573 194.104 521.781 195.812C522.99 197.5 524.719 198.344 526.969 198.344C529.156 198.344 530.865 197.51 532.094 195.844C533.323 194.156 533.938 191.469 533.938 187.781C533.938 184.635 533.323 182.198 532.094 180.469C530.865 178.74 529.135 177.875 526.906 177.875C524.698 177.875 522.99 178.74 521.781 180.469C520.573 182.177 519.969 184.833 519.969 188.438ZM575.281 162.875V171.188H581.062V177.812H575.281V194.688C575.281 195.938 575.521 196.833 576 197.375C576.479 197.917 577.396 198.188 578.75 198.188C579.75 198.188 580.635 198.115 581.406 197.969V204.812C579.635 205.354 577.812 205.625 575.938 205.625C569.604 205.625 566.375 202.427 566.25 196.031V177.812H561.312V171.188H566.25V162.875H575.281ZM594.906 174.875C597.302 172 600.312 170.562 603.938 170.562C611.271 170.562 614.99 174.823 615.094 183.344V205H606.062V183.594C606.062 181.656 605.646 180.229 604.812 179.312C603.979 178.375 602.594 177.906 600.656 177.906C598.01 177.906 596.094 178.927 594.906 180.969V205H585.875V157H594.906V174.875ZM637.469 205.625C632.51 205.625 628.469 204.104 625.344 201.062C622.24 198.021 620.688 193.969 620.688 188.906V188.031C620.688 184.635 621.344 181.604 622.656 178.938C623.969 176.25 625.823 174.188 628.219 172.75C630.635 171.292 633.385 170.562 636.469 170.562C641.094 170.562 644.729 172.021 647.375 174.938C650.042 177.854 651.375 181.99 651.375 187.344V191.031H629.844C630.135 193.24 631.01 195.01 632.469 196.344C633.948 197.677 635.812 198.344 638.062 198.344C641.542 198.344 644.26 197.083 646.219 194.562L650.656 199.531C649.302 201.448 647.469 202.948 645.156 204.031C642.844 205.094 640.281 205.625 637.469 205.625ZM636.438 177.875C634.646 177.875 633.188 178.479 632.062 179.688C630.958 180.896 630.25 182.625 629.938 184.875H642.5V184.156C642.458 182.156 641.917 180.615 640.875 179.531C639.833 178.427 638.354 177.875 636.438 177.875ZM655.125 187.781C655.125 184.427 655.771 181.438 657.062 178.812C658.354 176.188 660.208 174.156 662.625 172.719C665.062 171.281 667.885 170.562 671.094 170.562C675.656 170.562 679.375 171.958 682.25 174.75C685.146 177.542 686.76 181.333 687.094 186.125L687.156 188.438C687.156 193.625 685.708 197.792 682.812 200.938C679.917 204.062 676.031 205.625 671.156 205.625C666.281 205.625 662.385 204.062 659.469 200.938C656.573 197.812 655.125 193.562 655.125 188.188V187.781ZM664.156 188.438C664.156 191.646 664.76 194.104 665.969 195.812C667.177 197.5 668.906 198.344 671.156 198.344C673.344 198.344 675.052 197.51 676.281 195.844C677.51 194.156 678.125 191.469 678.125 187.781C678.125 184.635 677.51 182.198 676.281 180.469C675.052 178.74 673.323 177.875 671.094 177.875C668.885 177.875 667.177 178.74 665.969 180.469C664.76 182.177 664.156 184.833 664.156 188.438ZM711.719 179.656C710.49 179.49 709.406 179.406 708.469 179.406C705.052 179.406 702.812 180.562 701.75 182.875V205H692.719V171.188H701.25L701.5 175.219C703.312 172.115 705.823 170.562 709.031 170.562C710.031 170.562 710.969 170.698 711.844 170.969L711.719 179.656ZM729.281 192.219L735.531 171.188H745.219L731.625 210.25L730.875 212.031C728.854 216.448 725.521 218.656 720.875 218.656C719.562 218.656 718.229 218.458 716.875 218.062V211.219L718.25 211.25C719.958 211.25 721.229 210.99 722.062 210.469C722.917 209.948 723.583 209.083 724.062 207.875L725.125 205.094L713.281 171.188H723L729.281 192.219Z" fill="black"/>
<path d="M1949.31 138.5L1961 171.5L1972.62 138.5H1984.94V184H1975.53V171.562L1976.47 150.094L1964.19 184H1957.75L1945.5 150.125L1946.44 171.562V184H1937.06V138.5H1949.31ZM1962.75 249.625H1946.31L1943.19 259H1933.22L1950.16 213.5H1958.84L1975.88 259H1965.91L1962.75 249.625ZM1948.84 242.031H1960.22L1954.5 225L1948.84 242.031ZM1953.91 317.344H1946.44V334H1937.06V288.5H1953.97C1959.34 288.5 1963.49 289.698 1966.41 292.094C1969.32 294.49 1970.78 297.875 1970.78 302.25C1970.78 305.354 1970.1 307.948 1968.75 310.031C1967.42 312.094 1965.39 313.74 1962.66 314.969L1972.5 333.562V334H1962.44L1953.91 317.344ZM1946.44 309.75H1954C1956.35 309.75 1958.18 309.156 1959.47 307.969C1960.76 306.76 1961.41 305.104 1961.41 303C1961.41 300.854 1960.79 299.167 1959.56 297.938C1958.35 296.708 1956.49 296.094 1953.97 296.094H1946.44V309.75ZM1951.31 390.75L1946.44 396V409H1937.06V363.5H1946.44V384.125L1950.56 378.469L1962.16 363.5H1973.69L1957.53 383.719L1974.16 409H1963L1951.31 390.75ZM1964.44 464.281H1946.44V476.469H1967.56V484H1937.06V438.5H1967.5V446.094H1946.44V456.938H1964.44V464.281ZM1971.31 521.094H1957.38V559H1948V521.094H1934.25V513.5H1971.31V521.094Z" fill="black"/>
<path d="M1949.31 728.5L1961 761.5L1972.62 728.5H1984.94V774H1975.53V761.562L1976.47 740.094L1964.19 774H1957.75L1945.5 740.125L1946.44 761.562V774H1937.06V728.5H1949.31ZM1962.75 839.625H1946.31L1943.19 849H1933.22L1950.16 803.5H1958.84L1975.88 849H1965.91L1962.75 839.625ZM1948.84 832.031H1960.22L1954.5 815L1948.84 832.031ZM1953.91 907.344H1946.44V924H1937.06V878.5H1953.97C1959.34 878.5 1963.49 879.698 1966.41 882.094C1969.32 884.49 1970.78 887.875 1970.78 892.25C1970.78 895.354 1970.1 897.948 1968.75 900.031C1967.42 902.094 1965.39 903.74 1962.66 904.969L1972.5 923.562V924H1962.44L1953.91 907.344ZM1946.44 899.75H1954C1956.35 899.75 1958.18 899.156 1959.47 897.969C1960.76 896.76 1961.41 895.104 1961.41 893C1961.41 890.854 1960.79 889.167 1959.56 887.938C1958.35 886.708 1956.49 886.094 1953.97 886.094H1946.44V899.75ZM1951.31 980.75L1946.44 986V999H1937.06V953.5H1946.44V974.125L1950.56 968.469L1962.16 953.5H1973.69L1957.53 973.719L1974.16 999H1963L1951.31 980.75ZM1964.44 1054.28H1946.44V1066.47H1967.56V1074H1937.06V1028.5H1967.5V1036.09H1946.44V1046.94H1964.44V1054.28ZM1971.31 1111.09H1957.38V1149H1948V1111.09H1934.25V1103.5H1971.31V1111.09Z" fill="black"/>
<path d="M1168.78 1212.66C1168.78 1211.55 1168.23 1210.69 1167.12 1210.06C1166.04 1209.42 1164.29 1208.84 1161.88 1208.34C1153.83 1206.66 1149.81 1203.24 1149.81 1198.09C1149.81 1195.09 1151.05 1192.59 1153.53 1190.59C1156.03 1188.57 1159.29 1187.56 1163.31 1187.56C1167.6 1187.56 1171.03 1188.57 1173.59 1190.59C1176.18 1192.61 1177.47 1195.24 1177.47 1198.47H1168.44C1168.44 1197.18 1168.02 1196.11 1167.19 1195.28C1166.35 1194.43 1165.05 1194 1163.28 1194C1161.76 1194 1160.58 1194.34 1159.75 1195.03C1158.92 1195.72 1158.5 1196.59 1158.5 1197.66C1158.5 1198.66 1158.97 1199.47 1159.91 1200.09C1160.86 1200.7 1162.47 1201.23 1164.72 1201.69C1166.97 1202.12 1168.86 1202.62 1170.41 1203.19C1175.18 1204.94 1177.56 1207.97 1177.56 1212.28C1177.56 1215.36 1176.24 1217.86 1173.59 1219.78C1170.95 1221.68 1167.53 1222.62 1163.34 1222.62C1160.51 1222.62 1157.99 1222.12 1155.78 1221.12C1153.59 1220.1 1151.88 1218.72 1150.62 1216.97C1149.38 1215.2 1148.75 1213.29 1148.75 1211.25H1157.31C1157.4 1212.85 1157.99 1214.08 1159.09 1214.94C1160.2 1215.79 1161.68 1216.22 1163.53 1216.22C1165.26 1216.22 1166.56 1215.9 1167.44 1215.25C1168.33 1214.58 1168.78 1213.72 1168.78 1212.66ZM1198.97 1222.62C1194.01 1222.62 1189.97 1221.1 1186.84 1218.06C1183.74 1215.02 1182.19 1210.97 1182.19 1205.91V1205.03C1182.19 1201.64 1182.84 1198.6 1184.16 1195.94C1185.47 1193.25 1187.32 1191.19 1189.72 1189.75C1192.14 1188.29 1194.89 1187.56 1197.97 1187.56C1202.59 1187.56 1206.23 1189.02 1208.88 1191.94C1211.54 1194.85 1212.88 1198.99 1212.88 1204.34V1208.03H1191.34C1191.64 1210.24 1192.51 1212.01 1193.97 1213.34C1195.45 1214.68 1197.31 1215.34 1199.56 1215.34C1203.04 1215.34 1205.76 1214.08 1207.72 1211.56L1212.16 1216.53C1210.8 1218.45 1208.97 1219.95 1206.66 1221.03C1204.34 1222.09 1201.78 1222.62 1198.97 1222.62ZM1197.94 1194.88C1196.15 1194.88 1194.69 1195.48 1193.56 1196.69C1192.46 1197.9 1191.75 1199.62 1191.44 1201.88H1204V1201.16C1203.96 1199.16 1203.42 1197.61 1202.38 1196.53C1201.33 1195.43 1199.85 1194.88 1197.94 1194.88ZM1216.72 1204.84C1216.72 1199.66 1217.95 1195.48 1220.41 1192.31C1222.89 1189.15 1226.22 1187.56 1230.41 1187.56C1234.11 1187.56 1237 1188.83 1239.06 1191.38L1239.44 1188.19H1247.62V1220.88C1247.62 1223.83 1246.95 1226.41 1245.59 1228.59C1244.26 1230.78 1242.38 1232.45 1239.94 1233.59C1237.5 1234.74 1234.65 1235.31 1231.38 1235.31C1228.9 1235.31 1226.48 1234.81 1224.12 1233.81C1221.77 1232.83 1219.99 1231.56 1218.78 1230L1222.78 1224.5C1225.03 1227.02 1227.76 1228.28 1230.97 1228.28C1233.36 1228.28 1235.23 1227.64 1236.56 1226.34C1237.9 1225.07 1238.56 1223.26 1238.56 1220.91V1219.09C1236.48 1221.45 1233.74 1222.62 1230.34 1222.62C1226.28 1222.62 1222.99 1221.04 1220.47 1217.88C1217.97 1214.69 1216.72 1210.47 1216.72 1205.22V1204.84ZM1225.75 1205.5C1225.75 1208.56 1226.36 1210.97 1227.59 1212.72C1228.82 1214.45 1230.51 1215.31 1232.66 1215.31C1235.41 1215.31 1237.38 1214.28 1238.56 1212.22V1198C1237.35 1195.94 1235.41 1194.91 1232.72 1194.91C1230.55 1194.91 1228.84 1195.79 1227.59 1197.56C1226.36 1199.33 1225.75 1201.98 1225.75 1205.5ZM1263.06 1188.19L1263.34 1191.97C1265.74 1189.03 1268.98 1187.56 1273.06 1187.56C1277.42 1187.56 1280.41 1189.28 1282.03 1192.72C1284.41 1189.28 1287.79 1187.56 1292.19 1187.56C1295.85 1187.56 1298.58 1188.64 1300.38 1190.78C1302.17 1192.91 1303.06 1196.11 1303.06 1200.41V1222H1294V1200.44C1294 1198.52 1293.62 1197.12 1292.88 1196.25C1292.12 1195.35 1290.8 1194.91 1288.91 1194.91C1286.2 1194.91 1284.32 1196.2 1283.28 1198.78L1283.31 1222H1274.28V1200.47C1274.28 1198.51 1273.9 1197.09 1273.12 1196.22C1272.35 1195.34 1271.04 1194.91 1269.19 1194.91C1266.62 1194.91 1264.77 1195.97 1263.62 1198.09V1222H1254.59V1188.19H1263.06ZM1325.59 1222.62C1320.64 1222.62 1316.59 1221.1 1313.47 1218.06C1310.36 1215.02 1308.81 1210.97 1308.81 1205.91V1205.03C1308.81 1201.64 1309.47 1198.6 1310.78 1195.94C1312.09 1193.25 1313.95 1191.19 1316.34 1189.75C1318.76 1188.29 1321.51 1187.56 1324.59 1187.56C1329.22 1187.56 1332.85 1189.02 1335.5 1191.94C1338.17 1194.85 1339.5 1198.99 1339.5 1204.34V1208.03H1317.97C1318.26 1210.24 1319.14 1212.01 1320.59 1213.34C1322.07 1214.68 1323.94 1215.34 1326.19 1215.34C1329.67 1215.34 1332.39 1214.08 1334.34 1211.56L1338.78 1216.53C1337.43 1218.45 1335.59 1219.95 1333.28 1221.03C1330.97 1222.09 1328.41 1222.62 1325.59 1222.62ZM1324.56 1194.88C1322.77 1194.88 1321.31 1195.48 1320.19 1196.69C1319.08 1197.9 1318.38 1199.62 1318.06 1201.88H1330.62V1201.16C1330.58 1199.16 1330.04 1197.61 1329 1196.53C1327.96 1195.43 1326.48 1194.88 1324.56 1194.88ZM1352.97 1188.19L1353.25 1192.09C1355.67 1189.07 1358.91 1187.56 1362.97 1187.56C1366.55 1187.56 1369.22 1188.61 1370.97 1190.72C1372.72 1192.82 1373.61 1195.97 1373.66 1200.16V1222H1364.62V1200.38C1364.62 1198.46 1364.21 1197.07 1363.38 1196.22C1362.54 1195.34 1361.16 1194.91 1359.22 1194.91C1356.68 1194.91 1354.77 1195.99 1353.5 1198.16V1222H1344.47V1188.19H1352.97ZM1391.34 1179.88V1188.19H1397.12V1194.81H1391.34V1211.69C1391.34 1212.94 1391.58 1213.83 1392.06 1214.38C1392.54 1214.92 1393.46 1215.19 1394.81 1215.19C1395.81 1215.19 1396.7 1215.11 1397.47 1214.97V1221.81C1395.7 1222.35 1393.88 1222.62 1392 1222.62C1385.67 1222.62 1382.44 1219.43 1382.31 1213.03V1194.81H1377.38V1188.19H1382.31V1179.88H1391.34ZM1433.66 1222.62C1428.7 1222.62 1424.66 1221.1 1421.53 1218.06C1418.43 1215.02 1416.88 1210.97 1416.88 1205.91V1205.03C1416.88 1201.64 1417.53 1198.6 1418.84 1195.94C1420.16 1193.25 1422.01 1191.19 1424.41 1189.75C1426.82 1188.29 1429.57 1187.56 1432.66 1187.56C1437.28 1187.56 1440.92 1189.02 1443.56 1191.94C1446.23 1194.85 1447.56 1198.99 1447.56 1204.34V1208.03H1426.03C1426.32 1210.24 1427.2 1212.01 1428.66 1213.34C1430.14 1214.68 1432 1215.34 1434.25 1215.34C1437.73 1215.34 1440.45 1214.08 1442.41 1211.56L1446.84 1216.53C1445.49 1218.45 1443.66 1219.95 1441.34 1221.03C1439.03 1222.09 1436.47 1222.62 1433.66 1222.62ZM1432.62 1194.88C1430.83 1194.88 1429.38 1195.48 1428.25 1196.69C1427.15 1197.9 1426.44 1199.62 1426.12 1201.88H1438.69V1201.16C1438.65 1199.16 1438.1 1197.61 1437.06 1196.53C1436.02 1195.43 1434.54 1194.88 1432.62 1194.88ZM1465.59 1198.28L1471.28 1188.19H1480.94L1471.31 1204.75L1481.34 1222H1471.66L1465.62 1211.38L1459.62 1222H1449.91L1459.94 1204.75L1450.34 1188.19H1460.03L1465.59 1198.28ZM1515.72 1205.41C1515.72 1210.61 1514.53 1214.79 1512.16 1217.94C1509.8 1221.06 1506.61 1222.62 1502.59 1222.62C1499.18 1222.62 1496.42 1221.44 1494.31 1219.06V1235H1485.28V1188.19H1493.66L1493.97 1191.5C1496.16 1188.88 1499.01 1187.56 1502.53 1187.56C1506.7 1187.56 1509.94 1189.1 1512.25 1192.19C1514.56 1195.27 1515.72 1199.52 1515.72 1204.94V1205.41ZM1506.69 1204.75C1506.69 1201.6 1506.12 1199.18 1505 1197.47C1503.9 1195.76 1502.28 1194.91 1500.16 1194.91C1497.32 1194.91 1495.38 1195.99 1494.31 1198.16V1212C1495.42 1214.23 1497.39 1215.34 1500.22 1215.34C1504.53 1215.34 1506.69 1211.81 1506.69 1204.75ZM1540.94 1222C1540.52 1221.19 1540.22 1220.18 1540.03 1218.97C1537.84 1221.41 1535 1222.62 1531.5 1222.62C1528.19 1222.62 1525.44 1221.67 1523.25 1219.75C1521.08 1217.83 1520 1215.42 1520 1212.5C1520 1208.92 1521.32 1206.17 1523.97 1204.25C1526.64 1202.33 1530.48 1201.36 1535.5 1201.34H1539.66V1199.41C1539.66 1197.84 1539.25 1196.59 1538.44 1195.66C1537.65 1194.72 1536.39 1194.25 1534.66 1194.25C1533.14 1194.25 1531.94 1194.61 1531.06 1195.34C1530.21 1196.07 1529.78 1197.07 1529.78 1198.34H1520.75C1520.75 1196.39 1521.35 1194.57 1522.56 1192.91C1523.77 1191.24 1525.48 1189.94 1527.69 1189C1529.9 1188.04 1532.38 1187.56 1535.12 1187.56C1539.29 1187.56 1542.59 1188.61 1545.03 1190.72C1547.49 1192.8 1548.72 1195.74 1548.72 1199.53V1214.19C1548.74 1217.4 1549.19 1219.82 1550.06 1221.47V1222H1540.94ZM1533.47 1215.72C1534.8 1215.72 1536.03 1215.43 1537.16 1214.84C1538.28 1214.24 1539.11 1213.44 1539.66 1212.44V1206.62H1536.28C1531.76 1206.62 1529.35 1208.19 1529.06 1211.31L1529.03 1211.84C1529.03 1212.97 1529.43 1213.9 1530.22 1214.62C1531.01 1215.35 1532.09 1215.72 1533.47 1215.72ZM1563.97 1188.19L1564.25 1192.09C1566.67 1189.07 1569.91 1187.56 1573.97 1187.56C1577.55 1187.56 1580.22 1188.61 1581.97 1190.72C1583.72 1192.82 1584.61 1195.97 1584.66 1200.16V1222H1575.62V1200.38C1575.62 1198.46 1575.21 1197.07 1574.38 1196.22C1573.54 1195.34 1572.16 1194.91 1570.22 1194.91C1567.68 1194.91 1565.77 1195.99 1564.5 1198.16V1222H1555.47V1188.19H1563.97ZM1609.84 1212.66C1609.84 1211.55 1609.29 1210.69 1608.19 1210.06C1607.1 1209.42 1605.35 1208.84 1602.94 1208.34C1594.9 1206.66 1590.88 1203.24 1590.88 1198.09C1590.88 1195.09 1592.11 1192.59 1594.59 1190.59C1597.09 1188.57 1600.35 1187.56 1604.38 1187.56C1608.67 1187.56 1612.09 1188.57 1614.66 1190.59C1617.24 1192.61 1618.53 1195.24 1618.53 1198.47H1609.5C1609.5 1197.18 1609.08 1196.11 1608.25 1195.28C1607.42 1194.43 1606.11 1194 1604.34 1194C1602.82 1194 1601.65 1194.34 1600.81 1195.03C1599.98 1195.72 1599.56 1196.59 1599.56 1197.66C1599.56 1198.66 1600.03 1199.47 1600.97 1200.09C1601.93 1200.7 1603.53 1201.23 1605.78 1201.69C1608.03 1202.12 1609.93 1202.62 1611.47 1203.19C1616.24 1204.94 1618.62 1207.97 1618.62 1212.28C1618.62 1215.36 1617.3 1217.86 1614.66 1219.78C1612.01 1221.68 1608.59 1222.62 1604.41 1222.62C1601.57 1222.62 1599.05 1222.12 1596.84 1221.12C1594.66 1220.1 1592.94 1218.72 1591.69 1216.97C1590.44 1215.2 1589.81 1213.29 1589.81 1211.25H1598.38C1598.46 1212.85 1599.05 1214.08 1600.16 1214.94C1601.26 1215.79 1602.74 1216.22 1604.59 1216.22C1606.32 1216.22 1607.62 1215.9 1608.5 1215.25C1609.4 1214.58 1609.84 1213.72 1609.84 1212.66ZM1634 1222H1624.94V1188.19H1634V1222ZM1624.41 1179.44C1624.41 1178.08 1624.85 1176.97 1625.75 1176.09C1626.67 1175.22 1627.91 1174.78 1629.47 1174.78C1631.01 1174.78 1632.24 1175.22 1633.16 1176.09C1634.07 1176.97 1634.53 1178.08 1634.53 1179.44C1634.53 1180.81 1634.06 1181.94 1633.12 1182.81C1632.21 1183.69 1630.99 1184.12 1629.47 1184.12C1627.95 1184.12 1626.72 1183.69 1625.78 1182.81C1624.86 1181.94 1624.41 1180.81 1624.41 1179.44ZM1640.06 1204.78C1640.06 1201.43 1640.71 1198.44 1642 1195.81C1643.29 1193.19 1645.15 1191.16 1647.56 1189.72C1650 1188.28 1652.82 1187.56 1656.03 1187.56C1660.59 1187.56 1664.31 1188.96 1667.19 1191.75C1670.08 1194.54 1671.7 1198.33 1672.03 1203.12L1672.09 1205.44C1672.09 1210.62 1670.65 1214.79 1667.75 1217.94C1664.85 1221.06 1660.97 1222.62 1656.09 1222.62C1651.22 1222.62 1647.32 1221.06 1644.41 1217.94C1641.51 1214.81 1640.06 1210.56 1640.06 1205.19V1204.78ZM1649.09 1205.44C1649.09 1208.65 1649.7 1211.1 1650.91 1212.81C1652.11 1214.5 1653.84 1215.34 1656.09 1215.34C1658.28 1215.34 1659.99 1214.51 1661.22 1212.84C1662.45 1211.16 1663.06 1208.47 1663.06 1204.78C1663.06 1201.64 1662.45 1199.2 1661.22 1197.47C1659.99 1195.74 1658.26 1194.88 1656.03 1194.88C1653.82 1194.88 1652.11 1195.74 1650.91 1197.47C1649.7 1199.18 1649.09 1201.83 1649.09 1205.44ZM1685.97 1188.19L1686.25 1192.09C1688.67 1189.07 1691.91 1187.56 1695.97 1187.56C1699.55 1187.56 1702.22 1188.61 1703.97 1190.72C1705.72 1192.82 1706.61 1195.97 1706.66 1200.16V1222H1697.62V1200.38C1697.62 1198.46 1697.21 1197.07 1696.38 1196.22C1695.54 1195.34 1694.16 1194.91 1692.22 1194.91C1689.68 1194.91 1687.77 1195.99 1686.5 1198.16V1222H1677.47V1188.19H1685.97Z" fill="black"/>
<path d="M1192.53 409.344C1194.2 409.344 1195.55 408.885 1196.59 407.969C1197.64 407.052 1198.18 405.833 1198.22 404.312H1206.69C1206.67 406.604 1206.04 408.708 1204.81 410.625C1203.58 412.521 1201.9 414 1199.75 415.062C1197.62 416.104 1195.27 416.625 1192.69 416.625C1187.85 416.625 1184.04 415.094 1181.25 412.031C1178.46 408.948 1177.06 404.698 1177.06 399.281V398.688C1177.06 393.479 1178.45 389.323 1181.22 386.219C1183.99 383.115 1187.79 381.562 1192.62 381.562C1196.85 381.562 1200.24 382.771 1202.78 385.188C1205.34 387.583 1206.65 390.781 1206.69 394.781H1198.22C1198.18 393.031 1197.64 391.615 1196.59 390.531C1195.55 389.427 1194.18 388.875 1192.47 388.875C1190.36 388.875 1188.77 389.646 1187.69 391.188C1186.62 392.708 1186.09 395.188 1186.09 398.625V399.562C1186.09 403.042 1186.62 405.542 1187.69 407.062C1188.75 408.583 1190.36 409.344 1192.53 409.344ZM1221.38 416H1212.31V368H1221.38V416ZM1227.44 398.781C1227.44 395.427 1228.08 392.438 1229.38 389.812C1230.67 387.188 1232.52 385.156 1234.94 383.719C1237.38 382.281 1240.2 381.562 1243.41 381.562C1247.97 381.562 1251.69 382.958 1254.56 385.75C1257.46 388.542 1259.07 392.333 1259.41 397.125L1259.47 399.438C1259.47 404.625 1258.02 408.792 1255.12 411.938C1252.23 415.062 1248.34 416.625 1243.47 416.625C1238.59 416.625 1234.7 415.062 1231.78 411.938C1228.89 408.812 1227.44 404.562 1227.44 399.188V398.781ZM1236.47 399.438C1236.47 402.646 1237.07 405.104 1238.28 406.812C1239.49 408.5 1241.22 409.344 1243.47 409.344C1245.66 409.344 1247.36 408.51 1248.59 406.844C1249.82 405.156 1250.44 402.469 1250.44 398.781C1250.44 395.635 1249.82 393.198 1248.59 391.469C1247.36 389.74 1245.64 388.875 1243.41 388.875C1241.2 388.875 1239.49 389.74 1238.28 391.469C1237.07 393.177 1236.47 395.833 1236.47 399.438ZM1283.34 406.656C1283.34 405.552 1282.79 404.688 1281.69 404.062C1280.6 403.417 1278.85 402.844 1276.44 402.344C1268.4 400.656 1264.38 397.24 1264.38 392.094C1264.38 389.094 1265.61 386.594 1268.09 384.594C1270.59 382.573 1273.85 381.562 1277.88 381.562C1282.17 381.562 1285.59 382.573 1288.16 384.594C1290.74 386.615 1292.03 389.24 1292.03 392.469H1283C1283 391.177 1282.58 390.115 1281.75 389.281C1280.92 388.427 1279.61 388 1277.84 388C1276.32 388 1275.15 388.344 1274.31 389.031C1273.48 389.719 1273.06 390.594 1273.06 391.656C1273.06 392.656 1273.53 393.469 1274.47 394.094C1275.43 394.698 1277.03 395.229 1279.28 395.688C1281.53 396.125 1283.43 396.625 1284.97 397.188C1289.74 398.938 1292.12 401.969 1292.12 406.281C1292.12 409.365 1290.8 411.865 1288.16 413.781C1285.51 415.677 1282.09 416.625 1277.91 416.625C1275.07 416.625 1272.55 416.125 1270.34 415.125C1268.16 414.104 1266.44 412.719 1265.19 410.969C1263.94 409.198 1263.31 407.292 1263.31 405.25H1271.88C1271.96 406.854 1272.55 408.083 1273.66 408.938C1274.76 409.792 1276.24 410.219 1278.09 410.219C1279.82 410.219 1281.12 409.896 1282 409.25C1282.9 408.583 1283.34 407.719 1283.34 406.656ZM1313.53 416.625C1308.57 416.625 1304.53 415.104 1301.41 412.062C1298.3 409.021 1296.75 404.969 1296.75 399.906V399.031C1296.75 395.635 1297.41 392.604 1298.72 389.938C1300.03 387.25 1301.89 385.188 1304.28 383.75C1306.7 382.292 1309.45 381.562 1312.53 381.562C1317.16 381.562 1320.79 383.021 1323.44 385.938C1326.1 388.854 1327.44 392.99 1327.44 398.344V402.031H1305.91C1306.2 404.24 1307.07 406.01 1308.53 407.344C1310.01 408.677 1311.88 409.344 1314.12 409.344C1317.6 409.344 1320.32 408.083 1322.28 405.562L1326.72 410.531C1325.36 412.448 1323.53 413.948 1321.22 415.031C1318.91 416.094 1316.34 416.625 1313.53 416.625ZM1312.5 388.875C1310.71 388.875 1309.25 389.479 1308.12 390.688C1307.02 391.896 1306.31 393.625 1306 395.875H1318.56V395.156C1318.52 393.156 1317.98 391.615 1316.94 390.531C1315.9 389.427 1314.42 388.875 1312.5 388.875ZM1331.19 398.844C1331.19 393.573 1332.36 389.375 1334.72 386.25C1337.09 383.125 1340.33 381.562 1344.44 381.562C1347.73 381.562 1350.45 382.792 1352.59 385.25V368H1361.66V416H1353.5L1353.06 412.406C1350.81 415.219 1347.92 416.625 1344.38 416.625C1340.4 416.625 1337.2 415.062 1334.78 411.938C1332.39 408.792 1331.19 404.427 1331.19 398.844ZM1340.22 399.5C1340.22 402.667 1340.77 405.094 1341.88 406.781C1342.98 408.469 1344.58 409.312 1346.69 409.312C1349.48 409.312 1351.45 408.135 1352.59 405.781V392.438C1351.47 390.083 1349.52 388.906 1346.75 388.906C1342.4 388.906 1340.22 392.438 1340.22 399.5ZM1397.25 404.969L1403.53 382.188H1412.97L1401.56 416H1392.94L1381.53 382.188H1390.97L1397.25 404.969ZM1426.5 416H1417.44V382.188H1426.5V416ZM1416.91 373.438C1416.91 372.083 1417.35 370.969 1418.25 370.094C1419.17 369.219 1420.41 368.781 1421.97 368.781C1423.51 368.781 1424.74 369.219 1425.66 370.094C1426.57 370.969 1427.03 372.083 1427.03 373.438C1427.03 374.812 1426.56 375.938 1425.62 376.812C1424.71 377.688 1423.49 378.125 1421.97 378.125C1420.45 378.125 1419.22 377.688 1418.28 376.812C1417.36 375.938 1416.91 374.812 1416.91 373.438ZM1449.53 416.625C1444.57 416.625 1440.53 415.104 1437.41 412.062C1434.3 409.021 1432.75 404.969 1432.75 399.906V399.031C1432.75 395.635 1433.41 392.604 1434.72 389.938C1436.03 387.25 1437.89 385.188 1440.28 383.75C1442.7 382.292 1445.45 381.562 1448.53 381.562C1453.16 381.562 1456.79 383.021 1459.44 385.938C1462.1 388.854 1463.44 392.99 1463.44 398.344V402.031H1441.91C1442.2 404.24 1443.07 406.01 1444.53 407.344C1446.01 408.677 1447.88 409.344 1450.12 409.344C1453.6 409.344 1456.32 408.083 1458.28 405.562L1462.72 410.531C1461.36 412.448 1459.53 413.948 1457.22 415.031C1454.91 416.094 1452.34 416.625 1449.53 416.625ZM1448.5 388.875C1446.71 388.875 1445.25 389.479 1444.12 390.688C1443.02 391.896 1442.31 393.625 1442 395.875H1454.56V395.156C1454.52 393.156 1453.98 391.615 1452.94 390.531C1451.9 389.427 1450.42 388.875 1448.5 388.875ZM1498 403.719L1502.44 382.188H1511.16L1502.53 416H1494.97L1488.56 394.719L1482.16 416H1474.62L1466 382.188H1474.72L1479.12 403.688L1485.31 382.188H1491.84L1498 403.719Z" fill="black"/>
<path d="M1038.5 324C1038.5 353.033 1016.75 376.5 990 376.5C963.25 376.5 941.5 353.033 941.5 324C941.5 294.967 963.25 271.5 990 271.5C1016.75 271.5 1038.5 294.967 1038.5 324Z" stroke="black"/>
<path d="M1220.94 146.469C1221.2 145.396 1220.54 144.315 1219.47 144.056L1201.97 139.832C1200.9 139.573 1199.82 140.233 1199.56 141.307C1199.3 142.381 1199.96 143.461 1201.03 143.721L1216.59 147.475L1212.83 163.028C1212.57 164.102 1213.23 165.182 1214.31 165.442C1215.38 165.701 1216.46 165.04 1216.72 163.967L1220.94 146.469ZM1004.04 279.707L1220.04 147.707L1217.96 144.293L1001.96 276.293L1004.04 279.707Z" fill="black"/>
<path d="M1264.25 147C1263.92 146.333 1263.65 145.146 1263.44 143.438C1260.75 146.229 1257.54 147.625 1253.81 147.625C1250.48 147.625 1247.74 146.688 1245.59 144.812C1243.47 142.917 1242.41 140.521 1242.41 137.625C1242.41 134.104 1243.74 131.375 1246.41 129.438C1249.09 127.479 1252.86 126.5 1257.72 126.5H1263.34V123.844C1263.34 121.823 1262.74 120.219 1261.53 119.031C1260.32 117.823 1258.54 117.219 1256.19 117.219C1254.12 117.219 1252.4 117.74 1251 118.781C1249.6 119.823 1248.91 121.083 1248.91 122.562H1243.09C1243.09 120.875 1243.69 119.25 1244.88 117.688C1246.08 116.104 1247.71 114.854 1249.75 113.938C1251.81 113.021 1254.07 112.562 1256.53 112.562C1260.43 112.562 1263.48 113.542 1265.69 115.5C1267.9 117.438 1269.04 120.115 1269.12 123.531V139.094C1269.12 142.198 1269.52 144.667 1270.31 146.5V147H1264.25ZM1254.66 142.594C1256.47 142.594 1258.19 142.125 1259.81 141.188C1261.44 140.25 1262.61 139.031 1263.34 137.531V130.594H1258.81C1251.73 130.594 1248.19 132.667 1248.19 136.812C1248.19 138.625 1248.79 140.042 1250 141.062C1251.21 142.083 1252.76 142.594 1254.66 142.594ZM1284.47 147H1278.69V99H1284.47V147ZM1300.03 147H1294.25V113.188H1300.03V147ZM1293.78 104.219C1293.78 103.281 1294.06 102.49 1294.62 101.844C1295.21 101.198 1296.06 100.875 1297.19 100.875C1298.31 100.875 1299.17 101.198 1299.75 101.844C1300.33 102.49 1300.62 103.281 1300.62 104.219C1300.62 105.156 1300.33 105.938 1299.75 106.562C1299.17 107.188 1298.31 107.5 1297.19 107.5C1296.06 107.5 1295.21 107.188 1294.62 106.562C1294.06 105.938 1293.78 105.156 1293.78 104.219ZM1307.94 129.812C1307.94 124.542 1309.16 120.354 1311.59 117.25C1314.03 114.125 1317.26 112.562 1321.28 112.562C1325.41 112.562 1328.62 114.021 1330.94 116.938L1331.22 113.188H1336.5V146.188C1336.5 150.562 1335.2 154.01 1332.59 156.531C1330.01 159.052 1326.53 160.312 1322.16 160.312C1319.72 160.312 1317.33 159.792 1315 158.75C1312.67 157.708 1310.89 156.281 1309.66 154.469L1312.66 151C1315.14 154.062 1318.17 155.594 1321.75 155.594C1324.56 155.594 1326.75 154.802 1328.31 153.219C1329.9 151.635 1330.69 149.406 1330.69 146.531V143.625C1328.38 146.292 1325.22 147.625 1321.22 147.625C1317.26 147.625 1314.05 146.031 1311.59 142.844C1309.16 139.656 1307.94 135.312 1307.94 129.812ZM1313.75 130.469C1313.75 134.281 1314.53 137.281 1316.09 139.469C1317.66 141.635 1319.84 142.719 1322.66 142.719C1326.3 142.719 1328.98 141.062 1330.69 137.75V122.312C1328.92 119.083 1326.26 117.469 1322.72 117.469C1319.91 117.469 1317.71 118.562 1316.12 120.75C1314.54 122.938 1313.75 126.177 1313.75 130.469ZM1350.72 113.188L1350.91 117.438C1353.49 114.188 1356.86 112.562 1361.03 112.562C1368.18 112.562 1371.78 116.594 1371.84 124.656V147H1366.06V124.625C1366.04 122.188 1365.48 120.385 1364.38 119.219C1363.29 118.052 1361.59 117.469 1359.28 117.469C1357.41 117.469 1355.76 117.969 1354.34 118.969C1352.93 119.969 1351.82 121.281 1351.03 122.906V147H1345.25V113.188H1350.72ZM1386 113.188L1386.16 116.938C1388.64 114.021 1391.98 112.562 1396.19 112.562C1400.92 112.562 1404.14 114.375 1405.84 118C1406.97 116.375 1408.43 115.062 1410.22 114.062C1412.03 113.062 1414.17 112.562 1416.62 112.562C1424.04 112.562 1427.81 116.49 1427.94 124.344V147H1422.16V124.688C1422.16 122.271 1421.6 120.469 1420.5 119.281C1419.4 118.073 1417.54 117.469 1414.94 117.469C1412.79 117.469 1411.01 118.115 1409.59 119.406C1408.18 120.677 1407.35 122.396 1407.12 124.562V147H1401.31V124.844C1401.31 119.927 1398.91 117.469 1394.09 117.469C1390.3 117.469 1387.71 119.083 1386.31 122.312V147H1380.53V113.188H1386ZM1450.72 147.625C1446.14 147.625 1442.41 146.125 1439.53 143.125C1436.66 140.104 1435.22 136.073 1435.22 131.031V129.969C1435.22 126.615 1435.85 123.625 1437.12 121C1438.42 118.354 1440.21 116.292 1442.5 114.812C1444.81 113.312 1447.31 112.562 1450 112.562C1454.4 112.562 1457.81 114.01 1460.25 116.906C1462.69 119.802 1463.91 123.948 1463.91 129.344V131.75H1441C1441.08 135.083 1442.05 137.781 1443.91 139.844C1445.78 141.885 1448.16 142.906 1451.03 142.906C1453.07 142.906 1454.8 142.49 1456.22 141.656C1457.64 140.823 1458.88 139.719 1459.94 138.344L1463.47 141.094C1460.64 145.448 1456.39 147.625 1450.72 147.625ZM1450 117.312C1447.67 117.312 1445.71 118.167 1444.12 119.875C1442.54 121.562 1441.56 123.938 1441.19 127H1458.12V126.562C1457.96 123.625 1457.17 121.354 1455.75 119.75C1454.33 118.125 1452.42 117.312 1450 117.312ZM1476.09 113.188L1476.28 117.438C1478.86 114.188 1482.24 112.562 1486.41 112.562C1493.55 112.562 1497.16 116.594 1497.22 124.656V147H1491.44V124.625C1491.42 122.188 1490.85 120.385 1489.75 119.219C1488.67 118.052 1486.97 117.469 1484.66 117.469C1482.78 117.469 1481.14 117.969 1479.72 118.969C1478.3 119.969 1477.2 121.281 1476.41 122.906V147H1470.62V113.188H1476.09ZM1513.78 105V113.188H1520.09V117.656H1513.78V138.625C1513.78 139.979 1514.06 141 1514.62 141.688C1515.19 142.354 1516.15 142.688 1517.5 142.688C1518.17 142.688 1519.08 142.562 1520.25 142.312V147C1518.73 147.417 1517.25 147.625 1515.81 147.625C1513.23 147.625 1511.28 146.844 1509.97 145.281C1508.66 143.719 1508 141.5 1508 138.625V117.656H1501.84V113.188H1508V105H1513.78Z" fill="black"/>
<path d="M1822.5 717.5L992 931.5L1822.5 1152.5V717.5Z" fill="#C4C4C4" stroke="black"/>
<line x1="1002.25" y1="927.057" x2="1803.25" y2="805.057" stroke="black" stroke-width="10" stroke-dasharray="25 25"/>
<line y1="-5" x2="810.238" y2="-5" transform="matrix(-0.988599 -0.150573 -0.150573 0.988599 1804 1052)" stroke="black" stroke-width="10" stroke-dasharray="25 25"/>
<line x1="1002" y1="927" x2="1812.24" y2="927.585" stroke="black" stroke-width="10" stroke-dasharray="25 25"/>
</svg>
